<svg width="1500" height="572" viewBox="0 0 1500 572" fill="none" xmlns="http://www.w3.org/2000/svg">
<line x1="180.5" y1="85" x2="180.5" y2="494" stroke="black" style="mix-blend-mode:darken"/>
<line x1="177.999" y1="494.498" x2="1339" y2="494.498" stroke="black" style="mix-blend-mode:darken"/>
<line x1="158" y1="413.5" x2="202" y2="413.5" stroke="black"/>
<line x1="158" y1="289.5" x2="202" y2="289.5" stroke="black"/>
<line x1="158" y1="165.5" x2="202" y2="165.5" stroke="black"/>
<path d="M160.505 503.216C158.569 503.216 157.097 502.472 156.089 500.984C155.081 499.496 154.577 497.344 154.577 494.528C154.577 491.696 155.081 489.544 156.089 488.072C157.097 486.6 158.569 485.864 160.505 485.864C162.457 485.864 163.929 486.6 164.921 488.072C165.929 489.528 166.433 491.672 166.433 494.504C166.433 497.336 165.921 499.496 164.897 500.984C163.889 502.472 162.425 503.216 160.505 503.216ZM160.505 501.512C161.849 501.512 162.841 500.944 163.481 499.808C164.137 498.672 164.465 496.904 164.465 494.504C164.465 492.104 164.145 490.352 163.505 489.248C162.865 488.128 161.865 487.568 160.505 487.568C159.161 487.568 158.161 488.128 157.505 489.248C156.865 490.368 156.545 492.12 156.545 494.504C156.545 496.904 156.865 498.672 157.505 499.808C158.161 500.944 159.161 501.512 160.505 501.512Z" fill="black"/>
<path d="M111.355 422V420.32H115.219V407.456L112.171 409.376L111.331 407.912L115.771 405.08H117.187V420.32H120.811V422H111.355ZM124.282 422V419.552H126.73V422H124.282ZM135.43 422.216C133.494 422.216 132.022 421.472 131.014 419.984C130.006 418.496 129.502 416.344 129.502 413.528C129.502 410.696 130.006 408.544 131.014 407.072C132.022 405.6 133.494 404.864 135.43 404.864C137.382 404.864 138.854 405.6 139.846 407.072C140.854 408.528 141.358 410.672 141.358 413.504C141.358 416.336 140.846 418.496 139.822 419.984C138.814 421.472 137.35 422.216 135.43 422.216ZM135.43 420.512C136.774 420.512 137.766 419.944 138.406 418.808C139.062 417.672 139.39 415.904 139.39 413.504C139.39 411.104 139.07 409.352 138.43 408.248C137.79 407.128 136.79 406.568 135.43 406.568C134.086 406.568 133.086 407.128 132.43 408.248C131.79 409.368 131.47 411.12 131.47 413.504C131.47 415.904 131.79 417.672 132.43 418.808C133.086 419.944 134.086 420.512 135.43 420.512Z" fill="black"/>
<path d="M110.539 298V296.512L116.323 290.272C117.139 289.376 117.723 288.56 118.075 287.824C118.443 287.088 118.627 286.336 118.627 285.568C118.627 283.6 117.483 282.616 115.195 282.616C113.483 282.616 111.971 283.256 110.659 284.536L109.915 283C110.539 282.36 111.331 281.848 112.291 281.464C113.267 281.064 114.291 280.864 115.363 280.864C117.059 280.864 118.355 281.264 119.251 282.064C120.163 282.848 120.619 283.968 120.619 285.424C120.619 286.432 120.371 287.424 119.875 288.4C119.379 289.36 118.619 290.384 117.595 291.472L113.059 296.32H121.315V298H110.539ZM124.282 298V295.552H126.73V298H124.282ZM135.43 298.216C133.494 298.216 132.022 297.472 131.014 295.984C130.006 294.496 129.502 292.344 129.502 289.528C129.502 286.696 130.006 284.544 131.014 283.072C132.022 281.6 133.494 280.864 135.43 280.864C137.382 280.864 138.854 281.6 139.846 283.072C140.854 284.528 141.358 286.672 141.358 289.504C141.358 292.336 140.846 294.496 139.822 295.984C138.814 297.472 137.35 298.216 135.43 298.216ZM135.43 296.512C136.774 296.512 137.766 295.944 138.406 294.808C139.062 293.672 139.39 291.904 139.39 289.504C139.39 287.104 139.07 285.352 138.43 284.248C137.79 283.128 136.79 282.568 135.43 282.568C134.086 282.568 133.086 283.128 132.43 284.248C131.79 285.368 131.47 287.12 131.47 289.504C131.47 291.904 131.79 293.672 132.43 294.808C133.086 295.944 134.086 296.512 135.43 296.512Z" fill="black"/>
<path d="M115.387 174.216C114.267 174.216 113.203 174.048 112.195 173.712C111.187 173.36 110.339 172.856 109.651 172.2L110.371 170.64C111.155 171.28 111.947 171.744 112.747 172.032C113.547 172.32 114.411 172.464 115.339 172.464C116.555 172.464 117.483 172.2 118.123 171.672C118.779 171.128 119.107 170.336 119.107 169.296C119.107 168.304 118.779 167.552 118.123 167.04C117.467 166.528 116.515 166.272 115.267 166.272H112.771V164.568H115.099C116.187 164.568 117.043 164.288 117.667 163.728C118.307 163.152 118.627 162.368 118.627 161.376C118.627 160.496 118.331 159.816 117.739 159.336C117.163 158.856 116.339 158.616 115.267 158.616C113.507 158.616 111.971 159.256 110.659 160.536L109.939 159C110.563 158.328 111.355 157.808 112.315 157.44C113.291 157.056 114.315 156.864 115.387 156.864C117.019 156.864 118.291 157.248 119.203 158.016C120.131 158.784 120.595 159.848 120.595 161.208C120.595 162.152 120.355 162.984 119.875 163.704C119.395 164.408 118.731 164.92 117.883 165.24C118.891 165.512 119.675 166.016 120.235 166.752C120.795 167.472 121.075 168.368 121.075 169.44C121.075 170.896 120.563 172.056 119.539 172.92C118.531 173.784 117.147 174.216 115.387 174.216ZM124.282 174V171.552H126.73V174H124.282ZM135.43 174.216C133.494 174.216 132.022 173.472 131.014 171.984C130.006 170.496 129.502 168.344 129.502 165.528C129.502 162.696 130.006 160.544 131.014 159.072C132.022 157.6 133.494 156.864 135.43 156.864C137.382 156.864 138.854 157.6 139.846 159.072C140.854 160.528 141.358 162.672 141.358 165.504C141.358 168.336 140.846 170.496 139.822 171.984C138.814 173.472 137.35 174.216 135.43 174.216ZM135.43 172.512C136.774 172.512 137.766 171.944 138.406 170.808C139.062 169.672 139.39 167.904 139.39 165.504C139.39 163.104 139.07 161.352 138.43 160.248C137.79 159.128 136.79 158.568 135.43 158.568C134.086 158.568 133.086 159.128 132.43 160.248C131.79 161.368 131.47 163.12 131.47 165.504C131.47 167.904 131.79 169.672 132.43 170.808C133.086 171.944 134.086 172.512 135.43 172.512Z" fill="black"/>
<rect x="335" y="264" width="218" height="230" fill="#27A2DB"/>
<rect x="981" y="373" width="218" height="121" fill="#27A2DB"/>
<path d="M309.773 543V541.32H313.637V528.456L310.589 530.376L309.749 528.912L314.189 526.08H315.605V541.32H319.229V543H309.773ZM325.652 532.968C324.964 532.968 324.348 532.816 323.804 532.512C323.276 532.192 322.852 531.768 322.532 531.24C322.228 530.696 322.076 530.088 322.076 529.416C322.076 528.744 322.228 528.144 322.532 527.616C322.852 527.072 323.276 526.648 323.804 526.344C324.348 526.024 324.964 525.864 325.652 525.864C326.324 525.864 326.924 526.024 327.452 526.344C327.98 526.648 328.396 527.072 328.7 527.616C329.02 528.144 329.18 528.744 329.18 529.416C329.18 530.088 329.02 530.696 328.7 531.24C328.396 531.768 327.98 532.192 327.452 532.512C326.924 532.816 326.324 532.968 325.652 532.968ZM325.652 531.648C326.276 531.648 326.788 531.44 327.188 531.024C327.588 530.592 327.788 530.056 327.788 529.416C327.788 528.76 327.588 528.224 327.188 527.808C326.788 527.392 326.276 527.184 325.652 527.184C325.012 527.184 324.492 527.392 324.092 527.808C323.692 528.224 323.492 528.76 323.492 529.416C323.492 530.056 323.692 530.592 324.092 531.024C324.492 531.44 325.012 531.648 325.652 531.648ZM338.346 543V526.08H340.314V543H338.346ZM344.222 543V531.336H346.118V533.328C346.502 532.592 347.046 532.04 347.75 531.672C348.454 531.304 349.246 531.12 350.126 531.12C352.894 531.12 354.278 532.656 354.278 535.728V543H352.334V535.848C352.334 534.76 352.118 533.968 351.686 533.472C351.27 532.96 350.598 532.704 349.67 532.704C348.598 532.704 347.742 533.04 347.102 533.712C346.478 534.368 346.166 535.248 346.166 536.352V543H344.222ZM358.487 543V532.848H356.183V531.336H358.487V530.928C358.487 529.376 358.871 528.2 359.639 527.4C360.423 526.6 361.623 526.152 363.239 526.056L364.175 526.008L364.343 527.496L363.239 527.568C362.247 527.648 361.527 527.944 361.079 528.456C360.647 528.968 360.431 529.712 360.431 530.688V531.336H363.791V532.848H360.431V543H358.487ZM370.375 543.216C369.239 543.216 368.255 542.968 367.423 542.472C366.591 541.976 365.943 541.28 365.479 540.384C365.031 539.472 364.807 538.4 364.807 537.168C364.807 535.936 365.031 534.872 365.479 533.976C365.943 533.064 366.591 532.36 367.423 531.864C368.255 531.368 369.239 531.12 370.375 531.12C371.495 531.12 372.471 531.368 373.303 531.864C374.151 532.36 374.799 533.064 375.247 533.976C375.711 534.872 375.943 535.936 375.943 537.168C375.943 538.4 375.711 539.472 375.247 540.384C374.799 541.28 374.151 541.976 373.303 542.472C372.471 542.968 371.495 543.216 370.375 543.216ZM370.375 541.656C371.463 541.656 372.335 541.272 372.991 540.504C373.647 539.72 373.975 538.608 373.975 537.168C373.975 535.712 373.647 534.6 372.991 533.832C372.335 533.064 371.463 532.68 370.375 532.68C369.271 532.68 368.391 533.064 367.735 533.832C367.095 534.6 366.775 535.712 366.775 537.168C366.775 538.608 367.095 539.72 367.735 540.504C368.391 541.272 369.271 541.656 370.375 541.656ZM378.863 543V531.336H380.759V533.424C381.383 532.016 382.663 531.24 384.599 531.096L385.295 531.024L385.439 532.704L384.215 532.848C383.111 532.944 382.271 533.296 381.695 533.904C381.119 534.496 380.831 535.312 380.831 536.352V543H378.863ZM387.513 543V531.336H389.409V533.304C389.761 532.6 390.249 532.064 390.873 531.696C391.497 531.312 392.225 531.12 393.057 531.12C394.881 531.12 396.049 531.912 396.561 533.496C396.913 532.76 397.433 532.184 398.121 531.768C398.809 531.336 399.601 531.12 400.497 531.12C403.089 531.12 404.385 532.656 404.385 535.728V543H402.441V535.824C402.441 534.752 402.249 533.968 401.865 533.472C401.497 532.96 400.881 532.704 400.017 532.704C399.073 532.704 398.321 533.04 397.761 533.712C397.201 534.384 396.921 535.28 396.921 536.4V543H394.977V535.824C394.977 534.752 394.785 533.968 394.401 533.472C394.033 532.96 393.417 532.704 392.553 532.704C391.593 532.704 390.833 533.04 390.273 533.712C389.729 534.384 389.457 535.28 389.457 536.4V543H387.513ZM411.691 543.216C410.891 543.216 410.171 543.064 409.531 542.76C408.907 542.44 408.411 542.008 408.043 541.464C407.675 540.92 407.491 540.312 407.491 539.64C407.491 538.792 407.707 538.12 408.139 537.624C408.587 537.128 409.315 536.776 410.323 536.568C411.347 536.344 412.739 536.232 414.499 536.232H415.267V535.488C415.267 534.496 415.059 533.784 414.643 533.352C414.243 532.904 413.595 532.68 412.699 532.68C411.995 532.68 411.315 532.784 410.659 532.992C410.003 533.184 409.331 533.504 408.643 533.952L407.971 532.536C408.579 532.104 409.315 531.76 410.179 531.504C411.059 531.248 411.899 531.12 412.699 531.12C414.203 531.12 415.315 531.488 416.035 532.224C416.771 532.96 417.139 534.104 417.139 535.656V543H415.315V540.984C415.011 541.672 414.539 542.216 413.899 542.616C413.275 543.016 412.539 543.216 411.691 543.216ZM412.003 541.752C412.963 541.752 413.747 541.424 414.355 540.768C414.963 540.096 415.267 539.248 415.267 538.224V537.504H414.523C413.227 537.504 412.203 537.568 411.451 537.696C410.715 537.808 410.195 538.016 409.891 538.32C409.603 538.608 409.459 539.008 409.459 539.52C409.459 540.176 409.683 540.712 410.131 541.128C410.595 541.544 411.219 541.752 412.003 541.752ZM412.027 529.776L414.499 524.928H416.587L413.419 529.776H412.027ZM425.426 543.216C424.05 543.216 423.018 542.856 422.33 542.136C421.642 541.4 421.298 540.344 421.298 538.968V532.848H419.018V531.336H421.298V527.76H423.242V531.336H426.938V532.848H423.242V538.776C423.242 539.688 423.434 540.384 423.818 540.864C424.202 541.328 424.826 541.56 425.69 541.56C425.946 541.56 426.202 541.528 426.458 541.464C426.714 541.4 426.946 541.336 427.154 541.272L427.49 542.76C427.282 542.872 426.978 542.976 426.578 543.072C426.178 543.168 425.794 543.216 425.426 543.216ZM428.896 528.432V526.248H431.297V528.432H428.896ZM429.137 543V531.336H431.081V543H429.137ZM439.659 543.216C438.491 543.216 437.483 542.968 436.635 542.472C435.787 541.96 435.131 541.248 434.667 540.336C434.219 539.408 433.995 538.328 433.995 537.096C433.995 535.24 434.499 533.784 435.507 532.728C436.515 531.656 437.899 531.12 439.659 531.12C440.379 531.12 441.091 531.248 441.795 531.504C442.499 531.76 443.083 532.12 443.547 532.584L442.875 534C442.411 533.552 441.899 533.224 441.339 533.016C440.795 532.808 440.275 532.704 439.779 532.704C438.563 532.704 437.627 533.088 436.971 533.856C436.315 534.608 435.987 535.696 435.987 537.12C435.987 538.512 436.315 539.616 436.971 540.432C437.627 541.232 438.563 541.632 439.779 541.632C440.275 541.632 440.795 541.528 441.339 541.32C441.899 541.112 442.411 540.776 442.875 540.312L443.547 541.728C443.083 542.192 442.491 542.56 441.771 542.832C441.067 543.088 440.363 543.216 439.659 543.216ZM449.402 543.216C448.602 543.216 447.882 543.064 447.242 542.76C446.618 542.44 446.122 542.008 445.754 541.464C445.386 540.92 445.202 540.312 445.202 539.64C445.202 538.792 445.418 538.12 445.85 537.624C446.298 537.128 447.026 536.776 448.034 536.568C449.058 536.344 450.45 536.232 452.21 536.232H452.978V535.488C452.978 534.496 452.77 533.784 452.354 533.352C451.954 532.904 451.306 532.68 450.41 532.68C449.706 532.68 449.026 532.784 448.37 532.992C447.714 533.184 447.042 533.504 446.354 533.952L445.682 532.536C446.29 532.104 447.026 531.76 447.89 531.504C448.77 531.248 449.61 531.12 450.41 531.12C451.914 531.12 453.026 531.488 453.746 532.224C454.482 532.96 454.85 534.104 454.85 535.656V543H453.026V540.984C452.722 541.672 452.25 542.216 451.61 542.616C450.986 543.016 450.25 543.216 449.402 543.216ZM449.714 541.752C450.674 541.752 451.458 541.424 452.066 540.768C452.674 540.096 452.978 539.248 452.978 538.224V537.504H452.234C450.938 537.504 449.914 537.568 449.162 537.696C448.426 537.808 447.906 538.016 447.602 538.32C447.314 538.608 447.17 539.008 447.17 539.52C447.17 540.176 447.394 540.712 447.842 541.128C448.306 541.544 448.93 541.752 449.714 541.752ZM464.957 543V541.512L470.741 535.272C471.557 534.376 472.141 533.56 472.493 532.824C472.861 532.088 473.045 531.336 473.045 530.568C473.045 528.6 471.901 527.616 469.613 527.616C467.901 527.616 466.389 528.256 465.077 529.536L464.333 528C464.957 527.36 465.749 526.848 466.709 526.464C467.685 526.064 468.709 525.864 469.781 525.864C471.477 525.864 472.773 526.264 473.669 527.064C474.581 527.848 475.037 528.968 475.037 530.424C475.037 531.432 474.789 532.424 474.293 533.4C473.797 534.36 473.037 535.384 472.013 536.472L467.477 541.32H475.733V543H464.957ZM484.388 543.216C482.452 543.216 480.98 542.472 479.972 540.984C478.964 539.496 478.46 537.344 478.46 534.528C478.46 531.696 478.964 529.544 479.972 528.072C480.98 526.6 482.452 525.864 484.388 525.864C486.34 525.864 487.812 526.6 488.804 528.072C489.812 529.528 490.316 531.672 490.316 534.504C490.316 537.336 489.804 539.496 488.78 540.984C487.772 542.472 486.308 543.216 484.388 543.216ZM484.388 541.512C485.732 541.512 486.724 540.944 487.364 539.808C488.02 538.672 488.348 536.904 488.348 534.504C488.348 532.104 488.028 530.352 487.388 529.248C486.748 528.128 485.748 527.568 484.388 527.568C483.044 527.568 482.044 528.128 481.388 529.248C480.748 530.368 480.428 532.12 480.428 534.504C480.428 536.904 480.748 538.672 481.388 539.808C482.044 540.944 483.044 541.512 484.388 541.512ZM493.738 543V541.512L499.522 535.272C500.338 534.376 500.922 533.56 501.274 532.824C501.642 532.088 501.826 531.336 501.826 530.568C501.826 528.6 500.682 527.616 498.394 527.616C496.682 527.616 495.17 528.256 493.858 529.536L493.114 528C493.738 527.36 494.53 526.848 495.49 526.464C496.466 526.064 497.49 525.864 498.562 525.864C500.258 525.864 501.554 526.264 502.45 527.064C503.362 527.848 503.818 528.968 503.818 530.424C503.818 531.432 503.57 532.424 503.074 533.4C502.578 534.36 501.818 535.384 500.794 536.472L496.258 541.32H504.514V543H493.738ZM513.169 543.216C511.233 543.216 509.761 542.472 508.753 540.984C507.745 539.496 507.241 537.344 507.241 534.528C507.241 531.696 507.745 529.544 508.753 528.072C509.761 526.6 511.233 525.864 513.169 525.864C515.121 525.864 516.593 526.6 517.585 528.072C518.593 529.528 519.097 531.672 519.097 534.504C519.097 537.336 518.585 539.496 517.561 540.984C516.553 542.472 515.089 543.216 513.169 543.216ZM513.169 541.512C514.513 541.512 515.505 540.944 516.145 539.808C516.801 538.672 517.129 536.904 517.129 534.504C517.129 532.104 516.809 530.352 516.169 529.248C515.529 528.128 514.529 527.568 513.169 527.568C511.825 527.568 510.825 528.128 510.169 529.248C509.529 530.368 509.209 532.12 509.209 534.504C509.209 536.904 509.529 538.672 510.169 539.808C510.825 540.944 511.825 541.512 513.169 541.512ZM528.251 537.408V535.8H534.971V537.408H528.251ZM544.947 543V526.08H546.915V543H544.947ZM551.088 543V526.08H552.624L562.824 539.688V526.08H564.648V543H563.16L552.936 529.344V543H551.088ZM573.006 543V527.784H566.862V526.08H581.142V527.784H574.998V543H573.006Z" fill="black"/>
<path d="M954.957 543V541.512L960.741 535.272C961.557 534.376 962.141 533.56 962.493 532.824C962.861 532.088 963.045 531.336 963.045 530.568C963.045 528.6 961.901 527.616 959.613 527.616C957.901 527.616 956.389 528.256 955.077 529.536L954.333 528C954.957 527.36 955.749 526.848 956.709 526.464C957.685 526.064 958.709 525.864 959.781 525.864C961.477 525.864 962.773 526.264 963.669 527.064C964.581 527.848 965.037 528.968 965.037 530.424C965.037 531.432 964.789 532.424 964.293 533.4C963.797 534.36 963.037 535.384 962.013 536.472L957.477 541.32H965.733V543H954.957ZM971.652 532.968C970.964 532.968 970.348 532.816 969.804 532.512C969.276 532.192 968.852 531.768 968.532 531.24C968.228 530.696 968.076 530.088 968.076 529.416C968.076 528.744 968.228 528.144 968.532 527.616C968.852 527.072 969.276 526.648 969.804 526.344C970.348 526.024 970.964 525.864 971.652 525.864C972.324 525.864 972.924 526.024 973.452 526.344C973.98 526.648 974.396 527.072 974.7 527.616C975.02 528.144 975.18 528.744 975.18 529.416C975.18 530.088 975.02 530.696 974.7 531.24C974.396 531.768 973.98 532.192 973.452 532.512C972.924 532.816 972.324 532.968 971.652 532.968ZM971.652 531.648C972.276 531.648 972.788 531.44 973.188 531.024C973.588 530.592 973.788 530.056 973.788 529.416C973.788 528.76 973.588 528.224 973.188 527.808C972.788 527.392 972.276 527.184 971.652 527.184C971.012 527.184 970.492 527.392 970.092 527.808C969.692 528.224 969.492 528.76 969.492 529.416C969.492 530.056 969.692 530.592 970.092 531.024C970.492 531.44 971.012 531.648 971.652 531.648ZM984.346 543V526.08H986.314V543H984.346ZM990.222 543V531.336H992.118V533.328C992.502 532.592 993.046 532.04 993.75 531.672C994.454 531.304 995.246 531.12 996.126 531.12C998.894 531.12 1000.28 532.656 1000.28 535.728V543H998.334V535.848C998.334 534.76 998.118 533.968 997.686 533.472C997.27 532.96 996.598 532.704 995.67 532.704C994.598 532.704 993.742 533.04 993.102 533.712C992.478 534.368 992.166 535.248 992.166 536.352V543H990.222ZM1004.49 543V532.848H1002.18V531.336H1004.49V530.928C1004.49 529.376 1004.87 528.2 1005.64 527.4C1006.42 526.6 1007.62 526.152 1009.24 526.056L1010.18 526.008L1010.34 527.496L1009.24 527.568C1008.25 527.648 1007.53 527.944 1007.08 528.456C1006.65 528.968 1006.43 529.712 1006.43 530.688V531.336H1009.79V532.848H1006.43V543H1004.49ZM1016.38 543.216C1015.24 543.216 1014.26 542.968 1013.42 542.472C1012.59 541.976 1011.94 541.28 1011.48 540.384C1011.03 539.472 1010.81 538.4 1010.81 537.168C1010.81 535.936 1011.03 534.872 1011.48 533.976C1011.94 533.064 1012.59 532.36 1013.42 531.864C1014.26 531.368 1015.24 531.12 1016.38 531.12C1017.5 531.12 1018.47 531.368 1019.3 531.864C1020.15 532.36 1020.8 533.064 1021.25 533.976C1021.71 534.872 1021.94 535.936 1021.94 537.168C1021.94 538.4 1021.71 539.472 1021.25 540.384C1020.8 541.28 1020.15 541.976 1019.3 542.472C1018.47 542.968 1017.5 543.216 1016.38 543.216ZM1016.38 541.656C1017.46 541.656 1018.34 541.272 1018.99 540.504C1019.65 539.72 1019.98 538.608 1019.98 537.168C1019.98 535.712 1019.65 534.6 1018.99 533.832C1018.34 533.064 1017.46 532.68 1016.38 532.68C1015.27 532.68 1014.39 533.064 1013.74 533.832C1013.1 534.6 1012.78 535.712 1012.78 537.168C1012.78 538.608 1013.1 539.72 1013.74 540.504C1014.39 541.272 1015.27 541.656 1016.38 541.656ZM1024.86 543V531.336H1026.76V533.424C1027.38 532.016 1028.66 531.24 1030.6 531.096L1031.3 531.024L1031.44 532.704L1030.22 532.848C1029.11 532.944 1028.27 533.296 1027.7 533.904C1027.12 534.496 1026.83 535.312 1026.83 536.352V543H1024.86ZM1033.51 543V531.336H1035.41V533.304C1035.76 532.6 1036.25 532.064 1036.87 531.696C1037.5 531.312 1038.22 531.12 1039.06 531.12C1040.88 531.12 1042.05 531.912 1042.56 533.496C1042.91 532.76 1043.43 532.184 1044.12 531.768C1044.81 531.336 1045.6 531.12 1046.5 531.12C1049.09 531.12 1050.38 532.656 1050.38 535.728V543H1048.44V535.824C1048.44 534.752 1048.25 533.968 1047.86 533.472C1047.5 532.96 1046.88 532.704 1046.02 532.704C1045.07 532.704 1044.32 533.04 1043.76 533.712C1043.2 534.384 1042.92 535.28 1042.92 536.4V543H1040.98V535.824C1040.98 534.752 1040.78 533.968 1040.4 533.472C1040.03 532.96 1039.42 532.704 1038.55 532.704C1037.59 532.704 1036.83 533.04 1036.27 533.712C1035.73 534.384 1035.46 535.28 1035.46 536.4V543H1033.51ZM1057.69 543.216C1056.89 543.216 1056.17 543.064 1055.53 542.76C1054.91 542.44 1054.41 542.008 1054.04 541.464C1053.68 540.92 1053.49 540.312 1053.49 539.64C1053.49 538.792 1053.71 538.12 1054.14 537.624C1054.59 537.128 1055.32 536.776 1056.32 536.568C1057.35 536.344 1058.74 536.232 1060.5 536.232H1061.27V535.488C1061.27 534.496 1061.06 533.784 1060.64 533.352C1060.24 532.904 1059.6 532.68 1058.7 532.68C1058 532.68 1057.32 532.784 1056.66 532.992C1056 533.184 1055.33 533.504 1054.64 533.952L1053.97 532.536C1054.58 532.104 1055.32 531.76 1056.18 531.504C1057.06 531.248 1057.9 531.12 1058.7 531.12C1060.2 531.12 1061.32 531.488 1062.04 532.224C1062.77 532.96 1063.14 534.104 1063.14 535.656V543H1061.32V540.984C1061.01 541.672 1060.54 542.216 1059.9 542.616C1059.28 543.016 1058.54 543.216 1057.69 543.216ZM1058 541.752C1058.96 541.752 1059.75 541.424 1060.36 540.768C1060.96 540.096 1061.27 539.248 1061.27 538.224V537.504H1060.52C1059.23 537.504 1058.2 537.568 1057.45 537.696C1056.72 537.808 1056.2 538.016 1055.89 538.32C1055.6 538.608 1055.46 539.008 1055.46 539.52C1055.46 540.176 1055.68 540.712 1056.13 541.128C1056.6 541.544 1057.22 541.752 1058 541.752ZM1058.03 529.776L1060.5 524.928H1062.59L1059.42 529.776H1058.03ZM1071.43 543.216C1070.05 543.216 1069.02 542.856 1068.33 542.136C1067.64 541.4 1067.3 540.344 1067.3 538.968V532.848H1065.02V531.336H1067.3V527.76H1069.24V531.336H1072.94V532.848H1069.24V538.776C1069.24 539.688 1069.43 540.384 1069.82 540.864C1070.2 541.328 1070.83 541.56 1071.69 541.56C1071.95 541.56 1072.2 541.528 1072.46 541.464C1072.71 541.4 1072.95 541.336 1073.15 541.272L1073.49 542.76C1073.28 542.872 1072.98 542.976 1072.58 543.072C1072.18 543.168 1071.79 543.216 1071.43 543.216ZM1074.9 528.432V526.248H1077.3V528.432H1074.9ZM1075.14 543V531.336H1077.08V543H1075.14ZM1085.66 543.216C1084.49 543.216 1083.48 542.968 1082.63 542.472C1081.79 541.96 1081.13 541.248 1080.67 540.336C1080.22 539.408 1079.99 538.328 1079.99 537.096C1079.99 535.24 1080.5 533.784 1081.51 532.728C1082.51 531.656 1083.9 531.12 1085.66 531.12C1086.38 531.12 1087.09 531.248 1087.79 531.504C1088.5 531.76 1089.08 532.12 1089.55 532.584L1088.87 534C1088.41 533.552 1087.9 533.224 1087.34 533.016C1086.79 532.808 1086.27 532.704 1085.78 532.704C1084.56 532.704 1083.63 533.088 1082.97 533.856C1082.31 534.608 1081.99 535.696 1081.99 537.12C1081.99 538.512 1082.31 539.616 1082.97 540.432C1083.63 541.232 1084.56 541.632 1085.78 541.632C1086.27 541.632 1086.79 541.528 1087.34 541.32C1087.9 541.112 1088.41 540.776 1088.87 540.312L1089.55 541.728C1089.08 542.192 1088.49 542.56 1087.77 542.832C1087.07 543.088 1086.36 543.216 1085.66 543.216ZM1095.4 543.216C1094.6 543.216 1093.88 543.064 1093.24 542.76C1092.62 542.44 1092.12 542.008 1091.75 541.464C1091.39 540.92 1091.2 540.312 1091.2 539.64C1091.2 538.792 1091.42 538.12 1091.85 537.624C1092.3 537.128 1093.03 536.776 1094.03 536.568C1095.06 536.344 1096.45 536.232 1098.21 536.232H1098.98V535.488C1098.98 534.496 1098.77 533.784 1098.35 533.352C1097.95 532.904 1097.31 532.68 1096.41 532.68C1095.71 532.68 1095.03 532.784 1094.37 532.992C1093.71 533.184 1093.04 533.504 1092.35 533.952L1091.68 532.536C1092.29 532.104 1093.03 531.76 1093.89 531.504C1094.77 531.248 1095.61 531.12 1096.41 531.12C1097.91 531.12 1099.03 531.488 1099.75 532.224C1100.48 532.96 1100.85 534.104 1100.85 535.656V543H1099.03V540.984C1098.72 541.672 1098.25 542.216 1097.61 542.616C1096.99 543.016 1096.25 543.216 1095.4 543.216ZM1095.71 541.752C1096.67 541.752 1097.46 541.424 1098.07 540.768C1098.67 540.096 1098.98 539.248 1098.98 538.224V537.504H1098.23C1096.94 537.504 1095.91 537.568 1095.16 537.696C1094.43 537.808 1093.91 538.016 1093.6 538.32C1093.31 538.608 1093.17 539.008 1093.17 539.52C1093.17 540.176 1093.39 540.712 1093.84 541.128C1094.31 541.544 1094.93 541.752 1095.71 541.752ZM1110.96 543V541.512L1116.74 535.272C1117.56 534.376 1118.14 533.56 1118.49 532.824C1118.86 532.088 1119.04 531.336 1119.04 530.568C1119.04 528.6 1117.9 527.616 1115.61 527.616C1113.9 527.616 1112.39 528.256 1111.08 529.536L1110.33 528C1110.96 527.36 1111.75 526.848 1112.71 526.464C1113.68 526.064 1114.71 525.864 1115.78 525.864C1117.48 525.864 1118.77 526.264 1119.67 527.064C1120.58 527.848 1121.04 528.968 1121.04 530.424C1121.04 531.432 1120.79 532.424 1120.29 533.4C1119.8 534.36 1119.04 535.384 1118.01 536.472L1113.48 541.32H1121.73V543H1110.96ZM1130.39 543.216C1128.45 543.216 1126.98 542.472 1125.97 540.984C1124.96 539.496 1124.46 537.344 1124.46 534.528C1124.46 531.696 1124.96 529.544 1125.97 528.072C1126.98 526.6 1128.45 525.864 1130.39 525.864C1132.34 525.864 1133.81 526.6 1134.8 528.072C1135.81 529.528 1136.32 531.672 1136.32 534.504C1136.32 537.336 1135.8 539.496 1134.78 540.984C1133.77 542.472 1132.31 543.216 1130.39 543.216ZM1130.39 541.512C1131.73 541.512 1132.72 540.944 1133.36 539.808C1134.02 538.672 1134.35 536.904 1134.35 534.504C1134.35 532.104 1134.03 530.352 1133.39 529.248C1132.75 528.128 1131.75 527.568 1130.39 527.568C1129.04 527.568 1128.04 528.128 1127.39 529.248C1126.75 530.368 1126.43 532.12 1126.43 534.504C1126.43 536.904 1126.75 538.672 1127.39 539.808C1128.04 540.944 1129.04 541.512 1130.39 541.512ZM1139.74 543V541.512L1145.52 535.272C1146.34 534.376 1146.92 533.56 1147.27 532.824C1147.64 532.088 1147.83 531.336 1147.83 530.568C1147.83 528.6 1146.68 527.616 1144.39 527.616C1142.68 527.616 1141.17 528.256 1139.86 529.536L1139.11 528C1139.74 527.36 1140.53 526.848 1141.49 526.464C1142.47 526.064 1143.49 525.864 1144.56 525.864C1146.26 525.864 1147.55 526.264 1148.45 527.064C1149.36 527.848 1149.82 528.968 1149.82 530.424C1149.82 531.432 1149.57 532.424 1149.07 533.4C1148.58 534.36 1147.82 535.384 1146.79 536.472L1142.26 541.32H1150.51V543H1139.74ZM1159.17 543.216C1157.23 543.216 1155.76 542.472 1154.75 540.984C1153.74 539.496 1153.24 537.344 1153.24 534.528C1153.24 531.696 1153.74 529.544 1154.75 528.072C1155.76 526.6 1157.23 525.864 1159.17 525.864C1161.12 525.864 1162.59 526.6 1163.58 528.072C1164.59 529.528 1165.1 531.672 1165.1 534.504C1165.1 537.336 1164.58 539.496 1163.56 540.984C1162.55 542.472 1161.09 543.216 1159.17 543.216ZM1159.17 541.512C1160.51 541.512 1161.5 540.944 1162.14 539.808C1162.8 538.672 1163.13 536.904 1163.13 534.504C1163.13 532.104 1162.81 530.352 1162.17 529.248C1161.53 528.128 1160.53 527.568 1159.17 527.568C1157.82 527.568 1156.82 528.128 1156.17 529.248C1155.53 530.368 1155.21 532.12 1155.21 534.504C1155.21 536.904 1155.53 538.672 1156.17 539.808C1156.82 540.944 1157.82 541.512 1159.17 541.512ZM1174.25 537.408V535.8H1180.97V537.408H1174.25ZM1190.95 543V526.08H1192.92V543H1190.95ZM1197.09 543V526.08H1198.62L1208.82 539.688V526.08H1210.65V543H1209.16L1198.94 529.344V543H1197.09ZM1219.01 543V527.784H1212.86V526.08H1227.14V527.784H1221V543H1219.01Z" fill="black"/>
<path d="M1362.94 502V486.784H1356.8V485.08H1371.08V486.784H1364.94V502H1362.94ZM1375.36 502.216C1372.56 502.216 1371.16 500.672 1371.16 497.584V490.336H1373.1V497.56C1373.1 498.6 1373.31 499.368 1373.73 499.864C1374.16 500.36 1374.83 500.608 1375.74 500.608C1376.73 500.608 1377.54 500.28 1378.17 499.624C1378.79 498.952 1379.1 498.064 1379.1 496.96V490.336H1381.05V502H1379.15V500.032C1378.78 500.736 1378.26 501.28 1377.59 501.664C1376.93 502.032 1376.19 502.216 1375.36 502.216ZM1384.68 502V490.336H1386.58V492.424C1387.2 491.016 1388.48 490.24 1390.42 490.096L1391.12 490.024L1391.26 491.704L1390.04 491.848C1388.93 491.944 1388.09 492.296 1387.52 492.904C1386.94 493.496 1386.65 494.312 1386.65 495.352V502H1384.68ZM1393.33 502V490.336H1395.23V492.304C1395.58 491.6 1396.07 491.064 1396.69 490.696C1397.32 490.312 1398.04 490.12 1398.88 490.12C1400.7 490.12 1401.87 490.912 1402.38 492.496C1402.73 491.76 1403.25 491.184 1403.94 490.768C1404.63 490.336 1405.42 490.12 1406.32 490.12C1408.91 490.12 1410.2 491.656 1410.2 494.728V502H1408.26V494.824C1408.26 493.752 1408.07 492.968 1407.68 492.472C1407.32 491.96 1406.7 491.704 1405.84 491.704C1404.89 491.704 1404.14 492.04 1403.58 492.712C1403.02 493.384 1402.74 494.28 1402.74 495.4V502H1400.8V494.824C1400.8 493.752 1400.6 492.968 1400.22 492.472C1399.85 491.96 1399.24 491.704 1398.37 491.704C1397.41 491.704 1396.65 492.04 1396.09 492.712C1395.55 493.384 1395.28 494.28 1395.28 495.4V502H1393.33ZM1417.51 502.216C1416.71 502.216 1415.99 502.064 1415.35 501.76C1414.73 501.44 1414.23 501.008 1413.86 500.464C1413.5 499.92 1413.31 499.312 1413.31 498.64C1413.31 497.792 1413.53 497.12 1413.96 496.624C1414.41 496.128 1415.14 495.776 1416.14 495.568C1417.17 495.344 1418.56 495.232 1420.32 495.232H1421.09V494.488C1421.09 493.496 1420.88 492.784 1420.46 492.352C1420.06 491.904 1419.42 491.68 1418.52 491.68C1417.82 491.68 1417.14 491.784 1416.48 491.992C1415.82 492.184 1415.15 492.504 1414.46 492.952L1413.79 491.536C1414.4 491.104 1415.14 490.76 1416 490.504C1416.88 490.248 1417.72 490.12 1418.52 490.12C1420.02 490.12 1421.14 490.488 1421.86 491.224C1422.59 491.96 1422.96 493.104 1422.96 494.656V502H1421.14V499.984C1420.83 500.672 1420.36 501.216 1419.72 501.616C1419.1 502.016 1418.36 502.216 1417.51 502.216ZM1417.82 500.752C1418.78 500.752 1419.57 500.424 1420.18 499.768C1420.78 499.096 1421.09 498.248 1421.09 497.224V496.504H1420.34C1419.05 496.504 1418.02 496.568 1417.27 496.696C1416.54 496.808 1416.02 497.016 1415.71 497.32C1415.42 497.608 1415.28 498.008 1415.28 498.52C1415.28 499.176 1415.5 499.712 1415.95 500.128C1416.42 500.544 1417.04 500.752 1417.82 500.752ZM1430.5 502.216C1429.59 502.216 1428.73 502.088 1427.91 501.832C1427.09 501.576 1426.42 501.216 1425.89 500.752L1426.52 499.384C1427.09 499.848 1427.73 500.192 1428.41 500.416C1429.12 500.624 1429.83 500.728 1430.55 500.728C1431.46 500.728 1432.15 500.56 1432.61 500.224C1433.08 499.888 1433.31 499.432 1433.31 498.856C1433.31 498.408 1433.16 498.056 1432.85 497.8C1432.55 497.528 1432.07 497.32 1431.41 497.176L1429.23 496.696C1427.25 496.264 1426.25 495.24 1426.25 493.624C1426.25 492.568 1426.67 491.72 1427.5 491.08C1428.35 490.44 1429.45 490.12 1430.81 490.12C1431.61 490.12 1432.37 490.248 1433.09 490.504C1433.83 490.744 1434.44 491.104 1434.92 491.584L1434.27 492.952C1433.81 492.52 1433.26 492.192 1432.64 491.968C1432.03 491.728 1431.42 491.608 1430.81 491.608C1429.92 491.608 1429.24 491.784 1428.77 492.136C1428.31 492.488 1428.08 492.952 1428.08 493.528C1428.08 494.424 1428.67 495 1429.85 495.256L1432.04 495.712C1433.06 495.936 1433.84 496.296 1434.37 496.792C1434.89 497.272 1435.16 497.928 1435.16 498.76C1435.16 499.832 1434.73 500.68 1433.89 501.304C1433.04 501.912 1431.91 502.216 1430.5 502.216Z" fill="black"/>
</svg>
