<svg width="1482" height="542" viewBox="0 0 1482 542" fill="none" xmlns="http://www.w3.org/2000/svg">
<line x1="176.5" y1="61" x2="176.5" y2="470" stroke="black" style="mix-blend-mode:darken"/>
<line x1="173.999" y1="470.498" x2="1335" y2="470.498" stroke="black" style="mix-blend-mode:darken"/>
<line x1="154" y1="389.5" x2="198" y2="389.5" stroke="black"/>
<line x1="154" y1="265.5" x2="198" y2="265.5" stroke="black"/>
<line x1="154" y1="141.5" x2="198" y2="141.5" stroke="black"/>
<path d="M156.505 479.216C154.569 479.216 153.097 478.472 152.089 476.984C151.081 475.496 150.577 473.344 150.577 470.528C150.577 467.696 151.081 465.544 152.089 464.072C153.097 462.6 154.569 461.864 156.505 461.864C158.457 461.864 159.929 462.6 160.921 464.072C161.929 465.528 162.433 467.672 162.433 470.504C162.433 473.336 161.921 475.496 160.897 476.984C159.889 478.472 158.425 479.216 156.505 479.216ZM156.505 477.512C157.849 477.512 158.841 476.944 159.481 475.808C160.137 474.672 160.465 472.904 160.465 470.504C160.465 468.104 160.145 466.352 159.505 465.248C158.865 464.128 157.865 463.568 156.505 463.568C155.161 463.568 154.161 464.128 153.505 465.248C152.865 466.368 152.545 468.12 152.545 470.504C152.545 472.904 152.865 474.672 153.505 475.808C154.161 476.944 155.161 477.512 156.505 477.512Z" fill="black"/>
<path d="M107.355 398V396.32H111.219V383.456L108.171 385.376L107.331 383.912L111.771 381.08H113.187V396.32H116.811V398H107.355ZM120.282 398V395.552H122.73V398H120.282ZM131.43 398.216C129.494 398.216 128.022 397.472 127.014 395.984C126.006 394.496 125.502 392.344 125.502 389.528C125.502 386.696 126.006 384.544 127.014 383.072C128.022 381.6 129.494 380.864 131.43 380.864C133.382 380.864 134.854 381.6 135.846 383.072C136.854 384.528 137.358 386.672 137.358 389.504C137.358 392.336 136.846 394.496 135.822 395.984C134.814 397.472 133.35 398.216 131.43 398.216ZM131.43 396.512C132.774 396.512 133.766 395.944 134.406 394.808C135.062 393.672 135.39 391.904 135.39 389.504C135.39 387.104 135.07 385.352 134.43 384.248C133.79 383.128 132.79 382.568 131.43 382.568C130.086 382.568 129.086 383.128 128.43 384.248C127.79 385.368 127.47 387.12 127.47 389.504C127.47 391.904 127.79 393.672 128.43 394.808C129.086 395.944 130.086 396.512 131.43 396.512Z" fill="black"/>
<path d="M106.539 274V272.512L112.323 266.272C113.139 265.376 113.723 264.56 114.075 263.824C114.443 263.088 114.627 262.336 114.627 261.568C114.627 259.6 113.483 258.616 111.195 258.616C109.483 258.616 107.971 259.256 106.659 260.536L105.915 259C106.539 258.36 107.331 257.848 108.291 257.464C109.267 257.064 110.291 256.864 111.363 256.864C113.059 256.864 114.355 257.264 115.251 258.064C116.163 258.848 116.619 259.968 116.619 261.424C116.619 262.432 116.371 263.424 115.875 264.4C115.379 265.36 114.619 266.384 113.595 267.472L109.059 272.32H117.315V274H106.539ZM120.282 274V271.552H122.73V274H120.282ZM131.43 274.216C129.494 274.216 128.022 273.472 127.014 271.984C126.006 270.496 125.502 268.344 125.502 265.528C125.502 262.696 126.006 260.544 127.014 259.072C128.022 257.6 129.494 256.864 131.43 256.864C133.382 256.864 134.854 257.6 135.846 259.072C136.854 260.528 137.358 262.672 137.358 265.504C137.358 268.336 136.846 270.496 135.822 271.984C134.814 273.472 133.35 274.216 131.43 274.216ZM131.43 272.512C132.774 272.512 133.766 271.944 134.406 270.808C135.062 269.672 135.39 267.904 135.39 265.504C135.39 263.104 135.07 261.352 134.43 260.248C133.79 259.128 132.79 258.568 131.43 258.568C130.086 258.568 129.086 259.128 128.43 260.248C127.79 261.368 127.47 263.12 127.47 265.504C127.47 267.904 127.79 269.672 128.43 270.808C129.086 271.944 130.086 272.512 131.43 272.512Z" fill="black"/>
<path d="M111.387 150.216C110.267 150.216 109.203 150.048 108.195 149.712C107.187 149.36 106.339 148.856 105.651 148.2L106.371 146.64C107.155 147.28 107.947 147.744 108.747 148.032C109.547 148.32 110.411 148.464 111.339 148.464C112.555 148.464 113.483 148.2 114.123 147.672C114.779 147.128 115.107 146.336 115.107 145.296C115.107 144.304 114.779 143.552 114.123 143.04C113.467 142.528 112.515 142.272 111.267 142.272H108.771V140.568H111.099C112.187 140.568 113.043 140.288 113.667 139.728C114.307 139.152 114.627 138.368 114.627 137.376C114.627 136.496 114.331 135.816 113.739 135.336C113.163 134.856 112.339 134.616 111.267 134.616C109.507 134.616 107.971 135.256 106.659 136.536L105.939 135C106.563 134.328 107.355 133.808 108.315 133.44C109.291 133.056 110.315 132.864 111.387 132.864C113.019 132.864 114.291 133.248 115.203 134.016C116.131 134.784 116.595 135.848 116.595 137.208C116.595 138.152 116.355 138.984 115.875 139.704C115.395 140.408 114.731 140.92 113.883 141.24C114.891 141.512 115.675 142.016 116.235 142.752C116.795 143.472 117.075 144.368 117.075 145.44C117.075 146.896 116.563 148.056 115.539 148.92C114.531 149.784 113.147 150.216 111.387 150.216ZM120.282 150V147.552H122.73V150H120.282ZM131.43 150.216C129.494 150.216 128.022 149.472 127.014 147.984C126.006 146.496 125.502 144.344 125.502 141.528C125.502 138.696 126.006 136.544 127.014 135.072C128.022 133.6 129.494 132.864 131.43 132.864C133.382 132.864 134.854 133.6 135.846 135.072C136.854 136.528 137.358 138.672 137.358 141.504C137.358 144.336 136.846 146.496 135.822 147.984C134.814 149.472 133.35 150.216 131.43 150.216ZM131.43 148.512C132.774 148.512 133.766 147.944 134.406 146.808C135.062 145.672 135.39 143.904 135.39 141.504C135.39 139.104 135.07 137.352 134.43 136.248C133.79 135.128 132.79 134.568 131.43 134.568C130.086 134.568 129.086 135.128 128.43 136.248C127.79 137.368 127.47 139.12 127.47 141.504C127.47 143.904 127.79 145.672 128.43 146.808C129.086 147.944 130.086 148.512 131.43 148.512Z" fill="black"/>
<g clip-path="url(#clip0)">
<path d="M314.592 519V502.08H316.56V517.272H325.176V519H314.592ZM327.623 519V502.08H334.319C336.143 502.08 337.535 502.52 338.495 503.4C339.471 504.28 339.959 505.536 339.959 507.168C339.959 508.784 339.471 510.04 338.495 510.936C337.535 511.816 336.143 512.256 334.319 512.256H329.591V519H327.623ZM329.591 510.6H334.079C336.703 510.6 338.015 509.456 338.015 507.168C338.015 504.864 336.703 503.712 334.079 503.712H329.591V510.6ZM339.468 519L346.932 502.08H348.612L356.076 519H354.036L352.164 514.68H343.356L341.508 519H339.468ZM347.748 504.384L344.076 513.024H351.468L347.796 504.384H347.748Z" fill="black"/>
<path d="M422.529 519V502.08H424.497V517.272H433.113V519H422.529ZM435.561 519V502.08H442.257C444.081 502.08 445.473 502.504 446.433 503.352C447.409 504.2 447.897 505.408 447.897 506.976C447.897 508.224 447.553 509.248 446.865 510.048C446.193 510.848 445.233 511.368 443.985 511.608C444.721 511.864 445.353 512.488 445.881 513.48L448.857 519H446.697L443.769 513.576C443.401 512.904 442.977 512.448 442.497 512.208C442.017 511.968 441.385 511.848 440.601 511.848H437.529V519H435.561ZM437.529 510.288H441.969C444.625 510.288 445.953 509.184 445.953 506.976C445.953 504.8 444.625 503.712 441.969 503.712H437.529V510.288ZM458.818 519.216C457.154 519.216 455.73 518.864 454.546 518.16C453.362 517.456 452.45 516.456 451.81 515.16C451.186 513.864 450.874 512.32 450.874 510.528C450.874 508.752 451.186 507.216 451.81 505.92C452.45 504.624 453.362 503.624 454.546 502.92C455.73 502.216 457.154 501.864 458.818 501.864C459.986 501.864 461.058 502.048 462.034 502.416C463.026 502.784 463.866 503.32 464.554 504.024L463.786 505.632C463.05 504.944 462.282 504.448 461.482 504.144C460.698 503.824 459.826 503.664 458.866 503.664C456.962 503.664 455.506 504.264 454.498 505.464C453.49 506.664 452.986 508.352 452.986 510.528C452.986 512.72 453.49 514.416 454.498 515.616C455.506 516.816 456.962 517.416 458.866 517.416C459.826 517.416 460.698 517.264 461.482 516.96C462.282 516.64 463.05 516.136 463.786 515.448L464.554 517.056C463.866 517.744 463.026 518.28 462.034 518.664C461.058 519.032 459.986 519.216 458.818 519.216Z" fill="black"/>
<path d="M522.373 519V502.08H524.341V517.272H532.957V519H522.373ZM533.304 519L540.768 502.08H542.448L549.912 519H547.872L546 514.68H537.192L535.344 519H533.304ZM541.584 504.384L537.912 513.024H545.304L541.632 504.384H541.584ZM555.668 519L549.74 502.08H551.804L556.58 516.12L561.476 502.08H563.06L567.908 516.24L572.78 502.08H574.748L568.82 519H567.068L562.244 505.08L557.372 519H555.668ZM577.522 519V502.08H579.49V519H577.522ZM583.662 519V502.08H585.63V519H583.662Z" fill="black"/>
<path d="M654.967 519V502.08H656.935V517.272H665.551V519H654.967ZM668.046 519V502.08H669.702L676.206 514.296L682.662 502.08H684.318V519H682.494V505.776L676.854 516.384H675.558L669.846 505.8V519H668.046ZM688.577 519V502.08H690.233L696.737 514.296L703.193 502.08H704.849V519H703.025V505.776L697.385 516.384H696.089L690.377 505.8V519H688.577ZM716.381 519.216C714.717 519.216 713.293 518.864 712.109 518.16C710.925 517.456 710.013 516.456 709.373 515.16C708.749 513.864 708.437 512.32 708.437 510.528C708.437 508.752 708.749 507.216 709.373 505.92C710.013 504.624 710.925 503.624 712.109 502.92C713.293 502.216 714.717 501.864 716.381 501.864C717.549 501.864 718.621 502.048 719.597 502.416C720.589 502.784 721.429 503.32 722.117 504.024L721.349 505.632C720.613 504.944 719.845 504.448 719.045 504.144C718.261 503.824 717.389 503.664 716.429 503.664C714.525 503.664 713.069 504.264 712.061 505.464C711.053 506.664 710.549 508.352 710.549 510.528C710.549 512.72 711.053 514.416 712.061 515.616C713.069 516.816 714.525 517.416 716.429 517.416C717.389 517.416 718.261 517.264 719.045 516.96C719.845 516.64 720.613 516.136 721.349 515.448L722.117 517.056C721.429 517.744 720.589 518.28 719.597 518.664C718.621 519.032 717.549 519.216 716.381 519.216Z" fill="black"/>
<path d="M885.163 519L892.627 502.08H894.307L901.771 519H899.731L897.859 514.68H889.051L887.203 519H885.163ZM893.443 504.384L889.771 513.024H897.163L893.491 504.384H893.443ZM907.527 519L901.599 502.08H903.663L908.439 516.12L913.335 502.08H914.919L919.767 516.24L924.639 502.08H926.607L920.679 519H918.927L914.103 505.08L909.231 519H907.527Z" fill="black"/>
<path d="M1029.83 519V502.08H1040.51V503.736H1031.75V509.592H1040V511.248H1031.75V517.344H1040.51V519H1029.83ZM1049.06 519.216C1047.73 519.216 1046.53 519.048 1045.46 518.712C1044.38 518.36 1043.46 517.856 1042.67 517.2L1043.37 515.616C1044.18 516.24 1045.04 516.704 1045.94 517.008C1046.83 517.312 1047.87 517.464 1049.06 517.464C1050.5 517.464 1051.56 517.2 1052.25 516.672C1052.95 516.128 1053.3 515.416 1053.3 514.536C1053.3 513.832 1053.05 513.272 1052.54 512.856C1052.04 512.44 1051.2 512.112 1050.02 511.872L1047.52 511.368C1046.02 511.048 1044.89 510.528 1044.14 509.808C1043.4 509.072 1043.03 508.096 1043.03 506.88C1043.03 505.872 1043.29 504.992 1043.8 504.24C1044.33 503.488 1045.06 502.904 1045.98 502.488C1046.91 502.072 1047.98 501.864 1049.2 501.864C1050.34 501.864 1051.39 502.048 1052.37 502.416C1053.34 502.768 1054.17 503.28 1054.84 503.952L1054.14 505.488C1053.42 504.832 1052.66 504.36 1051.86 504.072C1051.06 503.768 1050.17 503.616 1049.18 503.616C1047.91 503.616 1046.9 503.912 1046.15 504.504C1045.4 505.08 1045.02 505.848 1045.02 506.808C1045.02 507.576 1045.26 508.184 1045.72 508.632C1046.2 509.08 1046.98 509.408 1048.05 509.616L1050.54 510.144C1052.16 510.48 1053.35 510.992 1054.12 511.68C1054.9 512.352 1055.3 513.272 1055.3 514.44C1055.3 515.384 1055.04 516.216 1054.53 516.936C1054.03 517.656 1053.31 518.216 1052.37 518.616C1051.44 519.016 1050.34 519.216 1049.06 519.216Z" fill="black"/>
<path d="M773.948 519L781.412 502.08H783.092L790.556 519H788.516L786.644 514.68H777.836L775.988 519H773.948ZM782.228 504.384L778.556 513.024H785.948L782.276 504.384H782.228ZM793.113 519V502.08H794.769L801.273 514.296L807.729 502.08H809.385V519H807.561V505.776L801.921 516.384H800.625L794.913 505.8V519H793.113Z" fill="black"/>
<path d="M1140.06 519V502.08H1150.52V503.736H1142.03V509.64H1150.04V511.296H1142.03V519H1140.06ZM1153.21 519V502.08H1155.18V519H1153.21ZM1164.82 519.216C1163.49 519.216 1162.29 519.048 1161.22 518.712C1160.15 518.36 1159.22 517.856 1158.44 517.2L1159.13 515.616C1159.95 516.24 1160.81 516.704 1161.7 517.008C1162.6 517.312 1163.64 517.464 1164.82 517.464C1166.26 517.464 1167.33 517.2 1168.01 516.672C1168.72 516.128 1169.07 515.416 1169.07 514.536C1169.07 513.832 1168.81 513.272 1168.3 512.856C1167.81 512.44 1166.97 512.112 1165.78 511.872L1163.29 511.368C1161.78 511.048 1160.65 510.528 1159.9 509.808C1159.17 509.072 1158.8 508.096 1158.8 506.88C1158.8 505.872 1159.05 504.992 1159.57 504.24C1160.09 503.488 1160.82 502.904 1161.75 502.488C1162.68 502.072 1163.75 501.864 1164.97 501.864C1166.1 501.864 1167.16 502.048 1168.13 502.416C1169.11 502.768 1169.93 503.28 1170.61 503.952L1169.91 505.488C1169.19 504.832 1168.43 504.36 1167.63 504.072C1166.83 503.768 1165.93 503.616 1164.94 503.616C1163.68 503.616 1162.67 503.912 1161.92 504.504C1161.17 505.08 1160.79 505.848 1160.79 506.808C1160.79 507.576 1161.02 508.184 1161.49 508.632C1161.97 509.08 1162.74 509.408 1163.81 509.616L1166.31 510.144C1167.93 510.48 1169.12 510.992 1169.89 511.68C1170.67 512.352 1171.06 513.272 1171.06 514.44C1171.06 515.384 1170.81 516.216 1170.29 516.936C1169.8 517.656 1169.08 518.216 1168.13 518.616C1167.21 519.016 1166.1 519.216 1164.82 519.216Z" fill="black"/>
<path d="M1260.87 523.824L1258.86 520.584C1258.31 519.672 1257.42 519.216 1256.19 519.216C1254.62 519.216 1253.26 518.864 1252.09 518.16C1250.94 517.44 1250.04 516.432 1249.4 515.136C1248.78 513.84 1248.46 512.304 1248.46 510.528C1248.46 508.752 1248.78 507.216 1249.4 505.92C1250.02 504.624 1250.91 503.624 1252.06 502.92C1253.23 502.216 1254.61 501.864 1256.19 501.864C1257.79 501.864 1259.17 502.216 1260.32 502.92C1261.49 503.624 1262.38 504.624 1263.01 505.92C1263.65 507.2 1263.97 508.728 1263.97 510.504C1263.97 512.568 1263.54 514.312 1262.7 515.736C1261.85 517.144 1260.67 518.136 1259.17 518.712C1259.81 518.92 1260.39 519.472 1260.92 520.368L1262.53 522.96L1260.87 523.824ZM1256.19 517.464C1258 517.464 1259.4 516.856 1260.39 515.64C1261.38 514.424 1261.88 512.72 1261.88 510.528C1261.88 508.336 1261.38 506.64 1260.39 505.44C1259.4 504.224 1258 503.616 1256.19 503.616C1254.42 503.616 1253.03 504.224 1252.04 505.44C1251.05 506.64 1250.55 508.336 1250.55 510.528C1250.55 512.704 1251.05 514.408 1252.04 515.64C1253.03 516.856 1254.42 517.464 1256.19 517.464ZM1274.16 519.216C1271.93 519.216 1270.25 518.632 1269.09 517.464C1267.94 516.28 1267.37 514.56 1267.37 512.304V502.08H1269.33V512.208C1269.33 515.712 1270.94 517.464 1274.16 517.464C1277.34 517.464 1278.93 515.712 1278.93 512.208V502.08H1280.9V512.304C1280.9 514.56 1280.33 516.28 1279.17 517.464C1278.04 518.632 1276.37 519.216 1274.16 519.216ZM1284.95 519V502.08H1286.92V519H1284.95Z" fill="black"/>
</g>
<rect x="299" y="241" width="61" height="229" fill="#97B2C9"/>
<rect x="409" y="241" width="61" height="229" fill="#7E9AB0"/>
<rect x="520" y="241" width="61" height="229" fill="#5C758A"/>
<rect x="656" y="241" width="61" height="229" fill="#3E5262"/>
<rect x="766" y="241" width="61" height="229" fill="#1E2831"/>
<rect x="877" y="241" width="61" height="229" fill="#002E53"/>
<rect x="1013" y="241" width="61" height="229" fill="#024F8E"/>
<rect x="1123" y="241" width="61" height="229" fill="#0066B8"/>
<rect x="1234" y="241" width="61" height="229" fill="#0282EA"/>
<path d="M42.2822 41.824L40.2662 38.584C39.7222 37.672 38.8342 37.216 37.6022 37.216C36.0342 37.216 34.6662 36.864 33.4982 36.16C32.3462 35.44 31.4502 34.432 30.8102 33.136C30.1862 31.84 29.8742 30.304 29.8742 28.528C29.8742 26.752 30.1862 25.216 30.8102 23.92C31.4342 22.624 32.3222 21.624 33.4742 20.92C34.6422 20.216 36.0182 19.864 37.6022 19.864C39.2022 19.864 40.5782 20.216 41.7302 20.92C42.8982 21.624 43.7942 22.624 44.4182 23.92C45.0582 25.2 45.3782 26.728 45.3782 28.504C45.3782 30.568 44.9542 32.312 44.1062 33.736C43.2582 35.144 42.0822 36.136 40.5782 36.712C41.2182 36.92 41.8022 37.472 42.3302 38.368L43.9382 40.96L42.2822 41.824ZM37.6022 35.464C39.4102 35.464 40.8102 34.856 41.8022 33.64C42.7942 32.424 43.2902 30.72 43.2902 28.528C43.2902 26.336 42.7942 24.64 41.8022 23.44C40.8102 22.224 39.4102 21.616 37.6022 21.616C35.8262 21.616 34.4422 22.224 33.4502 23.44C32.4582 24.64 31.9622 26.336 31.9622 28.528C31.9622 30.704 32.4582 32.408 33.4502 33.64C34.4422 34.856 35.8262 35.464 37.6022 35.464ZM52.7606 37.216C49.9606 37.216 48.5606 35.672 48.5606 32.584V25.336H50.5046V32.56C50.5046 33.6 50.7126 34.368 51.1286 34.864C51.5606 35.36 52.2326 35.608 53.1446 35.608C54.1366 35.608 54.9446 35.28 55.5686 34.624C56.1926 33.952 56.5046 33.064 56.5046 31.96V25.336H58.4486V37H56.5526V35.032C56.1846 35.736 55.6646 36.28 54.9926 36.664C54.3366 37.032 53.5926 37.216 52.7606 37.216ZM65.7577 37.216C64.9577 37.216 64.2377 37.064 63.5977 36.76C62.9737 36.44 62.4777 36.008 62.1097 35.464C61.7417 34.92 61.5577 34.312 61.5577 33.64C61.5577 32.792 61.7737 32.12 62.2057 31.624C62.6537 31.128 63.3817 30.776 64.3897 30.568C65.4137 30.344 66.8057 30.232 68.5657 30.232H69.3337V29.488C69.3337 28.496 69.1257 27.784 68.7097 27.352C68.3097 26.904 67.6617 26.68 66.7657 26.68C66.0617 26.68 65.3817 26.784 64.7257 26.992C64.0697 27.184 63.3977 27.504 62.7097 27.952L62.0377 26.536C62.6457 26.104 63.3817 25.76 64.2457 25.504C65.1257 25.248 65.9657 25.12 66.7657 25.12C68.2697 25.12 69.3817 25.488 70.1017 26.224C70.8377 26.96 71.2057 28.104 71.2057 29.656V37H69.3817V34.984C69.0777 35.672 68.6057 36.216 67.9657 36.616C67.3417 37.016 66.6057 37.216 65.7577 37.216ZM66.0697 35.752C67.0297 35.752 67.8137 35.424 68.4217 34.768C69.0297 34.096 69.3337 33.248 69.3337 32.224V31.504H68.5897C67.2937 31.504 66.2697 31.568 65.5177 31.696C64.7817 31.808 64.2617 32.016 63.9577 32.32C63.6697 32.608 63.5257 33.008 63.5257 33.52C63.5257 34.176 63.7497 34.712 64.1977 35.128C64.6617 35.544 65.2857 35.752 66.0697 35.752ZM74.8123 37V25.336H76.7083V27.328C77.0923 26.592 77.6363 26.04 78.3403 25.672C79.0443 25.304 79.8363 25.12 80.7163 25.12C83.4843 25.12 84.8683 26.656 84.8683 29.728V37H82.9243V29.848C82.9243 28.76 82.7083 27.968 82.2763 27.472C81.8603 26.96 81.1883 26.704 80.2603 26.704C79.1883 26.704 78.3323 27.04 77.6923 27.712C77.0683 28.368 76.7563 29.248 76.7563 30.352V37H74.8123ZM93.1329 37.216C91.7569 37.216 90.7249 36.856 90.0369 36.136C89.3489 35.4 89.0049 34.344 89.0049 32.968V26.848H86.7249V25.336H89.0049V21.76H90.9489V25.336H94.6449V26.848H90.9489V32.776C90.9489 33.688 91.1409 34.384 91.5249 34.864C91.9089 35.328 92.5329 35.56 93.3969 35.56C93.6529 35.56 93.9089 35.528 94.1649 35.464C94.4209 35.4 94.6529 35.336 94.8609 35.272L95.1969 36.76C94.9889 36.872 94.6849 36.976 94.2849 37.072C93.8849 37.168 93.5009 37.216 93.1329 37.216ZM96.6035 22.432V20.248H99.0035V22.432H96.6035ZM96.8435 37V25.336H98.7875V37H96.8435ZM106.862 37.216C105.822 37.216 104.91 36.968 104.126 36.472C103.358 35.976 102.758 35.28 102.326 34.384C101.91 33.472 101.702 32.4 101.702 31.168C101.702 29.92 101.91 28.848 102.326 27.952C102.758 27.04 103.358 26.344 104.126 25.864C104.91 25.368 105.822 25.12 106.862 25.12C107.774 25.12 108.574 25.32 109.262 25.72C109.966 26.12 110.486 26.672 110.822 27.376V20.08H112.766V37H110.87V34.864C110.534 35.6 110.014 36.176 109.31 36.592C108.606 37.008 107.79 37.216 106.862 37.216ZM107.27 35.656C108.358 35.656 109.23 35.272 109.886 34.504C110.542 33.72 110.87 32.608 110.87 31.168C110.87 29.712 110.542 28.6 109.886 27.832C109.23 27.064 108.358 26.68 107.27 26.68C106.166 26.68 105.286 27.064 104.63 27.832C103.99 28.6 103.67 29.712 103.67 31.168C103.67 32.608 103.99 33.72 104.63 34.504C105.286 35.272 106.166 35.656 107.27 35.656ZM120.086 37.216C119.286 37.216 118.566 37.064 117.926 36.76C117.302 36.44 116.806 36.008 116.438 35.464C116.07 34.92 115.886 34.312 115.886 33.64C115.886 32.792 116.102 32.12 116.534 31.624C116.982 31.128 117.71 30.776 118.718 30.568C119.742 30.344 121.134 30.232 122.894 30.232H123.662V29.488C123.662 28.496 123.454 27.784 123.038 27.352C122.638 26.904 121.99 26.68 121.094 26.68C120.39 26.68 119.71 26.784 119.054 26.992C118.398 27.184 117.726 27.504 117.038 27.952L116.366 26.536C116.974 26.104 117.71 25.76 118.574 25.504C119.454 25.248 120.294 25.12 121.094 25.12C122.598 25.12 123.71 25.488 124.43 26.224C125.166 26.96 125.534 28.104 125.534 29.656V37H123.71V34.984C123.406 35.672 122.934 36.216 122.294 36.616C121.67 37.016 120.934 37.216 120.086 37.216ZM120.398 35.752C121.358 35.752 122.142 35.424 122.75 34.768C123.358 34.096 123.662 33.248 123.662 32.224V31.504H122.918C121.622 31.504 120.598 31.568 119.846 31.696C119.11 31.808 118.59 32.016 118.286 32.32C117.998 32.608 117.854 33.008 117.854 33.52C117.854 34.176 118.078 34.712 118.526 35.128C118.99 35.544 119.614 35.752 120.398 35.752ZM133.58 37.216C132.54 37.216 131.628 36.968 130.844 36.472C130.076 35.976 129.476 35.28 129.044 34.384C128.628 33.472 128.42 32.4 128.42 31.168C128.42 29.92 128.628 28.848 129.044 27.952C129.476 27.04 130.076 26.344 130.844 25.864C131.628 25.368 132.54 25.12 133.58 25.12C134.492 25.12 135.292 25.32 135.98 25.72C136.684 26.12 137.204 26.672 137.54 27.376V20.08H139.484V37H137.588V34.864C137.252 35.6 136.732 36.176 136.028 36.592C135.324 37.008 134.508 37.216 133.58 37.216ZM133.988 35.656C135.076 35.656 135.948 35.272 136.604 34.504C137.26 33.72 137.588 32.608 137.588 31.168C137.588 29.712 137.26 28.6 136.604 27.832C135.948 27.064 135.076 26.68 133.988 26.68C132.884 26.68 132.004 27.064 131.348 27.832C130.708 28.6 130.388 29.712 130.388 31.168C130.388 32.608 130.708 33.72 131.348 34.504C132.004 35.272 132.884 35.656 133.988 35.656ZM148.389 37.216C146.549 37.216 145.093 36.68 144.021 35.608C142.949 34.52 142.413 33.048 142.413 31.192C142.413 29.992 142.653 28.936 143.133 28.024C143.613 27.096 144.269 26.384 145.101 25.888C145.949 25.376 146.925 25.12 148.029 25.12C149.613 25.12 150.853 25.632 151.749 26.656C152.645 27.664 153.093 29.056 153.093 30.832V31.576H144.309C144.373 32.904 144.757 33.92 145.461 34.624C146.165 35.312 147.141 35.656 148.389 35.656C149.093 35.656 149.765 35.552 150.405 35.344C151.045 35.12 151.653 34.76 152.229 34.264L152.901 35.632C152.373 36.128 151.701 36.52 150.885 36.808C150.069 37.08 149.237 37.216 148.389 37.216ZM148.077 26.56C146.973 26.56 146.101 26.904 145.461 27.592C144.821 28.28 144.445 29.184 144.333 30.304H151.413C151.365 29.12 151.053 28.2 150.477 27.544C149.917 26.888 149.117 26.56 148.077 26.56ZM166.51 37.216C165.47 37.216 164.558 36.968 163.774 36.472C163.006 35.976 162.406 35.28 161.974 34.384C161.558 33.472 161.35 32.4 161.35 31.168C161.35 29.92 161.558 28.848 161.974 27.952C162.406 27.04 163.006 26.344 163.774 25.864C164.558 25.368 165.47 25.12 166.51 25.12C167.422 25.12 168.222 25.32 168.91 25.72C169.614 26.12 170.134 26.672 170.47 27.376V20.08H172.414V37H170.518V34.864C170.182 35.6 169.662 36.176 168.958 36.592C168.254 37.008 167.438 37.216 166.51 37.216ZM166.918 35.656C168.006 35.656 168.878 35.272 169.534 34.504C170.19 33.72 170.518 32.608 170.518 31.168C170.518 29.712 170.19 28.6 169.534 27.832C168.878 27.064 168.006 26.68 166.918 26.68C165.814 26.68 164.934 27.064 164.278 27.832C163.638 28.6 163.318 29.712 163.318 31.168C163.318 32.608 163.638 33.72 164.278 34.504C164.934 35.272 165.814 35.656 166.918 35.656ZM181.318 37.216C179.478 37.216 178.022 36.68 176.95 35.608C175.878 34.52 175.342 33.048 175.342 31.192C175.342 29.992 175.582 28.936 176.062 28.024C176.542 27.096 177.198 26.384 178.03 25.888C178.878 25.376 179.854 25.12 180.958 25.12C182.542 25.12 183.782 25.632 184.678 26.656C185.574 27.664 186.022 29.056 186.022 30.832V31.576H177.238C177.302 32.904 177.686 33.92 178.39 34.624C179.094 35.312 180.07 35.656 181.318 35.656C182.022 35.656 182.694 35.552 183.334 35.344C183.974 35.12 184.582 34.76 185.158 34.264L185.83 35.632C185.302 36.128 184.63 36.52 183.814 36.808C182.998 37.08 182.166 37.216 181.318 37.216ZM181.006 26.56C179.902 26.56 179.03 26.904 178.39 27.592C177.75 28.28 177.374 29.184 177.262 30.304H184.342C184.294 29.12 183.982 28.2 183.406 27.544C182.846 26.888 182.046 26.56 181.006 26.56ZM195.048 37V25.336H196.944V27.304C197.296 26.6 197.784 26.064 198.408 25.696C199.032 25.312 199.76 25.12 200.592 25.12C202.416 25.12 203.584 25.912 204.096 27.496C204.448 26.76 204.968 26.184 205.656 25.768C206.344 25.336 207.136 25.12 208.032 25.12C210.624 25.12 211.92 26.656 211.92 29.728V37H209.976V29.824C209.976 28.752 209.784 27.968 209.4 27.472C209.032 26.96 208.416 26.704 207.552 26.704C206.608 26.704 205.856 27.04 205.296 27.712C204.736 28.384 204.456 29.28 204.456 30.4V37H202.512V29.824C202.512 28.752 202.32 27.968 201.936 27.472C201.568 26.96 200.952 26.704 200.088 26.704C199.128 26.704 198.368 27.04 197.808 27.712C197.264 28.384 196.992 29.28 196.992 30.4V37H195.048ZM220.81 37.216C218.97 37.216 217.514 36.68 216.442 35.608C215.37 34.52 214.834 33.048 214.834 31.192C214.834 29.992 215.074 28.936 215.554 28.024C216.034 27.096 216.69 26.384 217.522 25.888C218.37 25.376 219.346 25.12 220.45 25.12C222.034 25.12 223.274 25.632 224.17 26.656C225.066 27.664 225.514 29.056 225.514 30.832V31.576H216.73C216.794 32.904 217.178 33.92 217.882 34.624C218.586 35.312 219.562 35.656 220.81 35.656C221.514 35.656 222.186 35.552 222.826 35.344C223.466 35.12 224.074 34.76 224.65 34.264L225.322 35.632C224.794 36.128 224.122 36.52 223.306 36.808C222.49 37.08 221.658 37.216 220.81 37.216ZM220.498 26.56C219.394 26.56 218.522 26.904 217.882 27.592C217.242 28.28 216.866 29.184 216.754 30.304H223.834C223.786 29.12 223.474 28.2 222.898 27.544C222.338 26.888 221.538 26.56 220.498 26.56ZM219.754 23.776L222.226 18.928H224.314L221.146 23.776H219.754ZM232.768 37.216C231.728 37.216 230.816 36.968 230.032 36.472C229.264 35.976 228.664 35.28 228.232 34.384C227.816 33.472 227.608 32.4 227.608 31.168C227.608 29.92 227.816 28.848 228.232 27.952C228.664 27.04 229.264 26.344 230.032 25.864C230.816 25.368 231.728 25.12 232.768 25.12C233.68 25.12 234.48 25.32 235.168 25.72C235.872 26.12 236.392 26.672 236.728 27.376V20.08H238.672V37H236.776V34.864C236.44 35.6 235.92 36.176 235.216 36.592C234.512 37.008 233.696 37.216 232.768 37.216ZM233.176 35.656C234.264 35.656 235.136 35.272 235.792 34.504C236.448 33.72 236.776 32.608 236.776 31.168C236.776 29.712 236.448 28.6 235.792 27.832C235.136 27.064 234.264 26.68 233.176 26.68C232.072 26.68 231.192 27.064 230.536 27.832C229.896 28.6 229.576 29.712 229.576 31.168C229.576 32.608 229.896 33.72 230.536 34.504C231.192 35.272 232.072 35.656 233.176 35.656ZM242.08 22.432V20.248H244.48V22.432H242.08ZM242.32 37V25.336H244.264V37H242.32ZM251.57 37.216C250.77 37.216 250.05 37.064 249.41 36.76C248.786 36.44 248.29 36.008 247.922 35.464C247.554 34.92 247.37 34.312 247.37 33.64C247.37 32.792 247.586 32.12 248.018 31.624C248.466 31.128 249.194 30.776 250.202 30.568C251.226 30.344 252.618 30.232 254.378 30.232H255.146V29.488C255.146 28.496 254.938 27.784 254.522 27.352C254.122 26.904 253.474 26.68 252.578 26.68C251.874 26.68 251.194 26.784 250.538 26.992C249.882 27.184 249.21 27.504 248.522 27.952L247.85 26.536C248.458 26.104 249.194 25.76 250.058 25.504C250.938 25.248 251.778 25.12 252.578 25.12C254.082 25.12 255.194 25.488 255.914 26.224C256.65 26.96 257.018 28.104 257.018 29.656V37H255.194V34.984C254.89 35.672 254.418 36.216 253.778 36.616C253.154 37.016 252.418 37.216 251.57 37.216ZM251.882 35.752C252.842 35.752 253.626 35.424 254.234 34.768C254.842 34.096 255.146 33.248 255.146 32.224V31.504H254.402C253.106 31.504 252.082 31.568 251.33 31.696C250.594 31.808 250.074 32.016 249.77 32.32C249.482 32.608 249.338 33.008 249.338 33.52C249.338 34.176 249.562 34.712 250.01 35.128C250.474 35.544 251.098 35.752 251.882 35.752ZM264.561 37.216C263.649 37.216 262.785 37.088 261.969 36.832C261.153 36.576 260.481 36.216 259.953 35.752L260.577 34.384C261.153 34.848 261.785 35.192 262.473 35.416C263.177 35.624 263.889 35.728 264.609 35.728C265.521 35.728 266.209 35.56 266.673 35.224C267.137 34.888 267.369 34.432 267.369 33.856C267.369 33.408 267.217 33.056 266.913 32.8C266.609 32.528 266.129 32.32 265.473 32.176L263.289 31.696C261.305 31.264 260.313 30.24 260.313 28.624C260.313 27.568 260.729 26.72 261.561 26.08C262.409 25.44 263.513 25.12 264.873 25.12C265.673 25.12 266.433 25.248 267.153 25.504C267.889 25.744 268.497 26.104 268.977 26.584L268.329 27.952C267.865 27.52 267.321 27.192 266.697 26.968C266.089 26.728 265.481 26.608 264.873 26.608C263.977 26.608 263.297 26.784 262.833 27.136C262.369 27.488 262.137 27.952 262.137 28.528C262.137 29.424 262.729 30 263.913 30.256L266.097 30.712C267.121 30.936 267.897 31.296 268.425 31.792C268.953 32.272 269.217 32.928 269.217 33.76C269.217 34.832 268.793 35.68 267.945 36.304C267.097 36.912 265.969 37.216 264.561 37.216ZM278.344 41.32V25.336H280.24V27.424C280.592 26.704 281.112 26.144 281.8 25.744C282.504 25.328 283.32 25.12 284.248 25.12C285.288 25.12 286.192 25.368 286.96 25.864C287.744 26.344 288.344 27.04 288.76 27.952C289.192 28.848 289.408 29.92 289.408 31.168C289.408 32.4 289.192 33.472 288.76 34.384C288.344 35.28 287.744 35.976 286.96 36.472C286.192 36.968 285.288 37.216 284.248 37.216C283.352 37.216 282.552 37.016 281.848 36.616C281.144 36.216 280.624 35.664 280.288 34.96V41.32H278.344ZM283.84 35.656C284.928 35.656 285.8 35.272 286.456 34.504C287.112 33.72 287.44 32.608 287.44 31.168C287.44 29.712 287.112 28.6 286.456 27.832C285.8 27.064 284.928 26.68 283.84 26.68C282.752 26.68 281.88 27.064 281.224 27.832C280.568 28.6 280.24 29.712 280.24 31.168C280.24 32.608 280.568 33.72 281.224 34.504C281.88 35.272 282.752 35.656 283.84 35.656ZM297.592 37.216C295.752 37.216 294.296 36.68 293.224 35.608C292.152 34.52 291.616 33.048 291.616 31.192C291.616 29.992 291.856 28.936 292.336 28.024C292.816 27.096 293.472 26.384 294.304 25.888C295.152 25.376 296.128 25.12 297.232 25.12C298.816 25.12 300.056 25.632 300.952 26.656C301.848 27.664 302.296 29.056 302.296 30.832V31.576H293.512C293.576 32.904 293.96 33.92 294.664 34.624C295.368 35.312 296.344 35.656 297.592 35.656C298.296 35.656 298.968 35.552 299.608 35.344C300.248 35.12 300.856 34.76 301.432 34.264L302.104 35.632C301.576 36.128 300.904 36.52 300.088 36.808C299.272 37.08 298.44 37.216 297.592 37.216ZM297.28 26.56C296.176 26.56 295.304 26.904 294.664 27.592C294.024 28.28 293.648 29.184 293.536 30.304H300.616C300.568 29.12 300.256 28.2 299.68 27.544C299.12 26.888 298.32 26.56 297.28 26.56ZM305.109 37V25.336H307.005V27.424C307.629 26.016 308.909 25.24 310.845 25.096L311.541 25.024L311.685 26.704L310.461 26.848C309.357 26.944 308.517 27.296 307.941 27.904C307.365 28.496 307.077 29.312 307.077 30.352V37H305.109ZM318.01 37.216C316.97 37.216 316.058 36.968 315.274 36.472C314.506 35.976 313.906 35.28 313.474 34.384C313.058 33.472 312.85 32.4 312.85 31.168C312.85 29.92 313.058 28.848 313.474 27.952C313.906 27.04 314.506 26.344 315.274 25.864C316.058 25.368 316.97 25.12 318.01 25.12C318.922 25.12 319.722 25.32 320.41 25.72C321.114 26.12 321.634 26.672 321.97 27.376V20.08H323.914V37H322.018V34.864C321.682 35.6 321.162 36.176 320.458 36.592C319.754 37.008 318.938 37.216 318.01 37.216ZM318.418 35.656C319.506 35.656 320.378 35.272 321.034 34.504C321.69 33.72 322.018 32.608 322.018 31.168C322.018 29.712 321.69 28.6 321.034 27.832C320.378 27.064 319.506 26.68 318.418 26.68C317.314 26.68 316.434 27.064 315.778 27.832C315.138 28.6 314.818 29.712 314.818 31.168C314.818 32.608 315.138 33.72 315.778 34.504C316.434 35.272 317.314 35.656 318.418 35.656ZM327.322 22.432V20.248H329.722V22.432H327.322ZM327.562 37V25.336H329.506V37H327.562ZM337.58 37.216C336.54 37.216 335.628 36.968 334.844 36.472C334.076 35.976 333.476 35.28 333.044 34.384C332.628 33.472 332.42 32.4 332.42 31.168C332.42 29.92 332.628 28.848 333.044 27.952C333.476 27.04 334.076 26.344 334.844 25.864C335.628 25.368 336.54 25.12 337.58 25.12C338.492 25.12 339.292 25.32 339.98 25.72C340.684 26.12 341.204 26.672 341.54 27.376V20.08H343.484V37H341.588V34.864C341.252 35.6 340.732 36.176 340.028 36.592C339.324 37.008 338.508 37.216 337.58 37.216ZM337.988 35.656C339.076 35.656 339.948 35.272 340.604 34.504C341.26 33.72 341.588 32.608 341.588 31.168C341.588 29.712 341.26 28.6 340.604 27.832C339.948 27.064 339.076 26.68 337.988 26.68C336.884 26.68 336.004 27.064 335.348 27.832C334.708 28.6 334.388 29.712 334.388 31.168C334.388 32.608 334.708 33.72 335.348 34.504C336.004 35.272 336.884 35.656 337.988 35.656ZM350.805 37.216C350.005 37.216 349.285 37.064 348.645 36.76C348.021 36.44 347.525 36.008 347.157 35.464C346.789 34.92 346.605 34.312 346.605 33.64C346.605 32.792 346.821 32.12 347.253 31.624C347.701 31.128 348.429 30.776 349.437 30.568C350.461 30.344 351.853 30.232 353.613 30.232H354.381V29.488C354.381 28.496 354.173 27.784 353.757 27.352C353.357 26.904 352.709 26.68 351.813 26.68C351.109 26.68 350.429 26.784 349.773 26.992C349.117 27.184 348.445 27.504 347.757 27.952L347.085 26.536C347.693 26.104 348.429 25.76 349.293 25.504C350.173 25.248 351.013 25.12 351.813 25.12C353.317 25.12 354.429 25.488 355.149 26.224C355.885 26.96 356.253 28.104 356.253 29.656V37H354.429V34.984C354.125 35.672 353.653 36.216 353.013 36.616C352.389 37.016 351.653 37.216 350.805 37.216ZM351.117 35.752C352.077 35.752 352.861 35.424 353.469 34.768C354.077 34.096 354.381 33.248 354.381 32.224V31.504H353.637C352.341 31.504 351.317 31.568 350.565 31.696C349.829 31.808 349.309 32.016 349.005 32.32C348.717 32.608 348.573 33.008 348.573 33.52C348.573 34.176 348.797 34.712 349.245 35.128C349.709 35.544 350.333 35.752 351.117 35.752ZM363.795 37.216C362.883 37.216 362.019 37.088 361.203 36.832C360.387 36.576 359.715 36.216 359.187 35.752L359.811 34.384C360.387 34.848 361.019 35.192 361.707 35.416C362.411 35.624 363.123 35.728 363.843 35.728C364.755 35.728 365.443 35.56 365.907 35.224C366.371 34.888 366.603 34.432 366.603 33.856C366.603 33.408 366.451 33.056 366.147 32.8C365.843 32.528 365.363 32.32 364.707 32.176L362.523 31.696C360.539 31.264 359.547 30.24 359.547 28.624C359.547 27.568 359.963 26.72 360.795 26.08C361.643 25.44 362.747 25.12 364.107 25.12C364.907 25.12 365.667 25.248 366.387 25.504C367.123 25.744 367.731 26.104 368.211 26.584L367.563 27.952C367.099 27.52 366.555 27.192 365.931 26.968C365.323 26.728 364.715 26.608 364.107 26.608C363.211 26.608 362.531 26.784 362.067 27.136C361.603 27.488 361.371 27.952 361.371 28.528C361.371 29.424 361.963 30 363.147 30.256L365.331 30.712C366.355 30.936 367.131 31.296 367.659 31.792C368.187 32.272 368.451 32.928 368.451 33.76C368.451 34.832 368.027 35.68 367.179 36.304C366.331 36.912 365.203 37.216 363.795 37.216Z" fill="black"/>
<path d="M1347.97 479V462.08H1353.69C1356.42 462.08 1358.53 462.808 1360.02 464.264C1361.51 465.704 1362.25 467.792 1362.25 470.528C1362.25 473.264 1361.51 475.36 1360.02 476.816C1358.53 478.272 1356.42 479 1353.69 479H1347.97ZM1349.94 477.32H1353.54C1357.96 477.32 1360.17 475.056 1360.17 470.528C1360.17 466.016 1357.96 463.76 1353.54 463.76H1349.94V477.32ZM1365.28 464.432V462.248H1367.68V464.432H1365.28ZM1365.52 479V467.336H1367.47V479H1365.52ZM1375.04 479.216C1374.13 479.216 1373.26 479.088 1372.45 478.832C1371.63 478.576 1370.96 478.216 1370.43 477.752L1371.05 476.384C1371.63 476.848 1372.26 477.192 1372.95 477.416C1373.65 477.624 1374.37 477.728 1375.09 477.728C1376 477.728 1376.69 477.56 1377.15 477.224C1377.61 476.888 1377.85 476.432 1377.85 475.856C1377.85 475.408 1377.69 475.056 1377.39 474.8C1377.09 474.528 1376.61 474.32 1375.95 474.176L1373.77 473.696C1371.78 473.264 1370.79 472.24 1370.79 470.624C1370.79 469.568 1371.21 468.72 1372.04 468.08C1372.89 467.44 1373.99 467.12 1375.35 467.12C1376.15 467.12 1376.91 467.248 1377.63 467.504C1378.37 467.744 1378.97 468.104 1379.45 468.584L1378.81 469.952C1378.34 469.52 1377.8 469.192 1377.17 468.968C1376.57 468.728 1375.96 468.608 1375.35 468.608C1374.45 468.608 1373.77 468.784 1373.31 469.136C1372.85 469.488 1372.61 469.952 1372.61 470.528C1372.61 471.424 1373.21 472 1374.39 472.256L1376.57 472.712C1377.6 472.936 1378.37 473.296 1378.9 473.792C1379.43 474.272 1379.69 474.928 1379.69 475.76C1379.69 476.832 1379.27 477.68 1378.42 478.304C1377.57 478.912 1376.45 479.216 1375.04 479.216ZM1387.6 479.216C1386.43 479.216 1385.42 478.968 1384.58 478.472C1383.73 477.96 1383.07 477.248 1382.61 476.336C1382.16 475.408 1381.94 474.328 1381.94 473.096C1381.94 471.24 1382.44 469.784 1383.45 468.728C1384.46 467.656 1385.84 467.12 1387.6 467.12C1388.32 467.12 1389.03 467.248 1389.74 467.504C1390.44 467.76 1391.02 468.12 1391.49 468.584L1390.82 470C1390.35 469.552 1389.84 469.224 1389.28 469.016C1388.74 468.808 1388.22 468.704 1387.72 468.704C1386.5 468.704 1385.57 469.088 1384.91 469.856C1384.26 470.608 1383.93 471.696 1383.93 473.12C1383.93 474.512 1384.26 475.616 1384.91 476.432C1385.57 477.232 1386.5 477.632 1387.72 477.632C1388.22 477.632 1388.74 477.528 1389.28 477.32C1389.84 477.112 1390.35 476.776 1390.82 476.312L1391.49 477.728C1391.02 478.192 1390.43 478.56 1389.71 478.832C1389.01 479.088 1388.3 479.216 1387.6 479.216ZM1393.53 464.432V462.248H1395.93V464.432H1393.53ZM1393.77 479V467.336H1395.71V479H1393.77ZM1399.34 483.32V467.336H1401.24V469.424C1401.59 468.704 1402.11 468.144 1402.8 467.744C1403.5 467.328 1404.32 467.12 1405.25 467.12C1406.29 467.12 1407.19 467.368 1407.96 467.864C1408.74 468.344 1409.34 469.04 1409.76 469.952C1410.19 470.848 1410.41 471.92 1410.41 473.168C1410.41 474.4 1410.19 475.472 1409.76 476.384C1409.34 477.28 1408.74 477.976 1407.96 478.472C1407.19 478.968 1406.29 479.216 1405.25 479.216C1404.35 479.216 1403.55 479.016 1402.85 478.616C1402.14 478.216 1401.62 477.664 1401.29 476.96V483.32H1399.34ZM1404.84 477.656C1405.93 477.656 1406.8 477.272 1407.46 476.504C1408.11 475.72 1408.44 474.608 1408.44 473.168C1408.44 471.712 1408.11 470.6 1407.46 469.832C1406.8 469.064 1405.93 468.68 1404.84 468.68C1403.75 468.68 1402.88 469.064 1402.22 469.832C1401.57 470.6 1401.24 471.712 1401.24 473.168C1401.24 474.608 1401.57 475.72 1402.22 476.504C1402.88 477.272 1403.75 477.656 1404.84 477.656ZM1416.91 479.216C1415.73 479.216 1414.83 478.872 1414.22 478.184C1413.63 477.48 1413.34 476.464 1413.34 475.136V462.08H1415.28V474.992C1415.28 476.704 1415.96 477.56 1417.32 477.56C1417.72 477.56 1418.08 477.512 1418.4 477.416L1418.35 479.048C1417.86 479.16 1417.38 479.216 1416.91 479.216ZM1420.2 464.432V462.248H1422.6V464.432H1420.2ZM1420.44 479V467.336H1422.38V479H1420.44ZM1426.02 479V467.336H1427.91V469.328C1428.3 468.592 1428.84 468.04 1429.54 467.672C1430.25 467.304 1431.04 467.12 1431.92 467.12C1434.69 467.12 1436.07 468.656 1436.07 471.728V479H1434.13V471.848C1434.13 470.76 1433.91 469.968 1433.48 469.472C1433.06 468.96 1432.39 468.704 1431.46 468.704C1430.39 468.704 1429.54 469.04 1428.9 469.712C1428.27 470.368 1427.96 471.248 1427.96 472.352V479H1426.02ZM1443.33 479.216C1442.53 479.216 1441.81 479.064 1441.17 478.76C1440.54 478.44 1440.05 478.008 1439.68 477.464C1439.31 476.92 1439.13 476.312 1439.13 475.64C1439.13 474.792 1439.34 474.12 1439.78 473.624C1440.22 473.128 1440.95 472.776 1441.96 472.568C1442.98 472.344 1444.38 472.232 1446.14 472.232H1446.9V471.488C1446.9 470.496 1446.7 469.784 1446.28 469.352C1445.88 468.904 1445.23 468.68 1444.34 468.68C1443.63 468.68 1442.95 468.784 1442.3 468.992C1441.64 469.184 1440.97 469.504 1440.28 469.952L1439.61 468.536C1440.22 468.104 1440.95 467.76 1441.82 467.504C1442.7 467.248 1443.54 467.12 1444.34 467.12C1445.84 467.12 1446.95 467.488 1447.67 468.224C1448.41 468.96 1448.78 470.104 1448.78 471.656V479H1446.95V476.984C1446.65 477.672 1446.18 478.216 1445.54 478.616C1444.91 479.016 1444.18 479.216 1443.33 479.216ZM1443.64 477.752C1444.6 477.752 1445.38 477.424 1445.99 476.768C1446.6 476.096 1446.9 475.248 1446.9 474.224V473.504H1446.16C1444.86 473.504 1443.84 473.568 1443.09 473.696C1442.35 473.808 1441.83 474.016 1441.53 474.32C1441.24 474.608 1441.1 475.008 1441.1 475.52C1441.1 476.176 1441.32 476.712 1441.77 477.128C1442.23 477.544 1442.86 477.752 1443.64 477.752ZM1456.32 479.216C1455.41 479.216 1454.54 479.088 1453.73 478.832C1452.91 478.576 1452.24 478.216 1451.71 477.752L1452.33 476.384C1452.91 476.848 1453.54 477.192 1454.23 477.416C1454.93 477.624 1455.65 477.728 1456.37 477.728C1457.28 477.728 1457.97 477.56 1458.43 477.224C1458.89 476.888 1459.13 476.432 1459.13 475.856C1459.13 475.408 1458.97 475.056 1458.67 474.8C1458.37 474.528 1457.89 474.32 1457.23 474.176L1455.05 473.696C1453.06 473.264 1452.07 472.24 1452.07 470.624C1452.07 469.568 1452.49 468.72 1453.32 468.08C1454.17 467.44 1455.27 467.12 1456.63 467.12C1457.43 467.12 1458.19 467.248 1458.91 467.504C1459.65 467.744 1460.25 468.104 1460.73 468.584L1460.09 469.952C1459.62 469.52 1459.08 469.192 1458.45 468.968C1457.85 468.728 1457.24 468.608 1456.63 468.608C1455.73 468.608 1455.05 468.784 1454.59 469.136C1454.13 469.488 1453.89 469.952 1453.89 470.528C1453.89 471.424 1454.49 472 1455.67 472.256L1457.85 472.712C1458.88 472.936 1459.65 473.296 1460.18 473.792C1460.71 474.272 1460.97 474.928 1460.97 475.76C1460.97 476.832 1460.55 477.68 1459.7 478.304C1458.85 478.912 1457.73 479.216 1456.32 479.216Z" fill="black"/>
<defs>
<clipPath id="clip0">
<rect width="999" height="49" fill="white" transform="translate(291 486)"/>
</clipPath>
</defs>
</svg>
