<svg width="1391" height="544" viewBox="0 0 1391 544" fill="none" xmlns="http://www.w3.org/2000/svg">
<g clip-path="url(#clip0)">
<line x1="123.5" y1="58" x2="123.5" y2="467" stroke="black" style="mix-blend-mode:darken"/>
<line x1="120.999" y1="467.498" x2="1282" y2="467.498" stroke="black" style="mix-blend-mode:darken"/>
<line x1="101" y1="386.5" x2="145" y2="386.5" stroke="black"/>
<line x1="101" y1="262.5" x2="145" y2="262.5" stroke="black"/>
<line x1="101" y1="138.5" x2="145" y2="138.5" stroke="black"/>
<path d="M103.505 476.216C101.569 476.216 100.097 475.472 99.0887 473.984C98.0807 472.496 97.5767 470.344 97.5767 467.528C97.5767 464.696 98.0807 462.544 99.0887 461.072C100.097 459.6 101.569 458.864 103.505 458.864C105.457 458.864 106.929 459.6 107.921 461.072C108.929 462.528 109.433 464.672 109.433 467.504C109.433 470.336 108.921 472.496 107.897 473.984C106.889 475.472 105.425 476.216 103.505 476.216ZM103.505 474.512C104.849 474.512 105.841 473.944 106.481 472.808C107.137 471.672 107.465 469.904 107.465 467.504C107.465 465.104 107.145 463.352 106.505 462.248C105.865 461.128 104.865 460.568 103.505 460.568C102.161 460.568 101.161 461.128 100.505 462.248C99.8647 463.368 99.5447 465.12 99.5447 467.504C99.5447 469.904 99.8647 471.672 100.505 472.808C101.161 473.944 102.161 474.512 103.505 474.512Z" fill="black"/>
<path d="M54.3549 395V393.32H58.2189V380.456L55.1709 382.376L54.3309 380.912L58.7709 378.08H60.1869V393.32H63.8109V395H54.3549ZM67.2815 395V392.552H69.7295V395H67.2815ZM78.4305 395.216C76.4945 395.216 75.0225 394.472 74.0145 392.984C73.0065 391.496 72.5025 389.344 72.5025 386.528C72.5025 383.696 73.0065 381.544 74.0145 380.072C75.0225 378.6 76.4945 377.864 78.4305 377.864C80.3825 377.864 81.8545 378.6 82.8465 380.072C83.8545 381.528 84.3585 383.672 84.3585 386.504C84.3585 389.336 83.8465 391.496 82.8225 392.984C81.8145 394.472 80.3505 395.216 78.4305 395.216ZM78.4305 393.512C79.7745 393.512 80.7665 392.944 81.4065 391.808C82.0625 390.672 82.3905 388.904 82.3905 386.504C82.3905 384.104 82.0705 382.352 81.4305 381.248C80.7905 380.128 79.7905 379.568 78.4305 379.568C77.0865 379.568 76.0865 380.128 75.4305 381.248C74.7905 382.368 74.4705 384.12 74.4705 386.504C74.4705 388.904 74.7905 390.672 75.4305 391.808C76.0865 392.944 77.0865 393.512 78.4305 393.512Z" fill="black"/>
<path d="M53.5389 271V269.512L59.3229 263.272C60.1389 262.376 60.7229 261.56 61.0749 260.824C61.4429 260.088 61.6269 259.336 61.6269 258.568C61.6269 256.6 60.4829 255.616 58.1949 255.616C56.4829 255.616 54.9709 256.256 53.6589 257.536L52.9149 256C53.5389 255.36 54.3309 254.848 55.2909 254.464C56.2669 254.064 57.2909 253.864 58.3629 253.864C60.0589 253.864 61.3549 254.264 62.2509 255.064C63.1629 255.848 63.6189 256.968 63.6189 258.424C63.6189 259.432 63.3709 260.424 62.8749 261.4C62.3789 262.36 61.6189 263.384 60.5949 264.472L56.0589 269.32H64.3149V271H53.5389ZM67.2815 271V268.552H69.7295V271H67.2815ZM78.4305 271.216C76.4945 271.216 75.0225 270.472 74.0145 268.984C73.0065 267.496 72.5025 265.344 72.5025 262.528C72.5025 259.696 73.0065 257.544 74.0145 256.072C75.0225 254.6 76.4945 253.864 78.4305 253.864C80.3825 253.864 81.8545 254.6 82.8465 256.072C83.8545 257.528 84.3585 259.672 84.3585 262.504C84.3585 265.336 83.8465 267.496 82.8225 268.984C81.8145 270.472 80.3505 271.216 78.4305 271.216ZM78.4305 269.512C79.7745 269.512 80.7665 268.944 81.4065 267.808C82.0625 266.672 82.3905 264.904 82.3905 262.504C82.3905 260.104 82.0705 258.352 81.4305 257.248C80.7905 256.128 79.7905 255.568 78.4305 255.568C77.0865 255.568 76.0865 256.128 75.4305 257.248C74.7905 258.368 74.4705 260.12 74.4705 262.504C74.4705 264.904 74.7905 266.672 75.4305 267.808C76.0865 268.944 77.0865 269.512 78.4305 269.512Z" fill="black"/>
<path d="M58.3869 147.216C57.2669 147.216 56.2029 147.048 55.1949 146.712C54.1869 146.36 53.3389 145.856 52.6509 145.2L53.3709 143.64C54.1549 144.28 54.9469 144.744 55.7469 145.032C56.5469 145.32 57.4109 145.464 58.3389 145.464C59.5549 145.464 60.4829 145.2 61.1229 144.672C61.7789 144.128 62.1069 143.336 62.1069 142.296C62.1069 141.304 61.7789 140.552 61.1229 140.04C60.4669 139.528 59.5149 139.272 58.2669 139.272H55.7709V137.568H58.0989C59.1869 137.568 60.0429 137.288 60.6669 136.728C61.3069 136.152 61.6269 135.368 61.6269 134.376C61.6269 133.496 61.3309 132.816 60.7389 132.336C60.1629 131.856 59.3389 131.616 58.2669 131.616C56.5069 131.616 54.9709 132.256 53.6589 133.536L52.9389 132C53.5629 131.328 54.3549 130.808 55.3149 130.44C56.2909 130.056 57.3149 129.864 58.3869 129.864C60.0189 129.864 61.2909 130.248 62.2029 131.016C63.1309 131.784 63.5949 132.848 63.5949 134.208C63.5949 135.152 63.3549 135.984 62.8749 136.704C62.3949 137.408 61.7309 137.92 60.8829 138.24C61.8909 138.512 62.6749 139.016 63.2349 139.752C63.7949 140.472 64.0749 141.368 64.0749 142.44C64.0749 143.896 63.5629 145.056 62.5389 145.92C61.5309 146.784 60.1469 147.216 58.3869 147.216ZM67.2815 147V144.552H69.7295V147H67.2815ZM78.4305 147.216C76.4945 147.216 75.0225 146.472 74.0145 144.984C73.0065 143.496 72.5025 141.344 72.5025 138.528C72.5025 135.696 73.0065 133.544 74.0145 132.072C75.0225 130.6 76.4945 129.864 78.4305 129.864C80.3825 129.864 81.8545 130.6 82.8465 132.072C83.8545 133.528 84.3585 135.672 84.3585 138.504C84.3585 141.336 83.8465 143.496 82.8225 144.984C81.8145 146.472 80.3505 147.216 78.4305 147.216ZM78.4305 145.512C79.7745 145.512 80.7665 144.944 81.4065 143.808C82.0625 142.672 82.3905 140.904 82.3905 138.504C82.3905 136.104 82.0705 134.352 81.4305 133.248C80.7905 132.128 79.7905 131.568 78.4305 131.568C77.0865 131.568 76.0865 132.128 75.4305 133.248C74.7905 134.368 74.4705 136.12 74.4705 138.504C74.4705 140.904 74.7905 142.672 75.4305 143.808C76.0865 144.944 77.0865 145.512 78.4305 145.512Z" fill="black"/>
<path d="M252.773 516V514.32H256.637V501.456L253.589 503.376L252.749 501.912L257.189 499.08H258.605V514.32H262.229V516H252.773ZM268.652 505.968C267.964 505.968 267.348 505.816 266.804 505.512C266.276 505.192 265.852 504.768 265.532 504.24C265.228 503.696 265.076 503.088 265.076 502.416C265.076 501.744 265.228 501.144 265.532 500.616C265.852 500.072 266.276 499.648 266.804 499.344C267.348 499.024 267.964 498.864 268.652 498.864C269.324 498.864 269.924 499.024 270.452 499.344C270.98 499.648 271.396 500.072 271.7 500.616C272.02 501.144 272.18 501.744 272.18 502.416C272.18 503.088 272.02 503.696 271.7 504.24C271.396 504.768 270.98 505.192 270.452 505.512C269.924 505.816 269.324 505.968 268.652 505.968ZM268.652 504.648C269.276 504.648 269.788 504.44 270.188 504.024C270.588 503.592 270.788 503.056 270.788 502.416C270.788 501.76 270.588 501.224 270.188 500.808C269.788 500.392 269.276 500.184 268.652 500.184C268.012 500.184 267.492 500.392 267.092 500.808C266.692 501.224 266.492 501.76 266.492 502.416C266.492 503.056 266.692 503.592 267.092 504.024C267.492 504.44 268.012 504.648 268.652 504.648ZM281.346 516V499.08H283.314V516H281.346ZM287.222 516V504.336H289.118V506.328C289.502 505.592 290.046 505.04 290.75 504.672C291.454 504.304 292.246 504.12 293.126 504.12C295.894 504.12 297.278 505.656 297.278 508.728V516H295.334V508.848C295.334 507.76 295.118 506.968 294.686 506.472C294.27 505.96 293.598 505.704 292.67 505.704C291.598 505.704 290.742 506.04 290.102 506.712C289.478 507.368 289.166 508.248 289.166 509.352V516H287.222ZM301.487 516V505.848H299.183V504.336H301.487V503.928C301.487 502.376 301.871 501.2 302.639 500.4C303.423 499.6 304.623 499.152 306.239 499.056L307.175 499.008L307.343 500.496L306.239 500.568C305.247 500.648 304.527 500.944 304.079 501.456C303.647 501.968 303.431 502.712 303.431 503.688V504.336H306.791V505.848H303.431V516H301.487ZM313.375 516.216C312.239 516.216 311.255 515.968 310.423 515.472C309.591 514.976 308.943 514.28 308.479 513.384C308.031 512.472 307.807 511.4 307.807 510.168C307.807 508.936 308.031 507.872 308.479 506.976C308.943 506.064 309.591 505.36 310.423 504.864C311.255 504.368 312.239 504.12 313.375 504.12C314.495 504.12 315.471 504.368 316.303 504.864C317.151 505.36 317.799 506.064 318.247 506.976C318.711 507.872 318.943 508.936 318.943 510.168C318.943 511.4 318.711 512.472 318.247 513.384C317.799 514.28 317.151 514.976 316.303 515.472C315.471 515.968 314.495 516.216 313.375 516.216ZM313.375 514.656C314.463 514.656 315.335 514.272 315.991 513.504C316.647 512.72 316.975 511.608 316.975 510.168C316.975 508.712 316.647 507.6 315.991 506.832C315.335 506.064 314.463 505.68 313.375 505.68C312.271 505.68 311.391 506.064 310.735 506.832C310.095 507.6 309.775 508.712 309.775 510.168C309.775 511.608 310.095 512.72 310.735 513.504C311.391 514.272 312.271 514.656 313.375 514.656ZM321.863 516V504.336H323.759V506.424C324.383 505.016 325.663 504.24 327.599 504.096L328.295 504.024L328.439 505.704L327.215 505.848C326.111 505.944 325.271 506.296 324.695 506.904C324.119 507.496 323.831 508.312 323.831 509.352V516H321.863ZM330.513 516V504.336H332.409V506.304C332.761 505.6 333.249 505.064 333.873 504.696C334.497 504.312 335.225 504.12 336.057 504.12C337.881 504.12 339.049 504.912 339.561 506.496C339.913 505.76 340.433 505.184 341.121 504.768C341.809 504.336 342.601 504.12 343.497 504.12C346.089 504.12 347.385 505.656 347.385 508.728V516H345.441V508.824C345.441 507.752 345.249 506.968 344.865 506.472C344.497 505.96 343.881 505.704 343.017 505.704C342.073 505.704 341.321 506.04 340.761 506.712C340.201 507.384 339.921 508.28 339.921 509.4V516H337.977V508.824C337.977 507.752 337.785 506.968 337.401 506.472C337.033 505.96 336.417 505.704 335.553 505.704C334.593 505.704 333.833 506.04 333.273 506.712C332.729 507.384 332.457 508.28 332.457 509.4V516H330.513ZM354.691 516.216C353.891 516.216 353.171 516.064 352.531 515.76C351.907 515.44 351.411 515.008 351.043 514.464C350.675 513.92 350.491 513.312 350.491 512.64C350.491 511.792 350.707 511.12 351.139 510.624C351.587 510.128 352.315 509.776 353.323 509.568C354.347 509.344 355.739 509.232 357.499 509.232H358.267V508.488C358.267 507.496 358.059 506.784 357.643 506.352C357.243 505.904 356.595 505.68 355.699 505.68C354.995 505.68 354.315 505.784 353.659 505.992C353.003 506.184 352.331 506.504 351.643 506.952L350.971 505.536C351.579 505.104 352.315 504.76 353.179 504.504C354.059 504.248 354.899 504.12 355.699 504.12C357.203 504.12 358.315 504.488 359.035 505.224C359.771 505.96 360.139 507.104 360.139 508.656V516H358.315V513.984C358.011 514.672 357.539 515.216 356.899 515.616C356.275 516.016 355.539 516.216 354.691 516.216ZM355.003 514.752C355.963 514.752 356.747 514.424 357.355 513.768C357.963 513.096 358.267 512.248 358.267 511.224V510.504H357.523C356.227 510.504 355.203 510.568 354.451 510.696C353.715 510.808 353.195 511.016 352.891 511.32C352.603 511.608 352.459 512.008 352.459 512.52C352.459 513.176 352.683 513.712 353.131 514.128C353.595 514.544 354.219 514.752 355.003 514.752ZM355.027 502.776L357.499 497.928H359.587L356.419 502.776H355.027ZM368.426 516.216C367.05 516.216 366.018 515.856 365.33 515.136C364.642 514.4 364.298 513.344 364.298 511.968V505.848H362.018V504.336H364.298V500.76H366.242V504.336H369.938V505.848H366.242V511.776C366.242 512.688 366.434 513.384 366.818 513.864C367.202 514.328 367.826 514.56 368.69 514.56C368.946 514.56 369.202 514.528 369.458 514.464C369.714 514.4 369.946 514.336 370.154 514.272L370.49 515.76C370.282 515.872 369.978 515.976 369.578 516.072C369.178 516.168 368.794 516.216 368.426 516.216ZM371.896 501.432V499.248H374.297V501.432H371.896ZM372.137 516V504.336H374.081V516H372.137ZM382.659 516.216C381.491 516.216 380.483 515.968 379.635 515.472C378.787 514.96 378.131 514.248 377.667 513.336C377.219 512.408 376.995 511.328 376.995 510.096C376.995 508.24 377.499 506.784 378.507 505.728C379.515 504.656 380.899 504.12 382.659 504.12C383.379 504.12 384.091 504.248 384.795 504.504C385.499 504.76 386.083 505.12 386.547 505.584L385.875 507C385.411 506.552 384.899 506.224 384.339 506.016C383.795 505.808 383.275 505.704 382.779 505.704C381.563 505.704 380.627 506.088 379.971 506.856C379.315 507.608 378.987 508.696 378.987 510.12C378.987 511.512 379.315 512.616 379.971 513.432C380.627 514.232 381.563 514.632 382.779 514.632C383.275 514.632 383.795 514.528 384.339 514.32C384.899 514.112 385.411 513.776 385.875 513.312L386.547 514.728C386.083 515.192 385.491 515.56 384.771 515.832C384.067 516.088 383.363 516.216 382.659 516.216ZM392.402 516.216C391.602 516.216 390.882 516.064 390.242 515.76C389.618 515.44 389.122 515.008 388.754 514.464C388.386 513.92 388.202 513.312 388.202 512.64C388.202 511.792 388.418 511.12 388.85 510.624C389.298 510.128 390.026 509.776 391.034 509.568C392.058 509.344 393.45 509.232 395.21 509.232H395.978V508.488C395.978 507.496 395.77 506.784 395.354 506.352C394.954 505.904 394.306 505.68 393.41 505.68C392.706 505.68 392.026 505.784 391.37 505.992C390.714 506.184 390.042 506.504 389.354 506.952L388.682 505.536C389.29 505.104 390.026 504.76 390.89 504.504C391.77 504.248 392.61 504.12 393.41 504.12C394.914 504.12 396.026 504.488 396.746 505.224C397.482 505.96 397.85 507.104 397.85 508.656V516H396.026V513.984C395.722 514.672 395.25 515.216 394.61 515.616C393.986 516.016 393.25 516.216 392.402 516.216ZM392.714 514.752C393.674 514.752 394.458 514.424 395.066 513.768C395.674 513.096 395.978 512.248 395.978 511.224V510.504H395.234C393.938 510.504 392.914 510.568 392.162 510.696C391.426 510.808 390.906 511.016 390.602 511.32C390.314 511.608 390.17 512.008 390.17 512.52C390.17 513.176 390.394 513.712 390.842 514.128C391.306 514.544 391.93 514.752 392.714 514.752ZM407.957 516V514.512L413.741 508.272C414.557 507.376 415.141 506.56 415.493 505.824C415.861 505.088 416.045 504.336 416.045 503.568C416.045 501.6 414.901 500.616 412.613 500.616C410.901 500.616 409.389 501.256 408.077 502.536L407.333 501C407.957 500.36 408.749 499.848 409.709 499.464C410.685 499.064 411.709 498.864 412.781 498.864C414.477 498.864 415.773 499.264 416.669 500.064C417.581 500.848 418.037 501.968 418.037 503.424C418.037 504.432 417.789 505.424 417.293 506.4C416.797 507.36 416.037 508.384 415.013 509.472L410.477 514.32H418.733V516H407.957ZM427.388 516.216C425.452 516.216 423.98 515.472 422.972 513.984C421.964 512.496 421.46 510.344 421.46 507.528C421.46 504.696 421.964 502.544 422.972 501.072C423.98 499.6 425.452 498.864 427.388 498.864C429.34 498.864 430.812 499.6 431.804 501.072C432.812 502.528 433.316 504.672 433.316 507.504C433.316 510.336 432.804 512.496 431.78 513.984C430.772 515.472 429.308 516.216 427.388 516.216ZM427.388 514.512C428.732 514.512 429.724 513.944 430.364 512.808C431.02 511.672 431.348 509.904 431.348 507.504C431.348 505.104 431.028 503.352 430.388 502.248C429.748 501.128 428.748 500.568 427.388 500.568C426.044 500.568 425.044 501.128 424.388 502.248C423.748 503.368 423.428 505.12 423.428 507.504C423.428 509.904 423.748 511.672 424.388 512.808C425.044 513.944 426.044 514.512 427.388 514.512ZM436.738 516V514.512L442.522 508.272C443.338 507.376 443.922 506.56 444.274 505.824C444.642 505.088 444.826 504.336 444.826 503.568C444.826 501.6 443.682 500.616 441.394 500.616C439.682 500.616 438.17 501.256 436.858 502.536L436.114 501C436.738 500.36 437.53 499.848 438.49 499.464C439.466 499.064 440.49 498.864 441.562 498.864C443.258 498.864 444.554 499.264 445.45 500.064C446.362 500.848 446.818 501.968 446.818 503.424C446.818 504.432 446.57 505.424 446.074 506.4C445.578 507.36 444.818 508.384 443.794 509.472L439.258 514.32H447.514V516H436.738ZM456.169 516.216C454.233 516.216 452.761 515.472 451.753 513.984C450.745 512.496 450.241 510.344 450.241 507.528C450.241 504.696 450.745 502.544 451.753 501.072C452.761 499.6 454.233 498.864 456.169 498.864C458.121 498.864 459.593 499.6 460.585 501.072C461.593 502.528 462.097 504.672 462.097 507.504C462.097 510.336 461.585 512.496 460.561 513.984C459.553 515.472 458.089 516.216 456.169 516.216ZM456.169 514.512C457.513 514.512 458.505 513.944 459.145 512.808C459.801 511.672 460.129 509.904 460.129 507.504C460.129 505.104 459.809 503.352 459.169 502.248C458.529 501.128 457.529 500.568 456.169 500.568C454.825 500.568 453.825 501.128 453.169 502.248C452.529 503.368 452.209 505.12 452.209 507.504C452.209 509.904 452.529 511.672 453.169 512.808C453.825 513.944 454.825 514.512 456.169 514.512ZM471.251 510.408V508.8H477.971V510.408H471.251ZM487.947 516V499.08H489.915V516H487.947ZM494.088 516V499.08H495.624L505.824 512.688V499.08H507.648V516H506.16L495.936 502.344V516H494.088ZM516.006 516V500.784H509.862V499.08H524.142V500.784H517.998V516H516.006Z" fill="black"/>
<path d="M602.957 516V514.512L608.741 508.272C609.557 507.376 610.141 506.56 610.493 505.824C610.861 505.088 611.045 504.336 611.045 503.568C611.045 501.6 609.901 500.616 607.613 500.616C605.901 500.616 604.389 501.256 603.077 502.536L602.333 501C602.957 500.36 603.749 499.848 604.709 499.464C605.685 499.064 606.709 498.864 607.781 498.864C609.477 498.864 610.773 499.264 611.669 500.064C612.581 500.848 613.037 501.968 613.037 503.424C613.037 504.432 612.789 505.424 612.293 506.4C611.797 507.36 611.037 508.384 610.013 509.472L605.477 514.32H613.733V516H602.957ZM619.652 505.968C618.964 505.968 618.348 505.816 617.804 505.512C617.276 505.192 616.852 504.768 616.532 504.24C616.228 503.696 616.076 503.088 616.076 502.416C616.076 501.744 616.228 501.144 616.532 500.616C616.852 500.072 617.276 499.648 617.804 499.344C618.348 499.024 618.964 498.864 619.652 498.864C620.324 498.864 620.924 499.024 621.452 499.344C621.98 499.648 622.396 500.072 622.7 500.616C623.02 501.144 623.18 501.744 623.18 502.416C623.18 503.088 623.02 503.696 622.7 504.24C622.396 504.768 621.98 505.192 621.452 505.512C620.924 505.816 620.324 505.968 619.652 505.968ZM619.652 504.648C620.276 504.648 620.788 504.44 621.188 504.024C621.588 503.592 621.788 503.056 621.788 502.416C621.788 501.76 621.588 501.224 621.188 500.808C620.788 500.392 620.276 500.184 619.652 500.184C619.012 500.184 618.492 500.392 618.092 500.808C617.692 501.224 617.492 501.76 617.492 502.416C617.492 503.056 617.692 503.592 618.092 504.024C618.492 504.44 619.012 504.648 619.652 504.648ZM632.346 516V499.08H634.314V516H632.346ZM638.222 516V504.336H640.118V506.328C640.502 505.592 641.046 505.04 641.75 504.672C642.454 504.304 643.246 504.12 644.126 504.12C646.894 504.12 648.278 505.656 648.278 508.728V516H646.334V508.848C646.334 507.76 646.118 506.968 645.686 506.472C645.27 505.96 644.598 505.704 643.67 505.704C642.598 505.704 641.742 506.04 641.102 506.712C640.478 507.368 640.166 508.248 640.166 509.352V516H638.222ZM652.487 516V505.848H650.183V504.336H652.487V503.928C652.487 502.376 652.871 501.2 653.639 500.4C654.423 499.6 655.623 499.152 657.239 499.056L658.175 499.008L658.343 500.496L657.239 500.568C656.247 500.648 655.527 500.944 655.079 501.456C654.647 501.968 654.431 502.712 654.431 503.688V504.336H657.791V505.848H654.431V516H652.487ZM664.375 516.216C663.239 516.216 662.255 515.968 661.423 515.472C660.591 514.976 659.943 514.28 659.479 513.384C659.031 512.472 658.807 511.4 658.807 510.168C658.807 508.936 659.031 507.872 659.479 506.976C659.943 506.064 660.591 505.36 661.423 504.864C662.255 504.368 663.239 504.12 664.375 504.12C665.495 504.12 666.471 504.368 667.303 504.864C668.151 505.36 668.799 506.064 669.247 506.976C669.711 507.872 669.943 508.936 669.943 510.168C669.943 511.4 669.711 512.472 669.247 513.384C668.799 514.28 668.151 514.976 667.303 515.472C666.471 515.968 665.495 516.216 664.375 516.216ZM664.375 514.656C665.463 514.656 666.335 514.272 666.991 513.504C667.647 512.72 667.975 511.608 667.975 510.168C667.975 508.712 667.647 507.6 666.991 506.832C666.335 506.064 665.463 505.68 664.375 505.68C663.271 505.68 662.391 506.064 661.735 506.832C661.095 507.6 660.775 508.712 660.775 510.168C660.775 511.608 661.095 512.72 661.735 513.504C662.391 514.272 663.271 514.656 664.375 514.656ZM672.863 516V504.336H674.759V506.424C675.383 505.016 676.663 504.24 678.599 504.096L679.295 504.024L679.439 505.704L678.215 505.848C677.111 505.944 676.271 506.296 675.695 506.904C675.119 507.496 674.831 508.312 674.831 509.352V516H672.863ZM681.513 516V504.336H683.409V506.304C683.761 505.6 684.249 505.064 684.873 504.696C685.497 504.312 686.225 504.12 687.057 504.12C688.881 504.12 690.049 504.912 690.561 506.496C690.913 505.76 691.433 505.184 692.121 504.768C692.809 504.336 693.601 504.12 694.497 504.12C697.089 504.12 698.385 505.656 698.385 508.728V516H696.441V508.824C696.441 507.752 696.249 506.968 695.865 506.472C695.497 505.96 694.881 505.704 694.017 505.704C693.073 505.704 692.321 506.04 691.761 506.712C691.201 507.384 690.921 508.28 690.921 509.4V516H688.977V508.824C688.977 507.752 688.785 506.968 688.401 506.472C688.033 505.96 687.417 505.704 686.553 505.704C685.593 505.704 684.833 506.04 684.273 506.712C683.729 507.384 683.457 508.28 683.457 509.4V516H681.513ZM705.691 516.216C704.891 516.216 704.171 516.064 703.531 515.76C702.907 515.44 702.411 515.008 702.043 514.464C701.675 513.92 701.491 513.312 701.491 512.64C701.491 511.792 701.707 511.12 702.139 510.624C702.587 510.128 703.315 509.776 704.323 509.568C705.347 509.344 706.739 509.232 708.499 509.232H709.267V508.488C709.267 507.496 709.059 506.784 708.643 506.352C708.243 505.904 707.595 505.68 706.699 505.68C705.995 505.68 705.315 505.784 704.659 505.992C704.003 506.184 703.331 506.504 702.643 506.952L701.971 505.536C702.579 505.104 703.315 504.76 704.179 504.504C705.059 504.248 705.899 504.12 706.699 504.12C708.203 504.12 709.315 504.488 710.035 505.224C710.771 505.96 711.139 507.104 711.139 508.656V516H709.315V513.984C709.011 514.672 708.539 515.216 707.899 515.616C707.275 516.016 706.539 516.216 705.691 516.216ZM706.003 514.752C706.963 514.752 707.747 514.424 708.355 513.768C708.963 513.096 709.267 512.248 709.267 511.224V510.504H708.523C707.227 510.504 706.203 510.568 705.451 510.696C704.715 510.808 704.195 511.016 703.891 511.32C703.603 511.608 703.459 512.008 703.459 512.52C703.459 513.176 703.683 513.712 704.131 514.128C704.595 514.544 705.219 514.752 706.003 514.752ZM706.027 502.776L708.499 497.928H710.587L707.419 502.776H706.027ZM719.426 516.216C718.05 516.216 717.018 515.856 716.33 515.136C715.642 514.4 715.298 513.344 715.298 511.968V505.848H713.018V504.336H715.298V500.76H717.242V504.336H720.938V505.848H717.242V511.776C717.242 512.688 717.434 513.384 717.818 513.864C718.202 514.328 718.826 514.56 719.69 514.56C719.946 514.56 720.202 514.528 720.458 514.464C720.714 514.4 720.946 514.336 721.154 514.272L721.49 515.76C721.282 515.872 720.978 515.976 720.578 516.072C720.178 516.168 719.794 516.216 719.426 516.216ZM722.896 501.432V499.248H725.297V501.432H722.896ZM723.137 516V504.336H725.081V516H723.137ZM733.659 516.216C732.491 516.216 731.483 515.968 730.635 515.472C729.787 514.96 729.131 514.248 728.667 513.336C728.219 512.408 727.995 511.328 727.995 510.096C727.995 508.24 728.499 506.784 729.507 505.728C730.515 504.656 731.899 504.12 733.659 504.12C734.379 504.12 735.091 504.248 735.795 504.504C736.499 504.76 737.083 505.12 737.547 505.584L736.875 507C736.411 506.552 735.899 506.224 735.339 506.016C734.795 505.808 734.275 505.704 733.779 505.704C732.563 505.704 731.627 506.088 730.971 506.856C730.315 507.608 729.987 508.696 729.987 510.12C729.987 511.512 730.315 512.616 730.971 513.432C731.627 514.232 732.563 514.632 733.779 514.632C734.275 514.632 734.795 514.528 735.339 514.32C735.899 514.112 736.411 513.776 736.875 513.312L737.547 514.728C737.083 515.192 736.491 515.56 735.771 515.832C735.067 516.088 734.363 516.216 733.659 516.216ZM743.402 516.216C742.602 516.216 741.882 516.064 741.242 515.76C740.618 515.44 740.122 515.008 739.754 514.464C739.386 513.92 739.202 513.312 739.202 512.64C739.202 511.792 739.418 511.12 739.85 510.624C740.298 510.128 741.026 509.776 742.034 509.568C743.058 509.344 744.45 509.232 746.21 509.232H746.978V508.488C746.978 507.496 746.77 506.784 746.354 506.352C745.954 505.904 745.306 505.68 744.41 505.68C743.706 505.68 743.026 505.784 742.37 505.992C741.714 506.184 741.042 506.504 740.354 506.952L739.682 505.536C740.29 505.104 741.026 504.76 741.89 504.504C742.77 504.248 743.61 504.12 744.41 504.12C745.914 504.12 747.026 504.488 747.746 505.224C748.482 505.96 748.85 507.104 748.85 508.656V516H747.026V513.984C746.722 514.672 746.25 515.216 745.61 515.616C744.986 516.016 744.25 516.216 743.402 516.216ZM743.714 514.752C744.674 514.752 745.458 514.424 746.066 513.768C746.674 513.096 746.978 512.248 746.978 511.224V510.504H746.234C744.938 510.504 743.914 510.568 743.162 510.696C742.426 510.808 741.906 511.016 741.602 511.32C741.314 511.608 741.17 512.008 741.17 512.52C741.17 513.176 741.394 513.712 741.842 514.128C742.306 514.544 742.93 514.752 743.714 514.752ZM758.957 516V514.512L764.741 508.272C765.557 507.376 766.141 506.56 766.493 505.824C766.861 505.088 767.045 504.336 767.045 503.568C767.045 501.6 765.901 500.616 763.613 500.616C761.901 500.616 760.389 501.256 759.077 502.536L758.333 501C758.957 500.36 759.749 499.848 760.709 499.464C761.685 499.064 762.709 498.864 763.781 498.864C765.477 498.864 766.773 499.264 767.669 500.064C768.581 500.848 769.037 501.968 769.037 503.424C769.037 504.432 768.789 505.424 768.293 506.4C767.797 507.36 767.037 508.384 766.013 509.472L761.477 514.32H769.733V516H758.957ZM778.388 516.216C776.452 516.216 774.98 515.472 773.972 513.984C772.964 512.496 772.46 510.344 772.46 507.528C772.46 504.696 772.964 502.544 773.972 501.072C774.98 499.6 776.452 498.864 778.388 498.864C780.34 498.864 781.812 499.6 782.804 501.072C783.812 502.528 784.316 504.672 784.316 507.504C784.316 510.336 783.804 512.496 782.78 513.984C781.772 515.472 780.308 516.216 778.388 516.216ZM778.388 514.512C779.732 514.512 780.724 513.944 781.364 512.808C782.02 511.672 782.348 509.904 782.348 507.504C782.348 505.104 782.028 503.352 781.388 502.248C780.748 501.128 779.748 500.568 778.388 500.568C777.044 500.568 776.044 501.128 775.388 502.248C774.748 503.368 774.428 505.12 774.428 507.504C774.428 509.904 774.748 511.672 775.388 512.808C776.044 513.944 777.044 514.512 778.388 514.512ZM787.738 516V514.512L793.522 508.272C794.338 507.376 794.922 506.56 795.274 505.824C795.642 505.088 795.826 504.336 795.826 503.568C795.826 501.6 794.682 500.616 792.394 500.616C790.682 500.616 789.17 501.256 787.858 502.536L787.114 501C787.738 500.36 788.53 499.848 789.49 499.464C790.466 499.064 791.49 498.864 792.562 498.864C794.258 498.864 795.554 499.264 796.45 500.064C797.362 500.848 797.818 501.968 797.818 503.424C797.818 504.432 797.57 505.424 797.074 506.4C796.578 507.36 795.818 508.384 794.794 509.472L790.258 514.32H798.514V516H787.738ZM807.169 516.216C805.233 516.216 803.761 515.472 802.753 513.984C801.745 512.496 801.241 510.344 801.241 507.528C801.241 504.696 801.745 502.544 802.753 501.072C803.761 499.6 805.233 498.864 807.169 498.864C809.121 498.864 810.593 499.6 811.585 501.072C812.593 502.528 813.097 504.672 813.097 507.504C813.097 510.336 812.585 512.496 811.561 513.984C810.553 515.472 809.089 516.216 807.169 516.216ZM807.169 514.512C808.513 514.512 809.505 513.944 810.145 512.808C810.801 511.672 811.129 509.904 811.129 507.504C811.129 505.104 810.809 503.352 810.169 502.248C809.529 501.128 808.529 500.568 807.169 500.568C805.825 500.568 804.825 501.128 804.169 502.248C803.529 503.368 803.209 505.12 803.209 507.504C803.209 509.904 803.529 511.672 804.169 512.808C804.825 513.944 805.825 514.512 807.169 514.512ZM822.251 510.408V508.8H828.971V510.408H822.251ZM838.947 516V499.08H840.915V516H838.947ZM845.088 516V499.08H846.624L856.824 512.688V499.08H858.648V516H857.16L846.936 502.344V516H845.088ZM867.006 516V500.784H860.862V499.08H875.142V500.784H868.998V516H867.006Z" fill="black"/>
<path d="M958.805 516.216C957.685 516.216 956.621 516.048 955.613 515.712C954.605 515.36 953.757 514.856 953.069 514.2L953.789 512.64C954.573 513.28 955.365 513.744 956.165 514.032C956.965 514.32 957.829 514.464 958.757 514.464C959.973 514.464 960.901 514.2 961.541 513.672C962.197 513.128 962.525 512.336 962.525 511.296C962.525 510.304 962.197 509.552 961.541 509.04C960.885 508.528 959.933 508.272 958.685 508.272H956.189V506.568H958.517C959.605 506.568 960.461 506.288 961.085 505.728C961.725 505.152 962.045 504.368 962.045 503.376C962.045 502.496 961.749 501.816 961.157 501.336C960.581 500.856 959.757 500.616 958.685 500.616C956.925 500.616 955.389 501.256 954.077 502.536L953.357 501C953.981 500.328 954.773 499.808 955.733 499.44C956.709 499.056 957.733 498.864 958.805 498.864C960.437 498.864 961.709 499.248 962.621 500.016C963.549 500.784 964.013 501.848 964.013 503.208C964.013 504.152 963.773 504.984 963.293 505.704C962.813 506.408 962.149 506.92 961.301 507.24C962.309 507.512 963.093 508.016 963.653 508.752C964.213 509.472 964.493 510.368 964.493 511.44C964.493 512.896 963.981 514.056 962.957 514.92C961.949 515.784 960.565 516.216 958.805 516.216ZM970.652 505.968C969.964 505.968 969.348 505.816 968.804 505.512C968.276 505.192 967.852 504.768 967.532 504.24C967.228 503.696 967.076 503.088 967.076 502.416C967.076 501.744 967.228 501.144 967.532 500.616C967.852 500.072 968.276 499.648 968.804 499.344C969.348 499.024 969.964 498.864 970.652 498.864C971.324 498.864 971.924 499.024 972.452 499.344C972.98 499.648 973.396 500.072 973.7 500.616C974.02 501.144 974.18 501.744 974.18 502.416C974.18 503.088 974.02 503.696 973.7 504.24C973.396 504.768 972.98 505.192 972.452 505.512C971.924 505.816 971.324 505.968 970.652 505.968ZM970.652 504.648C971.276 504.648 971.788 504.44 972.188 504.024C972.588 503.592 972.788 503.056 972.788 502.416C972.788 501.76 972.588 501.224 972.188 500.808C971.788 500.392 971.276 500.184 970.652 500.184C970.012 500.184 969.492 500.392 969.092 500.808C968.692 501.224 968.492 501.76 968.492 502.416C968.492 503.056 968.692 503.592 969.092 504.024C969.492 504.44 970.012 504.648 970.652 504.648ZM983.346 516V499.08H985.314V516H983.346ZM989.222 516V504.336H991.118V506.328C991.502 505.592 992.046 505.04 992.75 504.672C993.454 504.304 994.246 504.12 995.126 504.12C997.894 504.12 999.278 505.656 999.278 508.728V516H997.334V508.848C997.334 507.76 997.118 506.968 996.686 506.472C996.27 505.96 995.598 505.704 994.67 505.704C993.598 505.704 992.742 506.04 992.102 506.712C991.478 507.368 991.166 508.248 991.166 509.352V516H989.222ZM1003.49 516V505.848H1001.18V504.336H1003.49V503.928C1003.49 502.376 1003.87 501.2 1004.64 500.4C1005.42 499.6 1006.62 499.152 1008.24 499.056L1009.18 499.008L1009.34 500.496L1008.24 500.568C1007.25 500.648 1006.53 500.944 1006.08 501.456C1005.65 501.968 1005.43 502.712 1005.43 503.688V504.336H1008.79V505.848H1005.43V516H1003.49ZM1015.38 516.216C1014.24 516.216 1013.26 515.968 1012.42 515.472C1011.59 514.976 1010.94 514.28 1010.48 513.384C1010.03 512.472 1009.81 511.4 1009.81 510.168C1009.81 508.936 1010.03 507.872 1010.48 506.976C1010.94 506.064 1011.59 505.36 1012.42 504.864C1013.26 504.368 1014.24 504.12 1015.38 504.12C1016.5 504.12 1017.47 504.368 1018.3 504.864C1019.15 505.36 1019.8 506.064 1020.25 506.976C1020.71 507.872 1020.94 508.936 1020.94 510.168C1020.94 511.4 1020.71 512.472 1020.25 513.384C1019.8 514.28 1019.15 514.976 1018.3 515.472C1017.47 515.968 1016.5 516.216 1015.38 516.216ZM1015.38 514.656C1016.46 514.656 1017.34 514.272 1017.99 513.504C1018.65 512.72 1018.98 511.608 1018.98 510.168C1018.98 508.712 1018.65 507.6 1017.99 506.832C1017.34 506.064 1016.46 505.68 1015.38 505.68C1014.27 505.68 1013.39 506.064 1012.74 506.832C1012.1 507.6 1011.78 508.712 1011.78 510.168C1011.78 511.608 1012.1 512.72 1012.74 513.504C1013.39 514.272 1014.27 514.656 1015.38 514.656ZM1023.86 516V504.336H1025.76V506.424C1026.38 505.016 1027.66 504.24 1029.6 504.096L1030.3 504.024L1030.44 505.704L1029.22 505.848C1028.11 505.944 1027.27 506.296 1026.7 506.904C1026.12 507.496 1025.83 508.312 1025.83 509.352V516H1023.86ZM1032.51 516V504.336H1034.41V506.304C1034.76 505.6 1035.25 505.064 1035.87 504.696C1036.5 504.312 1037.22 504.12 1038.06 504.12C1039.88 504.12 1041.05 504.912 1041.56 506.496C1041.91 505.76 1042.43 505.184 1043.12 504.768C1043.81 504.336 1044.6 504.12 1045.5 504.12C1048.09 504.12 1049.38 505.656 1049.38 508.728V516H1047.44V508.824C1047.44 507.752 1047.25 506.968 1046.86 506.472C1046.5 505.96 1045.88 505.704 1045.02 505.704C1044.07 505.704 1043.32 506.04 1042.76 506.712C1042.2 507.384 1041.92 508.28 1041.92 509.4V516H1039.98V508.824C1039.98 507.752 1039.78 506.968 1039.4 506.472C1039.03 505.96 1038.42 505.704 1037.55 505.704C1036.59 505.704 1035.83 506.04 1035.27 506.712C1034.73 507.384 1034.46 508.28 1034.46 509.4V516H1032.51ZM1056.69 516.216C1055.89 516.216 1055.17 516.064 1054.53 515.76C1053.91 515.44 1053.41 515.008 1053.04 514.464C1052.68 513.92 1052.49 513.312 1052.49 512.64C1052.49 511.792 1052.71 511.12 1053.14 510.624C1053.59 510.128 1054.32 509.776 1055.32 509.568C1056.35 509.344 1057.74 509.232 1059.5 509.232H1060.27V508.488C1060.27 507.496 1060.06 506.784 1059.64 506.352C1059.24 505.904 1058.6 505.68 1057.7 505.68C1057 505.68 1056.32 505.784 1055.66 505.992C1055 506.184 1054.33 506.504 1053.64 506.952L1052.97 505.536C1053.58 505.104 1054.32 504.76 1055.18 504.504C1056.06 504.248 1056.9 504.12 1057.7 504.12C1059.2 504.12 1060.32 504.488 1061.04 505.224C1061.77 505.96 1062.14 507.104 1062.14 508.656V516H1060.32V513.984C1060.01 514.672 1059.54 515.216 1058.9 515.616C1058.28 516.016 1057.54 516.216 1056.69 516.216ZM1057 514.752C1057.96 514.752 1058.75 514.424 1059.36 513.768C1059.96 513.096 1060.27 512.248 1060.27 511.224V510.504H1059.52C1058.23 510.504 1057.2 510.568 1056.45 510.696C1055.72 510.808 1055.2 511.016 1054.89 511.32C1054.6 511.608 1054.46 512.008 1054.46 512.52C1054.46 513.176 1054.68 513.712 1055.13 514.128C1055.6 514.544 1056.22 514.752 1057 514.752ZM1057.03 502.776L1059.5 497.928H1061.59L1058.42 502.776H1057.03ZM1070.43 516.216C1069.05 516.216 1068.02 515.856 1067.33 515.136C1066.64 514.4 1066.3 513.344 1066.3 511.968V505.848H1064.02V504.336H1066.3V500.76H1068.24V504.336H1071.94V505.848H1068.24V511.776C1068.24 512.688 1068.43 513.384 1068.82 513.864C1069.2 514.328 1069.83 514.56 1070.69 514.56C1070.95 514.56 1071.2 514.528 1071.46 514.464C1071.71 514.4 1071.95 514.336 1072.15 514.272L1072.49 515.76C1072.28 515.872 1071.98 515.976 1071.58 516.072C1071.18 516.168 1070.79 516.216 1070.43 516.216ZM1073.9 501.432V499.248H1076.3V501.432H1073.9ZM1074.14 516V504.336H1076.08V516H1074.14ZM1084.66 516.216C1083.49 516.216 1082.48 515.968 1081.63 515.472C1080.79 514.96 1080.13 514.248 1079.67 513.336C1079.22 512.408 1078.99 511.328 1078.99 510.096C1078.99 508.24 1079.5 506.784 1080.51 505.728C1081.51 504.656 1082.9 504.12 1084.66 504.12C1085.38 504.12 1086.09 504.248 1086.79 504.504C1087.5 504.76 1088.08 505.12 1088.55 505.584L1087.87 507C1087.41 506.552 1086.9 506.224 1086.34 506.016C1085.79 505.808 1085.27 505.704 1084.78 505.704C1083.56 505.704 1082.63 506.088 1081.97 506.856C1081.31 507.608 1080.99 508.696 1080.99 510.12C1080.99 511.512 1081.31 512.616 1081.97 513.432C1082.63 514.232 1083.56 514.632 1084.78 514.632C1085.27 514.632 1085.79 514.528 1086.34 514.32C1086.9 514.112 1087.41 513.776 1087.87 513.312L1088.55 514.728C1088.08 515.192 1087.49 515.56 1086.77 515.832C1086.07 516.088 1085.36 516.216 1084.66 516.216ZM1094.4 516.216C1093.6 516.216 1092.88 516.064 1092.24 515.76C1091.62 515.44 1091.12 515.008 1090.75 514.464C1090.39 513.92 1090.2 513.312 1090.2 512.64C1090.2 511.792 1090.42 511.12 1090.85 510.624C1091.3 510.128 1092.03 509.776 1093.03 509.568C1094.06 509.344 1095.45 509.232 1097.21 509.232H1097.98V508.488C1097.98 507.496 1097.77 506.784 1097.35 506.352C1096.95 505.904 1096.31 505.68 1095.41 505.68C1094.71 505.68 1094.03 505.784 1093.37 505.992C1092.71 506.184 1092.04 506.504 1091.35 506.952L1090.68 505.536C1091.29 505.104 1092.03 504.76 1092.89 504.504C1093.77 504.248 1094.61 504.12 1095.41 504.12C1096.91 504.12 1098.03 504.488 1098.75 505.224C1099.48 505.96 1099.85 507.104 1099.85 508.656V516H1098.03V513.984C1097.72 514.672 1097.25 515.216 1096.61 515.616C1095.99 516.016 1095.25 516.216 1094.4 516.216ZM1094.71 514.752C1095.67 514.752 1096.46 514.424 1097.07 513.768C1097.67 513.096 1097.98 512.248 1097.98 511.224V510.504H1097.23C1095.94 510.504 1094.91 510.568 1094.16 510.696C1093.43 510.808 1092.91 511.016 1092.6 511.32C1092.31 511.608 1092.17 512.008 1092.17 512.52C1092.17 513.176 1092.39 513.712 1092.84 514.128C1093.31 514.544 1093.93 514.752 1094.71 514.752ZM1109.96 516V514.512L1115.74 508.272C1116.56 507.376 1117.14 506.56 1117.49 505.824C1117.86 505.088 1118.04 504.336 1118.04 503.568C1118.04 501.6 1116.9 500.616 1114.61 500.616C1112.9 500.616 1111.39 501.256 1110.08 502.536L1109.33 501C1109.96 500.36 1110.75 499.848 1111.71 499.464C1112.68 499.064 1113.71 498.864 1114.78 498.864C1116.48 498.864 1117.77 499.264 1118.67 500.064C1119.58 500.848 1120.04 501.968 1120.04 503.424C1120.04 504.432 1119.79 505.424 1119.29 506.4C1118.8 507.36 1118.04 508.384 1117.01 509.472L1112.48 514.32H1120.73V516H1109.96ZM1129.39 516.216C1127.45 516.216 1125.98 515.472 1124.97 513.984C1123.96 512.496 1123.46 510.344 1123.46 507.528C1123.46 504.696 1123.96 502.544 1124.97 501.072C1125.98 499.6 1127.45 498.864 1129.39 498.864C1131.34 498.864 1132.81 499.6 1133.8 501.072C1134.81 502.528 1135.32 504.672 1135.32 507.504C1135.32 510.336 1134.8 512.496 1133.78 513.984C1132.77 515.472 1131.31 516.216 1129.39 516.216ZM1129.39 514.512C1130.73 514.512 1131.72 513.944 1132.36 512.808C1133.02 511.672 1133.35 509.904 1133.35 507.504C1133.35 505.104 1133.03 503.352 1132.39 502.248C1131.75 501.128 1130.75 500.568 1129.39 500.568C1128.04 500.568 1127.04 501.128 1126.39 502.248C1125.75 503.368 1125.43 505.12 1125.43 507.504C1125.43 509.904 1125.75 511.672 1126.39 512.808C1127.04 513.944 1128.04 514.512 1129.39 514.512ZM1138.74 516V514.512L1144.52 508.272C1145.34 507.376 1145.92 506.56 1146.27 505.824C1146.64 505.088 1146.83 504.336 1146.83 503.568C1146.83 501.6 1145.68 500.616 1143.39 500.616C1141.68 500.616 1140.17 501.256 1138.86 502.536L1138.11 501C1138.74 500.36 1139.53 499.848 1140.49 499.464C1141.47 499.064 1142.49 498.864 1143.56 498.864C1145.26 498.864 1146.55 499.264 1147.45 500.064C1148.36 500.848 1148.82 501.968 1148.82 503.424C1148.82 504.432 1148.57 505.424 1148.07 506.4C1147.58 507.36 1146.82 508.384 1145.79 509.472L1141.26 514.32H1149.51V516H1138.74ZM1158.17 516.216C1156.23 516.216 1154.76 515.472 1153.75 513.984C1152.74 512.496 1152.24 510.344 1152.24 507.528C1152.24 504.696 1152.74 502.544 1153.75 501.072C1154.76 499.6 1156.23 498.864 1158.17 498.864C1160.12 498.864 1161.59 499.6 1162.58 501.072C1163.59 502.528 1164.1 504.672 1164.1 507.504C1164.1 510.336 1163.58 512.496 1162.56 513.984C1161.55 515.472 1160.09 516.216 1158.17 516.216ZM1158.17 514.512C1159.51 514.512 1160.5 513.944 1161.14 512.808C1161.8 511.672 1162.13 509.904 1162.13 507.504C1162.13 505.104 1161.81 503.352 1161.17 502.248C1160.53 501.128 1159.53 500.568 1158.17 500.568C1156.82 500.568 1155.82 501.128 1155.17 502.248C1154.53 503.368 1154.21 505.12 1154.21 507.504C1154.21 509.904 1154.53 511.672 1155.17 512.808C1155.82 513.944 1156.82 514.512 1158.17 514.512ZM1173.25 510.408V508.8H1179.97V510.408H1173.25ZM1189.95 516V499.08H1191.92V516H1189.95ZM1196.09 516V499.08H1197.62L1207.82 512.688V499.08H1209.65V516H1208.16L1197.94 502.344V516H1196.09ZM1218.01 516V500.784H1211.86V499.08H1226.14V500.784H1220V516H1218.01Z" fill="black"/>
<rect x="246" y="238" width="61" height="229" fill="#27A2DB"/>
<rect x="356" y="238" width="61" height="229" fill="#FF0000"/>
<rect x="467" y="238" width="61" height="229" fill="#319303"/>
<rect x="603" y="238" width="61" height="229" fill="#27A2DB"/>
<rect x="713" y="238" width="61" height="229" fill="#FF0000"/>
<rect x="824" y="238" width="61" height="229" fill="#319303"/>
<rect x="960" y="238" width="61" height="229" fill="#27A2DB"/>
<rect x="1070" y="238" width="61" height="229" fill="#FF0000"/>
<rect x="1181" y="238" width="61" height="229" fill="#319303"/>
<path d="M23.0829 38.824L21.0669 35.584C20.5229 34.672 19.6349 34.216 18.4029 34.216C16.8349 34.216 15.4669 33.864 14.2989 33.16C13.1469 32.44 12.2509 31.432 11.6109 30.136C10.9869 28.84 10.6749 27.304 10.6749 25.528C10.6749 23.752 10.9869 22.216 11.6109 20.92C12.2349 19.624 13.1229 18.624 14.2749 17.92C15.4429 17.216 16.8189 16.864 18.4029 16.864C20.0029 16.864 21.3789 17.216 22.5309 17.92C23.6989 18.624 24.5949 19.624 25.2189 20.92C25.8589 22.2 26.1789 23.728 26.1789 25.504C26.1789 27.568 25.7549 29.312 24.9069 30.736C24.0589 32.144 22.8829 33.136 21.3789 33.712C22.0189 33.92 22.6029 34.472 23.1309 35.368L24.7389 37.96L23.0829 38.824ZM18.4029 32.464C20.2109 32.464 21.6109 31.856 22.6029 30.64C23.5949 29.424 24.0909 27.72 24.0909 25.528C24.0909 23.336 23.5949 21.64 22.6029 20.44C21.6109 19.224 20.2109 18.616 18.4029 18.616C16.6269 18.616 15.2429 19.224 14.2509 20.44C13.2589 21.64 12.7629 23.336 12.7629 25.528C12.7629 27.704 13.2589 29.408 14.2509 30.64C15.2429 31.856 16.6269 32.464 18.4029 32.464ZM33.5614 34.216C30.7614 34.216 29.3614 32.672 29.3614 29.584V22.336H31.3054V29.56C31.3054 30.6 31.5134 31.368 31.9294 31.864C32.3614 32.36 33.0334 32.608 33.9454 32.608C34.9374 32.608 35.7454 32.28 36.3694 31.624C36.9934 30.952 37.3054 30.064 37.3054 28.96V22.336H39.2494V34H37.3534V32.032C36.9854 32.736 36.4654 33.28 35.7934 33.664C35.1374 34.032 34.3934 34.216 33.5614 34.216ZM46.5585 34.216C45.7585 34.216 45.0385 34.064 44.3985 33.76C43.7745 33.44 43.2785 33.008 42.9105 32.464C42.5425 31.92 42.3585 31.312 42.3585 30.64C42.3585 29.792 42.5745 29.12 43.0065 28.624C43.4545 28.128 44.1825 27.776 45.1905 27.568C46.2145 27.344 47.6065 27.232 49.3665 27.232H50.1345V26.488C50.1345 25.496 49.9265 24.784 49.5105 24.352C49.1105 23.904 48.4625 23.68 47.5665 23.68C46.8625 23.68 46.1825 23.784 45.5265 23.992C44.8705 24.184 44.1985 24.504 43.5105 24.952L42.8385 23.536C43.4465 23.104 44.1825 22.76 45.0465 22.504C45.9265 22.248 46.7665 22.12 47.5665 22.12C49.0705 22.12 50.1825 22.488 50.9025 23.224C51.6385 23.96 52.0065 25.104 52.0065 26.656V34H50.1825V31.984C49.8785 32.672 49.4065 33.216 48.7665 33.616C48.1425 34.016 47.4065 34.216 46.5585 34.216ZM46.8705 32.752C47.8305 32.752 48.6145 32.424 49.2225 31.768C49.8305 31.096 50.1345 30.248 50.1345 29.224V28.504H49.3905C48.0945 28.504 47.0705 28.568 46.3185 28.696C45.5825 28.808 45.0625 29.016 44.7585 29.32C44.4705 29.608 44.3265 30.008 44.3265 30.52C44.3265 31.176 44.5505 31.712 44.9985 32.128C45.4625 32.544 46.0865 32.752 46.8705 32.752ZM55.6131 34V22.336H57.5091V24.328C57.8931 23.592 58.4371 23.04 59.1411 22.672C59.8451 22.304 60.6371 22.12 61.5171 22.12C64.2851 22.12 65.6691 23.656 65.6691 26.728V34H63.7251V26.848C63.7251 25.76 63.5091 24.968 63.0771 24.472C62.6611 23.96 61.9891 23.704 61.0611 23.704C59.9891 23.704 59.1331 24.04 58.4931 24.712C57.8691 25.368 57.5571 26.248 57.5571 27.352V34H55.6131ZM73.9337 34.216C72.5577 34.216 71.5257 33.856 70.8377 33.136C70.1497 32.4 69.8057 31.344 69.8057 29.968V23.848H67.5257V22.336H69.8057V18.76H71.7497V22.336H75.4457V23.848H71.7497V29.776C71.7497 30.688 71.9417 31.384 72.3257 31.864C72.7097 32.328 73.3337 32.56 74.1977 32.56C74.4537 32.56 74.7097 32.528 74.9657 32.464C75.2217 32.4 75.4537 32.336 75.6617 32.272L75.9977 33.76C75.7897 33.872 75.4857 33.976 75.0857 34.072C74.6857 34.168 74.3017 34.216 73.9337 34.216ZM77.4043 19.432V17.248H79.8043V19.432H77.4043ZM77.6443 34V22.336H79.5883V34H77.6443ZM87.6624 34.216C86.6224 34.216 85.7104 33.968 84.9264 33.472C84.1584 32.976 83.5584 32.28 83.1264 31.384C82.7104 30.472 82.5024 29.4 82.5024 28.168C82.5024 26.92 82.7104 25.848 83.1264 24.952C83.5584 24.04 84.1584 23.344 84.9264 22.864C85.7104 22.368 86.6224 22.12 87.6624 22.12C88.5744 22.12 89.3744 22.32 90.0624 22.72C90.7664 23.12 91.2864 23.672 91.6224 24.376V17.08H93.5664V34H91.6704V31.864C91.3344 32.6 90.8144 33.176 90.1104 33.592C89.4064 34.008 88.5904 34.216 87.6624 34.216ZM88.0704 32.656C89.1584 32.656 90.0304 32.272 90.6864 31.504C91.3424 30.72 91.6704 29.608 91.6704 28.168C91.6704 26.712 91.3424 25.6 90.6864 24.832C90.0304 24.064 89.1584 23.68 88.0704 23.68C86.9664 23.68 86.0864 24.064 85.4304 24.832C84.7904 25.6 84.4704 26.712 84.4704 28.168C84.4704 29.608 84.7904 30.72 85.4304 31.504C86.0864 32.272 86.9664 32.656 88.0704 32.656ZM100.887 34.216C100.087 34.216 99.3666 34.064 98.7266 33.76C98.1026 33.44 97.6066 33.008 97.2386 32.464C96.8706 31.92 96.6866 31.312 96.6866 30.64C96.6866 29.792 96.9026 29.12 97.3346 28.624C97.7826 28.128 98.5106 27.776 99.5186 27.568C100.543 27.344 101.935 27.232 103.695 27.232H104.463V26.488C104.463 25.496 104.255 24.784 103.839 24.352C103.439 23.904 102.791 23.68 101.895 23.68C101.191 23.68 100.511 23.784 99.8546 23.992C99.1986 24.184 98.5266 24.504 97.8386 24.952L97.1666 23.536C97.7746 23.104 98.5106 22.76 99.3746 22.504C100.255 22.248 101.095 22.12 101.895 22.12C103.399 22.12 104.511 22.488 105.231 23.224C105.967 23.96 106.335 25.104 106.335 26.656V34H104.511V31.984C104.207 32.672 103.735 33.216 103.095 33.616C102.471 34.016 101.735 34.216 100.887 34.216ZM101.199 32.752C102.159 32.752 102.943 32.424 103.551 31.768C104.159 31.096 104.463 30.248 104.463 29.224V28.504H103.719C102.423 28.504 101.399 28.568 100.647 28.696C99.9106 28.808 99.3906 29.016 99.0866 29.32C98.7986 29.608 98.6546 30.008 98.6546 30.52C98.6546 31.176 98.8786 31.712 99.3266 32.128C99.7906 32.544 100.415 32.752 101.199 32.752ZM114.381 34.216C113.341 34.216 112.429 33.968 111.645 33.472C110.877 32.976 110.277 32.28 109.845 31.384C109.429 30.472 109.221 29.4 109.221 28.168C109.221 26.92 109.429 25.848 109.845 24.952C110.277 24.04 110.877 23.344 111.645 22.864C112.429 22.368 113.341 22.12 114.381 22.12C115.293 22.12 116.093 22.32 116.781 22.72C117.485 23.12 118.005 23.672 118.341 24.376V17.08H120.285V34H118.389V31.864C118.053 32.6 117.533 33.176 116.829 33.592C116.125 34.008 115.309 34.216 114.381 34.216ZM114.789 32.656C115.877 32.656 116.749 32.272 117.405 31.504C118.061 30.72 118.389 29.608 118.389 28.168C118.389 26.712 118.061 25.6 117.405 24.832C116.749 24.064 115.877 23.68 114.789 23.68C113.685 23.68 112.805 24.064 112.149 24.832C111.509 25.6 111.189 26.712 111.189 28.168C111.189 29.608 111.509 30.72 112.149 31.504C112.805 32.272 113.685 32.656 114.789 32.656ZM129.189 34.216C127.349 34.216 125.893 33.68 124.821 32.608C123.749 31.52 123.213 30.048 123.213 28.192C123.213 26.992 123.453 25.936 123.933 25.024C124.413 24.096 125.069 23.384 125.901 22.888C126.749 22.376 127.725 22.12 128.829 22.12C130.413 22.12 131.653 22.632 132.549 23.656C133.445 24.664 133.893 26.056 133.893 27.832V28.576H125.109C125.173 29.904 125.557 30.92 126.261 31.624C126.965 32.312 127.941 32.656 129.189 32.656C129.893 32.656 130.565 32.552 131.205 32.344C131.845 32.12 132.453 31.76 133.029 31.264L133.701 32.632C133.173 33.128 132.501 33.52 131.685 33.808C130.869 34.08 130.037 34.216 129.189 34.216ZM128.877 23.56C127.773 23.56 126.901 23.904 126.261 24.592C125.621 25.28 125.245 26.184 125.133 27.304H132.213C132.165 26.12 131.853 25.2 131.277 24.544C130.717 23.888 129.917 23.56 128.877 23.56ZM147.311 34.216C146.271 34.216 145.359 33.968 144.575 33.472C143.807 32.976 143.207 32.28 142.775 31.384C142.359 30.472 142.151 29.4 142.151 28.168C142.151 26.92 142.359 25.848 142.775 24.952C143.207 24.04 143.807 23.344 144.575 22.864C145.359 22.368 146.271 22.12 147.311 22.12C148.223 22.12 149.023 22.32 149.711 22.72C150.415 23.12 150.935 23.672 151.271 24.376V17.08H153.215V34H151.319V31.864C150.983 32.6 150.463 33.176 149.759 33.592C149.055 34.008 148.239 34.216 147.311 34.216ZM147.719 32.656C148.807 32.656 149.679 32.272 150.335 31.504C150.991 30.72 151.319 29.608 151.319 28.168C151.319 26.712 150.991 25.6 150.335 24.832C149.679 24.064 148.807 23.68 147.719 23.68C146.615 23.68 145.735 24.064 145.079 24.832C144.439 25.6 144.119 26.712 144.119 28.168C144.119 29.608 144.439 30.72 145.079 31.504C145.735 32.272 146.615 32.656 147.719 32.656ZM162.119 34.216C160.279 34.216 158.823 33.68 157.751 32.608C156.679 31.52 156.143 30.048 156.143 28.192C156.143 26.992 156.383 25.936 156.863 25.024C157.343 24.096 157.999 23.384 158.831 22.888C159.679 22.376 160.655 22.12 161.759 22.12C163.343 22.12 164.583 22.632 165.479 23.656C166.375 24.664 166.823 26.056 166.823 27.832V28.576H158.039C158.103 29.904 158.487 30.92 159.191 31.624C159.895 32.312 160.871 32.656 162.119 32.656C162.823 32.656 163.495 32.552 164.135 32.344C164.775 32.12 165.383 31.76 165.959 31.264L166.631 32.632C166.103 33.128 165.431 33.52 164.615 33.808C163.799 34.08 162.967 34.216 162.119 34.216ZM161.807 23.56C160.703 23.56 159.831 23.904 159.191 24.592C158.551 25.28 158.175 26.184 158.063 27.304H165.143C165.095 26.12 164.783 25.2 164.207 24.544C163.647 23.888 162.847 23.56 161.807 23.56ZM179.473 34.216C178.673 34.216 177.953 34.064 177.313 33.76C176.689 33.44 176.193 33.008 175.825 32.464C175.457 31.92 175.273 31.312 175.273 30.64C175.273 29.792 175.489 29.12 175.921 28.624C176.369 28.128 177.097 27.776 178.105 27.568C179.129 27.344 180.521 27.232 182.281 27.232H183.049V26.488C183.049 25.496 182.841 24.784 182.425 24.352C182.025 23.904 181.377 23.68 180.481 23.68C179.777 23.68 179.097 23.784 178.441 23.992C177.785 24.184 177.113 24.504 176.425 24.952L175.753 23.536C176.361 23.104 177.097 22.76 177.961 22.504C178.841 22.248 179.681 22.12 180.481 22.12C181.985 22.12 183.097 22.488 183.817 23.224C184.553 23.96 184.921 25.104 184.921 26.656V34H183.097V31.984C182.793 32.672 182.321 33.216 181.681 33.616C181.057 34.016 180.321 34.216 179.473 34.216ZM179.785 32.752C180.745 32.752 181.529 32.424 182.137 31.768C182.745 31.096 183.049 30.248 183.049 29.224V28.504H182.305C181.009 28.504 179.985 28.568 179.233 28.696C178.497 28.808 177.977 29.016 177.673 29.32C177.385 29.608 177.241 30.008 177.241 30.52C177.241 31.176 177.465 31.712 177.913 32.128C178.377 32.544 179.001 32.752 179.785 32.752ZM192.103 34.216C190.919 34.216 190.023 33.872 189.415 33.184C188.823 32.48 188.527 31.464 188.527 30.136V17.08H190.471V29.992C190.471 31.704 191.151 32.56 192.511 32.56C192.911 32.56 193.271 32.512 193.591 32.416L193.543 34.048C193.047 34.16 192.567 34.216 192.103 34.216ZM199.757 34.216C196.957 34.216 195.557 32.672 195.557 29.584V22.336H197.501V29.56C197.501 30.6 197.709 31.368 198.125 31.864C198.557 32.36 199.229 32.608 200.141 32.608C201.133 32.608 201.941 32.28 202.565 31.624C203.189 30.952 203.501 30.064 203.501 28.96V22.336H205.445V34H203.549V32.032C203.181 32.736 202.661 33.28 201.989 33.664C201.333 34.032 200.589 34.216 199.757 34.216ZM209.082 34V22.336H210.978V24.328C211.362 23.592 211.906 23.04 212.61 22.672C213.314 22.304 214.106 22.12 214.986 22.12C217.754 22.12 219.138 23.656 219.138 26.728V34H217.194V26.848C217.194 25.76 216.978 24.968 216.546 24.472C216.13 23.96 215.458 23.704 214.53 23.704C213.458 23.704 212.602 24.04 211.962 24.712C211.338 25.368 211.026 26.248 211.026 27.352V34H209.082ZM227.57 34.216C226.434 34.216 225.45 33.968 224.618 33.472C223.786 32.976 223.138 32.28 222.674 31.384C222.226 30.472 222.002 29.4 222.002 28.168C222.002 26.936 222.226 25.872 222.674 24.976C223.138 24.064 223.786 23.36 224.618 22.864C225.45 22.368 226.434 22.12 227.57 22.12C228.69 22.12 229.666 22.368 230.498 22.864C231.346 23.36 231.994 24.064 232.442 24.976C232.906 25.872 233.138 26.936 233.138 28.168C233.138 29.4 232.906 30.472 232.442 31.384C231.994 32.28 231.346 32.976 230.498 33.472C229.666 33.968 228.69 34.216 227.57 34.216ZM227.57 32.656C228.658 32.656 229.53 32.272 230.186 31.504C230.842 30.72 231.17 29.608 231.17 28.168C231.17 26.712 230.842 25.6 230.186 24.832C229.53 24.064 228.658 23.68 227.57 23.68C226.466 23.68 225.586 24.064 224.93 24.832C224.29 25.6 223.97 26.712 223.97 28.168C223.97 29.608 224.29 30.72 224.93 31.504C225.586 32.272 226.466 32.656 227.57 32.656ZM239.994 34.216C239.082 34.216 238.218 34.088 237.402 33.832C236.586 33.576 235.914 33.216 235.386 32.752L236.01 31.384C236.586 31.848 237.218 32.192 237.906 32.416C238.61 32.624 239.322 32.728 240.042 32.728C240.954 32.728 241.642 32.56 242.106 32.224C242.57 31.888 242.802 31.432 242.802 30.856C242.802 30.408 242.65 30.056 242.346 29.8C242.042 29.528 241.562 29.32 240.906 29.176L238.722 28.696C236.738 28.264 235.746 27.24 235.746 25.624C235.746 24.568 236.162 23.72 236.994 23.08C237.842 22.44 238.946 22.12 240.306 22.12C241.106 22.12 241.866 22.248 242.586 22.504C243.322 22.744 243.93 23.104 244.41 23.584L243.762 24.952C243.298 24.52 242.754 24.192 242.13 23.968C241.522 23.728 240.914 23.608 240.306 23.608C239.41 23.608 238.73 23.784 238.266 24.136C237.802 24.488 237.57 24.952 237.57 25.528C237.57 26.424 238.162 27 239.346 27.256L241.53 27.712C242.554 27.936 243.33 28.296 243.858 28.792C244.386 29.272 244.65 29.928 244.65 30.76C244.65 31.832 244.226 32.68 243.378 33.304C242.53 33.912 241.402 34.216 239.994 34.216Z" fill="black"/>
<path d="M1317.44 476V460.784H1311.3V459.08H1325.58V460.784H1319.44V476H1317.44ZM1329.86 476.216C1327.06 476.216 1325.66 474.672 1325.66 471.584V464.336H1327.6V471.56C1327.6 472.6 1327.81 473.368 1328.23 473.864C1328.66 474.36 1329.33 474.608 1330.24 474.608C1331.23 474.608 1332.04 474.28 1332.67 473.624C1333.29 472.952 1333.6 472.064 1333.6 470.96V464.336H1335.55V476H1333.65V474.032C1333.28 474.736 1332.76 475.28 1332.09 475.664C1331.43 476.032 1330.69 476.216 1329.86 476.216ZM1339.18 476V464.336H1341.08V466.424C1341.7 465.016 1342.98 464.24 1344.92 464.096L1345.62 464.024L1345.76 465.704L1344.54 465.848C1343.43 465.944 1342.59 466.296 1342.02 466.904C1341.44 467.496 1341.15 468.312 1341.15 469.352V476H1339.18ZM1347.83 476V464.336H1349.73V466.304C1350.08 465.6 1350.57 465.064 1351.19 464.696C1351.82 464.312 1352.54 464.12 1353.38 464.12C1355.2 464.12 1356.37 464.912 1356.88 466.496C1357.23 465.76 1357.75 465.184 1358.44 464.768C1359.13 464.336 1359.92 464.12 1360.82 464.12C1363.41 464.12 1364.7 465.656 1364.7 468.728V476H1362.76V468.824C1362.76 467.752 1362.57 466.968 1362.18 466.472C1361.82 465.96 1361.2 465.704 1360.34 465.704C1359.39 465.704 1358.64 466.04 1358.08 466.712C1357.52 467.384 1357.24 468.28 1357.24 469.4V476H1355.3V468.824C1355.3 467.752 1355.1 466.968 1354.72 466.472C1354.35 465.96 1353.74 465.704 1352.87 465.704C1351.91 465.704 1351.15 466.04 1350.59 466.712C1350.05 467.384 1349.78 468.28 1349.78 469.4V476H1347.83ZM1372.01 476.216C1371.21 476.216 1370.49 476.064 1369.85 475.76C1369.23 475.44 1368.73 475.008 1368.36 474.464C1368 473.92 1367.81 473.312 1367.81 472.64C1367.81 471.792 1368.03 471.12 1368.46 470.624C1368.91 470.128 1369.64 469.776 1370.64 469.568C1371.67 469.344 1373.06 469.232 1374.82 469.232H1375.59V468.488C1375.59 467.496 1375.38 466.784 1374.96 466.352C1374.56 465.904 1373.92 465.68 1373.02 465.68C1372.32 465.68 1371.64 465.784 1370.98 465.992C1370.32 466.184 1369.65 466.504 1368.96 466.952L1368.29 465.536C1368.9 465.104 1369.64 464.76 1370.5 464.504C1371.38 464.248 1372.22 464.12 1373.02 464.12C1374.52 464.12 1375.64 464.488 1376.36 465.224C1377.09 465.96 1377.46 467.104 1377.46 468.656V476H1375.64V473.984C1375.33 474.672 1374.86 475.216 1374.22 475.616C1373.6 476.016 1372.86 476.216 1372.01 476.216ZM1372.32 474.752C1373.28 474.752 1374.07 474.424 1374.68 473.768C1375.28 473.096 1375.59 472.248 1375.59 471.224V470.504H1374.84C1373.55 470.504 1372.52 470.568 1371.77 470.696C1371.04 470.808 1370.52 471.016 1370.21 471.32C1369.92 471.608 1369.78 472.008 1369.78 472.52C1369.78 473.176 1370 473.712 1370.45 474.128C1370.92 474.544 1371.54 474.752 1372.32 474.752ZM1385 476.216C1384.09 476.216 1383.23 476.088 1382.41 475.832C1381.59 475.576 1380.92 475.216 1380.39 474.752L1381.02 473.384C1381.59 473.848 1382.23 474.192 1382.91 474.416C1383.62 474.624 1384.33 474.728 1385.05 474.728C1385.96 474.728 1386.65 474.56 1387.11 474.224C1387.58 473.888 1387.81 473.432 1387.81 472.856C1387.81 472.408 1387.66 472.056 1387.35 471.8C1387.05 471.528 1386.57 471.32 1385.91 471.176L1383.73 470.696C1381.75 470.264 1380.75 469.24 1380.75 467.624C1380.75 466.568 1381.17 465.72 1382 465.08C1382.85 464.44 1383.95 464.12 1385.31 464.12C1386.11 464.12 1386.87 464.248 1387.59 464.504C1388.33 464.744 1388.94 465.104 1389.42 465.584L1388.77 466.952C1388.31 466.52 1387.76 466.192 1387.14 465.968C1386.53 465.728 1385.92 465.608 1385.31 465.608C1384.42 465.608 1383.74 465.784 1383.27 466.136C1382.81 466.488 1382.58 466.952 1382.58 467.528C1382.58 468.424 1383.17 469 1384.35 469.256L1386.54 469.712C1387.56 469.936 1388.34 470.296 1388.87 470.792C1389.39 471.272 1389.66 471.928 1389.66 472.76C1389.66 473.832 1389.23 474.68 1388.39 475.304C1387.54 475.912 1386.41 476.216 1385 476.216Z" fill="black"/>
</g>
<defs>
<clipPath id="clip0">
<rect width="1391" height="544" fill="white"/>
</clipPath>
</defs>
</svg>
