<svg width="492" height="219" viewBox="0 0 492 219" fill="none" xmlns="http://www.w3.org/2000/svg">
<path d="M58.4161 37V20.08H60.3841V35.272H69.0001V37H58.4161ZM76.3222 37.216C74.4822 37.216 73.0262 36.68 71.9542 35.608C70.8822 34.52 70.3462 33.048 70.3462 31.192C70.3462 29.992 70.5862 28.936 71.0662 28.024C71.5462 27.096 72.2022 26.384 73.0342 25.888C73.8822 25.376 74.8582 25.12 75.9622 25.12C77.5462 25.12 78.7862 25.632 79.6822 26.656C80.5782 27.664 81.0262 29.056 81.0262 30.832V31.576H72.2422C72.3062 32.904 72.6902 33.92 73.3942 34.624C74.0982 35.312 75.0742 35.656 76.3222 35.656C77.0262 35.656 77.6982 35.552 78.3382 35.344C78.9782 35.12 79.5862 34.76 80.1622 34.264L80.8342 35.632C80.3062 36.128 79.6342 36.52 78.8182 36.808C78.0022 37.08 77.1702 37.216 76.3222 37.216ZM76.0102 26.56C74.9062 26.56 74.0342 26.904 73.3942 27.592C72.7542 28.28 72.3782 29.184 72.2662 30.304H79.3462C79.2982 29.12 78.9862 28.2 78.4102 27.544C77.8502 26.888 77.0502 26.56 76.0102 26.56ZM88.9996 41.536C87.9916 41.536 87.0396 41.4 86.1436 41.128C85.2636 40.872 84.4796 40.48 83.7916 39.952L84.4396 38.536C85.1596 39.048 85.8716 39.416 86.5756 39.64C87.2956 39.864 88.0716 39.976 88.9036 39.976C91.2076 39.976 92.3596 38.792 92.3596 36.424V34.36C92.0236 35.096 91.4956 35.68 90.7756 36.112C90.0716 36.528 89.2636 36.736 88.3516 36.736C87.2796 36.736 86.3516 36.488 85.5676 35.992C84.7836 35.496 84.1756 34.816 83.7436 33.952C83.3276 33.072 83.1196 32.056 83.1196 30.904C83.1196 29.752 83.3276 28.744 83.7436 27.88C84.1756 27 84.7836 26.32 85.5676 25.84C86.3516 25.36 87.2796 25.12 88.3516 25.12C89.2636 25.12 90.0716 25.328 90.7756 25.744C91.4956 26.16 92.0236 26.728 92.3596 27.448V25.336H94.2556V36.16C94.2556 37.952 93.8076 39.296 92.9116 40.192C92.0316 41.088 90.7276 41.536 88.9996 41.536ZM88.7116 35.152C89.8316 35.152 90.7196 34.768 91.3756 34C92.0316 33.232 92.3596 32.2 92.3596 30.904C92.3596 29.608 92.0316 28.584 91.3756 27.832C90.7196 27.064 89.8316 26.68 88.7116 26.68C87.6076 26.68 86.7276 27.064 86.0716 27.832C85.4156 28.584 85.0876 29.608 85.0876 30.904C85.0876 32.2 85.4156 33.232 86.0716 34C86.7276 34.768 87.6076 35.152 88.7116 35.152ZM103.158 37.216C101.318 37.216 99.8621 36.68 98.7901 35.608C97.7181 34.52 97.1821 33.048 97.1821 31.192C97.1821 29.992 97.4221 28.936 97.9021 28.024C98.3821 27.096 99.0381 26.384 99.8701 25.888C100.718 25.376 101.694 25.12 102.798 25.12C104.382 25.12 105.622 25.632 106.518 26.656C107.414 27.664 107.862 29.056 107.862 30.832V31.576H99.0781C99.1421 32.904 99.5261 33.92 100.23 34.624C100.934 35.312 101.91 35.656 103.158 35.656C103.862 35.656 104.534 35.552 105.174 35.344C105.814 35.12 106.422 34.76 106.998 34.264L107.67 35.632C107.142 36.128 106.47 36.52 105.654 36.808C104.838 37.08 104.006 37.216 103.158 37.216ZM102.846 26.56C101.742 26.56 100.87 26.904 100.23 27.592C99.5901 28.28 99.2141 29.184 99.1021 30.304H106.182C106.134 29.12 105.822 28.2 105.246 27.544C104.686 26.888 103.886 26.56 102.846 26.56ZM110.676 37V25.336H112.572V27.328C112.956 26.592 113.5 26.04 114.204 25.672C114.908 25.304 115.7 25.12 116.58 25.12C119.348 25.12 120.732 26.656 120.732 29.728V37H118.788V29.848C118.788 28.76 118.572 27.968 118.14 27.472C117.724 26.96 117.052 26.704 116.124 26.704C115.052 26.704 114.196 27.04 113.556 27.712C112.932 28.368 112.62 29.248 112.62 30.352V37H110.676ZM128.756 37.216C127.716 37.216 126.804 36.968 126.02 36.472C125.252 35.976 124.652 35.28 124.22 34.384C123.804 33.472 123.596 32.4 123.596 31.168C123.596 29.92 123.804 28.848 124.22 27.952C124.652 27.04 125.252 26.344 126.02 25.864C126.804 25.368 127.716 25.12 128.756 25.12C129.668 25.12 130.468 25.32 131.156 25.72C131.86 26.12 132.38 26.672 132.716 27.376V20.08H134.66V37H132.764V34.864C132.428 35.6 131.908 36.176 131.204 36.592C130.5 37.008 129.684 37.216 128.756 37.216ZM129.164 35.656C130.252 35.656 131.124 35.272 131.78 34.504C132.436 33.72 132.764 32.608 132.764 31.168C132.764 29.712 132.436 28.6 131.78 27.832C131.124 27.064 130.252 26.68 129.164 26.68C128.06 26.68 127.18 27.064 126.524 27.832C125.884 28.6 125.564 29.712 125.564 31.168C125.564 32.608 125.884 33.72 126.524 34.504C127.18 35.272 128.06 35.656 129.164 35.656ZM141.98 37.216C141.18 37.216 140.46 37.064 139.82 36.76C139.196 36.44 138.7 36.008 138.332 35.464C137.964 34.92 137.78 34.312 137.78 33.64C137.78 32.792 137.996 32.12 138.428 31.624C138.876 31.128 139.604 30.776 140.612 30.568C141.636 30.344 143.028 30.232 144.788 30.232H145.556V29.488C145.556 28.496 145.348 27.784 144.932 27.352C144.532 26.904 143.884 26.68 142.988 26.68C142.284 26.68 141.604 26.784 140.948 26.992C140.292 27.184 139.62 27.504 138.932 27.952L138.26 26.536C138.868 26.104 139.604 25.76 140.468 25.504C141.348 25.248 142.188 25.12 142.988 25.12C144.492 25.12 145.604 25.488 146.324 26.224C147.06 26.96 147.428 28.104 147.428 29.656V37H145.604V34.984C145.3 35.672 144.828 36.216 144.188 36.616C143.564 37.016 142.828 37.216 141.98 37.216ZM142.292 35.752C143.252 35.752 144.036 35.424 144.644 34.768C145.252 34.096 145.556 33.248 145.556 32.224V31.504H144.812C143.516 31.504 142.492 31.568 141.74 31.696C141.004 31.808 140.484 32.016 140.18 32.32C139.892 32.608 139.748 33.008 139.748 33.52C139.748 34.176 139.972 34.712 140.42 35.128C140.884 35.544 141.508 35.752 142.292 35.752ZM150.723 27.784V25.336H153.171V27.784H150.723ZM150.723 37V34.552H153.171V37H150.723Z" fill="black"/>
<rect x="63" y="64" width="43" height="34" fill="#27A2DB"/>
<rect x="63" y="116" width="43" height="34" fill="#FF0000"/>
<rect x="63" y="168" width="43" height="34" fill="#319303"/>
<path d="M193.298 93.824L191.282 90.584C190.738 89.672 189.85 89.216 188.618 89.216C187.05 89.216 185.682 88.864 184.514 88.16C183.362 87.44 182.466 86.432 181.826 85.136C181.202 83.84 180.89 82.304 180.89 80.528C180.89 78.752 181.202 77.216 181.826 75.92C182.45 74.624 183.338 73.624 184.49 72.92C185.658 72.216 187.034 71.864 188.618 71.864C190.218 71.864 191.594 72.216 192.746 72.92C193.914 73.624 194.81 74.624 195.434 75.92C196.074 77.2 196.394 78.728 196.394 80.504C196.394 82.568 195.97 84.312 195.122 85.736C194.274 87.144 193.098 88.136 191.594 88.712C192.234 88.92 192.818 89.472 193.346 90.368L194.954 92.96L193.298 93.824ZM188.618 87.464C190.426 87.464 191.826 86.856 192.818 85.64C193.81 84.424 194.306 82.72 194.306 80.528C194.306 78.336 193.81 76.64 192.818 75.44C191.826 74.224 190.426 73.616 188.618 73.616C186.842 73.616 185.458 74.224 184.466 75.44C183.474 76.64 182.978 78.336 182.978 80.528C182.978 82.704 183.474 84.408 184.466 85.64C185.458 86.856 186.842 87.464 188.618 87.464ZM203.776 89.216C200.976 89.216 199.576 87.672 199.576 84.584V77.336H201.52V84.56C201.52 85.6 201.728 86.368 202.144 86.864C202.576 87.36 203.248 87.608 204.16 87.608C205.152 87.608 205.96 87.28 206.584 86.624C207.208 85.952 207.52 85.064 207.52 83.96V77.336H209.464V89H207.568V87.032C207.2 87.736 206.68 88.28 206.008 88.664C205.352 89.032 204.608 89.216 203.776 89.216ZM216.773 89.216C215.973 89.216 215.253 89.064 214.613 88.76C213.989 88.44 213.493 88.008 213.125 87.464C212.757 86.92 212.573 86.312 212.573 85.64C212.573 84.792 212.789 84.12 213.221 83.624C213.669 83.128 214.397 82.776 215.405 82.568C216.429 82.344 217.821 82.232 219.581 82.232H220.349V81.488C220.349 80.496 220.141 79.784 219.725 79.352C219.325 78.904 218.677 78.68 217.781 78.68C217.077 78.68 216.397 78.784 215.741 78.992C215.085 79.184 214.413 79.504 213.725 79.952L213.053 78.536C213.661 78.104 214.397 77.76 215.261 77.504C216.141 77.248 216.981 77.12 217.781 77.12C219.285 77.12 220.397 77.488 221.117 78.224C221.853 78.96 222.221 80.104 222.221 81.656V89H220.397V86.984C220.093 87.672 219.621 88.216 218.981 88.616C218.357 89.016 217.621 89.216 216.773 89.216ZM217.085 87.752C218.045 87.752 218.829 87.424 219.437 86.768C220.045 86.096 220.349 85.248 220.349 84.224V83.504H219.605C218.309 83.504 217.285 83.568 216.533 83.696C215.797 83.808 215.277 84.016 214.973 84.32C214.685 84.608 214.541 85.008 214.541 85.52C214.541 86.176 214.765 86.712 215.213 87.128C215.677 87.544 216.301 87.752 217.085 87.752ZM225.828 89V77.336H227.724V79.328C228.108 78.592 228.652 78.04 229.356 77.672C230.06 77.304 230.852 77.12 231.732 77.12C234.5 77.12 235.884 78.656 235.884 81.728V89H233.94V81.848C233.94 80.76 233.724 79.968 233.292 79.472C232.876 78.96 232.204 78.704 231.276 78.704C230.204 78.704 229.348 79.04 228.708 79.712C228.084 80.368 227.772 81.248 227.772 82.352V89H225.828ZM244.149 89.216C242.773 89.216 241.741 88.856 241.053 88.136C240.365 87.4 240.021 86.344 240.021 84.968V78.848H237.741V77.336H240.021V73.76H241.965V77.336H245.661V78.848H241.965V84.776C241.965 85.688 242.157 86.384 242.541 86.864C242.925 87.328 243.549 87.56 244.413 87.56C244.669 87.56 244.925 87.528 245.181 87.464C245.437 87.4 245.669 87.336 245.877 87.272L246.213 88.76C246.005 88.872 245.701 88.976 245.301 89.072C244.901 89.168 244.517 89.216 244.149 89.216ZM247.619 74.432V72.248H250.019V74.432H247.619ZM247.859 89V77.336H249.803V89H247.859ZM257.877 89.216C256.837 89.216 255.925 88.968 255.141 88.472C254.373 87.976 253.773 87.28 253.341 86.384C252.925 85.472 252.717 84.4 252.717 83.168C252.717 81.92 252.925 80.848 253.341 79.952C253.773 79.04 254.373 78.344 255.141 77.864C255.925 77.368 256.837 77.12 257.877 77.12C258.789 77.12 259.589 77.32 260.277 77.72C260.981 78.12 261.501 78.672 261.837 79.376V72.08H263.781V89H261.885V86.864C261.549 87.6 261.029 88.176 260.325 88.592C259.621 89.008 258.805 89.216 257.877 89.216ZM258.285 87.656C259.373 87.656 260.245 87.272 260.901 86.504C261.557 85.72 261.885 84.608 261.885 83.168C261.885 81.712 261.557 80.6 260.901 79.832C260.245 79.064 259.373 78.68 258.285 78.68C257.181 78.68 256.301 79.064 255.645 79.832C255.005 80.6 254.685 81.712 254.685 83.168C254.685 84.608 255.005 85.72 255.645 86.504C256.301 87.272 257.181 87.656 258.285 87.656ZM271.101 89.216C270.301 89.216 269.581 89.064 268.941 88.76C268.317 88.44 267.821 88.008 267.453 87.464C267.085 86.92 266.901 86.312 266.901 85.64C266.901 84.792 267.117 84.12 267.549 83.624C267.997 83.128 268.725 82.776 269.733 82.568C270.757 82.344 272.149 82.232 273.909 82.232H274.677V81.488C274.677 80.496 274.469 79.784 274.053 79.352C273.653 78.904 273.005 78.68 272.109 78.68C271.405 78.68 270.725 78.784 270.069 78.992C269.413 79.184 268.741 79.504 268.053 79.952L267.381 78.536C267.989 78.104 268.725 77.76 269.589 77.504C270.469 77.248 271.309 77.12 272.109 77.12C273.613 77.12 274.725 77.488 275.445 78.224C276.181 78.96 276.549 80.104 276.549 81.656V89H274.725V86.984C274.421 87.672 273.949 88.216 273.309 88.616C272.685 89.016 271.949 89.216 271.101 89.216ZM271.413 87.752C272.373 87.752 273.157 87.424 273.765 86.768C274.373 86.096 274.677 85.248 274.677 84.224V83.504H273.933C272.637 83.504 271.613 83.568 270.861 83.696C270.125 83.808 269.605 84.016 269.301 84.32C269.013 84.608 268.869 85.008 268.869 85.52C268.869 86.176 269.093 86.712 269.541 87.128C270.005 87.544 270.629 87.752 271.413 87.752ZM284.596 89.216C283.556 89.216 282.644 88.968 281.86 88.472C281.092 87.976 280.492 87.28 280.06 86.384C279.644 85.472 279.436 84.4 279.436 83.168C279.436 81.92 279.644 80.848 280.06 79.952C280.492 79.04 281.092 78.344 281.86 77.864C282.644 77.368 283.556 77.12 284.596 77.12C285.508 77.12 286.308 77.32 286.996 77.72C287.7 78.12 288.22 78.672 288.556 79.376V72.08H290.5V89H288.604V86.864C288.268 87.6 287.748 88.176 287.044 88.592C286.34 89.008 285.524 89.216 284.596 89.216ZM285.004 87.656C286.092 87.656 286.964 87.272 287.62 86.504C288.276 85.72 288.604 84.608 288.604 83.168C288.604 81.712 288.276 80.6 287.62 79.832C286.964 79.064 286.092 78.68 285.004 78.68C283.9 78.68 283.02 79.064 282.364 79.832C281.724 80.6 281.404 81.712 281.404 83.168C281.404 84.608 281.724 85.72 282.364 86.504C283.02 87.272 283.9 87.656 285.004 87.656ZM299.404 89.216C297.564 89.216 296.108 88.68 295.036 87.608C293.964 86.52 293.428 85.048 293.428 83.192C293.428 81.992 293.668 80.936 294.148 80.024C294.628 79.096 295.284 78.384 296.116 77.888C296.964 77.376 297.94 77.12 299.044 77.12C300.628 77.12 301.868 77.632 302.764 78.656C303.66 79.664 304.108 81.056 304.108 82.832V83.576H295.324C295.388 84.904 295.772 85.92 296.476 86.624C297.18 87.312 298.156 87.656 299.404 87.656C300.108 87.656 300.78 87.552 301.42 87.344C302.06 87.12 302.668 86.76 303.244 86.264L303.916 87.632C303.388 88.128 302.716 88.52 301.9 88.808C301.084 89.08 300.252 89.216 299.404 89.216ZM299.092 78.56C297.988 78.56 297.116 78.904 296.476 79.592C295.836 80.28 295.46 81.184 295.348 82.304H302.428C302.38 81.12 302.068 80.2 301.492 79.544C300.932 78.888 300.132 78.56 299.092 78.56ZM312.846 74.432V72.248H315.246V74.432H312.846ZM313.086 89V77.336H315.03V89H313.086ZM318.664 89V77.336H320.56V79.328C320.944 78.592 321.488 78.04 322.192 77.672C322.896 77.304 323.688 77.12 324.568 77.12C327.336 77.12 328.72 78.656 328.72 81.728V89H326.776V81.848C326.776 80.76 326.56 79.968 326.128 79.472C325.712 78.96 325.04 78.704 324.112 78.704C323.04 78.704 322.184 79.04 321.544 79.712C320.92 80.368 320.608 81.248 320.608 82.352V89H318.664ZM332.064 74.432V72.248H334.464V74.432H332.064ZM332.304 89V77.336H334.248V89H332.304ZM342.827 89.216C341.659 89.216 340.651 88.968 339.803 88.472C338.955 87.96 338.299 87.248 337.835 86.336C337.387 85.408 337.163 84.328 337.163 83.096C337.163 81.24 337.667 79.784 338.675 78.728C339.683 77.656 341.067 77.12 342.827 77.12C343.547 77.12 344.259 77.248 344.963 77.504C345.667 77.76 346.251 78.12 346.715 78.584L346.043 80C345.579 79.552 345.067 79.224 344.507 79.016C343.963 78.808 343.443 78.704 342.947 78.704C341.731 78.704 340.795 79.088 340.139 79.856C339.483 80.608 339.155 81.696 339.155 83.12C339.155 84.512 339.483 85.616 340.139 86.432C340.795 87.232 341.731 87.632 342.947 87.632C343.443 87.632 343.963 87.528 344.507 87.32C345.067 87.112 345.579 86.776 346.043 86.312L346.715 87.728C346.251 88.192 345.659 88.56 344.939 88.832C344.235 89.088 343.531 89.216 342.827 89.216ZM348.752 74.432V72.248H351.152V74.432H348.752ZM348.992 89V77.336H350.936V89H348.992ZM358.242 89.216C357.442 89.216 356.722 89.064 356.082 88.76C355.458 88.44 354.962 88.008 354.594 87.464C354.226 86.92 354.042 86.312 354.042 85.64C354.042 84.792 354.258 84.12 354.69 83.624C355.138 83.128 355.866 82.776 356.874 82.568C357.898 82.344 359.29 82.232 361.05 82.232H361.818V81.488C361.818 80.496 361.61 79.784 361.194 79.352C360.794 78.904 360.146 78.68 359.25 78.68C358.546 78.68 357.866 78.784 357.21 78.992C356.554 79.184 355.882 79.504 355.194 79.952L354.522 78.536C355.13 78.104 355.866 77.76 356.73 77.504C357.61 77.248 358.45 77.12 359.25 77.12C360.754 77.12 361.866 77.488 362.586 78.224C363.322 78.96 363.69 80.104 363.69 81.656V89H361.866V86.984C361.562 87.672 361.09 88.216 360.45 88.616C359.826 89.016 359.09 89.216 358.242 89.216ZM358.554 87.752C359.514 87.752 360.298 87.424 360.906 86.768C361.514 86.096 361.818 85.248 361.818 84.224V83.504H361.074C359.778 83.504 358.754 83.568 358.002 83.696C357.266 83.808 356.746 84.016 356.442 84.32C356.154 84.608 356.01 85.008 356.01 85.52C356.01 86.176 356.234 86.712 356.682 87.128C357.146 87.544 357.77 87.752 358.554 87.752ZM370.873 89.216C369.689 89.216 368.793 88.872 368.185 88.184C367.593 87.48 367.297 86.464 367.297 85.136V72.08H369.241V84.992C369.241 86.704 369.921 87.56 371.281 87.56C371.681 87.56 372.041 87.512 372.361 87.416L372.313 89.048C371.817 89.16 371.337 89.216 370.873 89.216Z" fill="black"/>
<path d="M178.606 145.824L176.59 142.584C176.046 141.672 175.158 141.216 173.926 141.216C172.358 141.216 170.99 140.864 169.822 140.16C168.67 139.44 167.774 138.432 167.134 137.136C166.51 135.84 166.198 134.304 166.198 132.528C166.198 130.752 166.51 129.216 167.134 127.92C167.758 126.624 168.646 125.624 169.798 124.92C170.966 124.216 172.342 123.864 173.926 123.864C175.526 123.864 176.902 124.216 178.054 124.92C179.222 125.624 180.118 126.624 180.742 127.92C181.382 129.2 181.702 130.728 181.702 132.504C181.702 134.568 181.278 136.312 180.43 137.736C179.582 139.144 178.406 140.136 176.902 140.712C177.542 140.92 178.126 141.472 178.654 142.368L180.262 144.96L178.606 145.824ZM173.926 139.464C175.734 139.464 177.134 138.856 178.126 137.64C179.118 136.424 179.614 134.72 179.614 132.528C179.614 130.336 179.118 128.64 178.126 127.44C177.134 126.224 175.734 125.616 173.926 125.616C172.15 125.616 170.766 126.224 169.774 127.44C168.782 128.64 168.286 130.336 168.286 132.528C168.286 134.704 168.782 136.408 169.774 137.64C170.766 138.856 172.15 139.464 173.926 139.464ZM189.085 141.216C186.285 141.216 184.885 139.672 184.885 136.584V129.336H186.829V136.56C186.829 137.6 187.037 138.368 187.453 138.864C187.885 139.36 188.557 139.608 189.469 139.608C190.461 139.608 191.269 139.28 191.893 138.624C192.517 137.952 192.829 137.064 192.829 135.96V129.336H194.773V141H192.877V139.032C192.509 139.736 191.989 140.28 191.317 140.664C190.661 141.032 189.917 141.216 189.085 141.216ZM202.082 141.216C201.282 141.216 200.562 141.064 199.922 140.76C199.298 140.44 198.802 140.008 198.434 139.464C198.066 138.92 197.882 138.312 197.882 137.64C197.882 136.792 198.098 136.12 198.53 135.624C198.978 135.128 199.706 134.776 200.714 134.568C201.738 134.344 203.13 134.232 204.89 134.232H205.658V133.488C205.658 132.496 205.45 131.784 205.034 131.352C204.634 130.904 203.986 130.68 203.09 130.68C202.386 130.68 201.706 130.784 201.05 130.992C200.394 131.184 199.722 131.504 199.034 131.952L198.362 130.536C198.97 130.104 199.706 129.76 200.57 129.504C201.45 129.248 202.29 129.12 203.09 129.12C204.594 129.12 205.706 129.488 206.426 130.224C207.162 130.96 207.53 132.104 207.53 133.656V141H205.706V138.984C205.402 139.672 204.93 140.216 204.29 140.616C203.666 141.016 202.93 141.216 202.082 141.216ZM202.394 139.752C203.354 139.752 204.138 139.424 204.746 138.768C205.354 138.096 205.658 137.248 205.658 136.224V135.504H204.914C203.618 135.504 202.594 135.568 201.842 135.696C201.106 135.808 200.586 136.016 200.282 136.32C199.994 136.608 199.85 137.008 199.85 137.52C199.85 138.176 200.074 138.712 200.522 139.128C200.986 139.544 201.61 139.752 202.394 139.752ZM211.137 141V129.336H213.033V131.328C213.417 130.592 213.961 130.04 214.665 129.672C215.369 129.304 216.161 129.12 217.041 129.12C219.809 129.12 221.193 130.656 221.193 133.728V141H219.249V133.848C219.249 132.76 219.033 131.968 218.601 131.472C218.185 130.96 217.513 130.704 216.585 130.704C215.513 130.704 214.657 131.04 214.017 131.712C213.393 132.368 213.081 133.248 213.081 134.352V141H211.137ZM229.457 141.216C228.081 141.216 227.049 140.856 226.361 140.136C225.673 139.4 225.329 138.344 225.329 136.968V130.848H223.049V129.336H225.329V125.76H227.273V129.336H230.969V130.848H227.273V136.776C227.273 137.688 227.465 138.384 227.849 138.864C228.233 139.328 228.857 139.56 229.721 139.56C229.977 139.56 230.233 139.528 230.489 139.464C230.745 139.4 230.977 139.336 231.185 139.272L231.521 140.76C231.313 140.872 231.009 140.976 230.609 141.072C230.209 141.168 229.825 141.216 229.457 141.216ZM232.928 126.432V124.248H235.328V126.432H232.928ZM233.168 141V129.336H235.112V141H233.168ZM243.186 141.216C242.146 141.216 241.234 140.968 240.45 140.472C239.682 139.976 239.082 139.28 238.65 138.384C238.234 137.472 238.026 136.4 238.026 135.168C238.026 133.92 238.234 132.848 238.65 131.952C239.082 131.04 239.682 130.344 240.45 129.864C241.234 129.368 242.146 129.12 243.186 129.12C244.098 129.12 244.898 129.32 245.586 129.72C246.29 130.12 246.81 130.672 247.146 131.376V124.08H249.09V141H247.194V138.864C246.858 139.6 246.338 140.176 245.634 140.592C244.93 141.008 244.114 141.216 243.186 141.216ZM243.594 139.656C244.682 139.656 245.554 139.272 246.21 138.504C246.866 137.72 247.194 136.608 247.194 135.168C247.194 133.712 246.866 132.6 246.21 131.832C245.554 131.064 244.682 130.68 243.594 130.68C242.49 130.68 241.61 131.064 240.954 131.832C240.314 132.6 239.994 133.712 239.994 135.168C239.994 136.608 240.314 137.72 240.954 138.504C241.61 139.272 242.49 139.656 243.594 139.656ZM256.41 141.216C255.61 141.216 254.89 141.064 254.25 140.76C253.626 140.44 253.13 140.008 252.762 139.464C252.394 138.92 252.21 138.312 252.21 137.64C252.21 136.792 252.426 136.12 252.858 135.624C253.306 135.128 254.034 134.776 255.042 134.568C256.066 134.344 257.458 134.232 259.218 134.232H259.986V133.488C259.986 132.496 259.778 131.784 259.362 131.352C258.962 130.904 258.314 130.68 257.418 130.68C256.714 130.68 256.034 130.784 255.378 130.992C254.722 131.184 254.05 131.504 253.362 131.952L252.69 130.536C253.298 130.104 254.034 129.76 254.898 129.504C255.778 129.248 256.618 129.12 257.418 129.12C258.922 129.12 260.034 129.488 260.754 130.224C261.49 130.96 261.858 132.104 261.858 133.656V141H260.034V138.984C259.73 139.672 259.258 140.216 258.618 140.616C257.994 141.016 257.258 141.216 256.41 141.216ZM256.722 139.752C257.682 139.752 258.466 139.424 259.074 138.768C259.682 138.096 259.986 137.248 259.986 136.224V135.504H259.242C257.946 135.504 256.922 135.568 256.17 135.696C255.434 135.808 254.914 136.016 254.61 136.32C254.322 136.608 254.178 137.008 254.178 137.52C254.178 138.176 254.402 138.712 254.85 139.128C255.314 139.544 255.938 139.752 256.722 139.752ZM269.905 141.216C268.865 141.216 267.953 140.968 267.169 140.472C266.401 139.976 265.801 139.28 265.369 138.384C264.953 137.472 264.745 136.4 264.745 135.168C264.745 133.92 264.953 132.848 265.369 131.952C265.801 131.04 266.401 130.344 267.169 129.864C267.953 129.368 268.865 129.12 269.905 129.12C270.817 129.12 271.617 129.32 272.305 129.72C273.009 130.12 273.529 130.672 273.865 131.376V124.08H275.809V141H273.913V138.864C273.577 139.6 273.057 140.176 272.353 140.592C271.649 141.008 270.833 141.216 269.905 141.216ZM270.313 139.656C271.401 139.656 272.273 139.272 272.929 138.504C273.585 137.72 273.913 136.608 273.913 135.168C273.913 133.712 273.585 132.6 272.929 131.832C272.273 131.064 271.401 130.68 270.313 130.68C269.209 130.68 268.329 131.064 267.673 131.832C267.033 132.6 266.713 133.712 266.713 135.168C266.713 136.608 267.033 137.72 267.673 138.504C268.329 139.272 269.209 139.656 270.313 139.656ZM284.713 141.216C282.873 141.216 281.417 140.68 280.345 139.608C279.273 138.52 278.737 137.048 278.737 135.192C278.737 133.992 278.977 132.936 279.457 132.024C279.937 131.096 280.593 130.384 281.425 129.888C282.273 129.376 283.249 129.12 284.353 129.12C285.937 129.12 287.177 129.632 288.073 130.656C288.969 131.664 289.417 133.056 289.417 134.832V135.576H280.633C280.697 136.904 281.081 137.92 281.785 138.624C282.489 139.312 283.465 139.656 284.713 139.656C285.417 139.656 286.089 139.552 286.729 139.344C287.369 139.12 287.977 138.76 288.553 138.264L289.225 139.632C288.697 140.128 288.025 140.52 287.209 140.808C286.393 141.08 285.561 141.216 284.713 141.216ZM284.401 130.56C283.297 130.56 282.425 130.904 281.785 131.592C281.145 132.28 280.769 133.184 280.657 134.304H287.737C287.689 133.12 287.377 132.2 286.801 131.544C286.241 130.888 285.441 130.56 284.401 130.56ZM306.794 145.32V138.96C306.458 139.648 305.938 140.2 305.234 140.616C304.546 141.016 303.746 141.216 302.834 141.216C301.794 141.216 300.882 140.968 300.098 140.472C299.33 139.976 298.73 139.28 298.298 138.384C297.882 137.472 297.674 136.4 297.674 135.168C297.674 133.92 297.882 132.848 298.298 131.952C298.73 131.04 299.33 130.344 300.098 129.864C300.882 129.368 301.794 129.12 302.834 129.12C303.762 129.12 304.578 129.328 305.282 129.744C305.986 130.16 306.506 130.728 306.842 131.448V129.336H308.738V145.32H306.794ZM303.242 139.656C304.33 139.656 305.202 139.272 305.858 138.504C306.514 137.72 306.842 136.608 306.842 135.168C306.842 133.712 306.514 132.6 305.858 131.832C305.202 131.064 304.33 130.68 303.242 130.68C302.138 130.68 301.258 131.064 300.602 131.832C299.962 132.6 299.642 133.712 299.642 135.168C299.642 136.608 299.962 137.72 300.602 138.504C301.258 139.272 302.138 139.656 303.242 139.656ZM316.515 141.216C313.715 141.216 312.315 139.672 312.315 136.584V129.336H314.259V136.56C314.259 137.6 314.467 138.368 314.883 138.864C315.315 139.36 315.987 139.608 316.898 139.608C317.891 139.608 318.699 139.28 319.323 138.624C319.947 137.952 320.259 137.064 320.259 135.96V129.336H322.203V141H320.307V139.032C319.939 139.736 319.419 140.28 318.747 140.664C318.091 141.032 317.347 141.216 316.515 141.216ZM331.096 141.216C329.256 141.216 327.8 140.68 326.728 139.608C325.656 138.52 325.12 137.048 325.12 135.192C325.12 133.992 325.36 132.936 325.84 132.024C326.32 131.096 326.976 130.384 327.808 129.888C328.656 129.376 329.632 129.12 330.736 129.12C332.32 129.12 333.56 129.632 334.456 130.656C335.352 131.664 335.8 133.056 335.8 134.832V135.576H327.016C327.08 136.904 327.464 137.92 328.168 138.624C328.872 139.312 329.848 139.656 331.096 139.656C331.8 139.656 332.472 139.552 333.112 139.344C333.752 139.12 334.36 138.76 334.936 138.264L335.608 139.632C335.08 140.128 334.408 140.52 333.592 140.808C332.776 141.08 331.944 141.216 331.096 141.216ZM330.784 130.56C329.68 130.56 328.808 130.904 328.168 131.592C327.528 132.28 327.152 133.184 327.04 134.304H334.12C334.072 133.12 333.76 132.2 333.184 131.544C332.624 130.888 331.824 130.56 330.784 130.56ZM348.713 141.216C347.801 141.216 346.937 141.088 346.121 140.832C345.305 140.576 344.633 140.216 344.105 139.752L344.729 138.384C345.305 138.848 345.937 139.192 346.625 139.416C347.329 139.624 348.041 139.728 348.761 139.728C349.673 139.728 350.361 139.56 350.825 139.224C351.289 138.888 351.521 138.432 351.521 137.856C351.521 137.408 351.369 137.056 351.065 136.8C350.761 136.528 350.281 136.32 349.625 136.176L347.441 135.696C345.457 135.264 344.465 134.24 344.465 132.624C344.465 131.568 344.881 130.72 345.713 130.08C346.561 129.44 347.665 129.12 349.025 129.12C349.825 129.12 350.585 129.248 351.305 129.504C352.041 129.744 352.649 130.104 353.129 130.584L352.481 131.952C352.017 131.52 351.473 131.192 350.849 130.968C350.241 130.728 349.633 130.608 349.025 130.608C348.129 130.608 347.449 130.784 346.985 131.136C346.521 131.488 346.289 131.952 346.289 132.528C346.289 133.424 346.881 134 348.065 134.256L350.249 134.712C351.273 134.936 352.049 135.296 352.577 135.792C353.105 136.272 353.369 136.928 353.369 137.76C353.369 138.832 352.945 139.68 352.097 140.304C351.249 140.912 350.121 141.216 348.713 141.216ZM360.004 141.216C359.204 141.216 358.484 141.064 357.844 140.76C357.22 140.44 356.724 140.008 356.356 139.464C355.988 138.92 355.804 138.312 355.804 137.64C355.804 136.792 356.02 136.12 356.452 135.624C356.9 135.128 357.628 134.776 358.636 134.568C359.66 134.344 361.052 134.232 362.812 134.232H363.58V133.488C363.58 132.496 363.372 131.784 362.956 131.352C362.556 130.904 361.908 130.68 361.012 130.68C360.308 130.68 359.628 130.784 358.972 130.992C358.316 131.184 357.644 131.504 356.956 131.952L356.284 130.536C356.892 130.104 357.628 129.76 358.492 129.504C359.372 129.248 360.212 129.12 361.012 129.12C362.516 129.12 363.628 129.488 364.348 130.224C365.084 130.96 365.452 132.104 365.452 133.656V141H363.628V138.984C363.324 139.672 362.852 140.216 362.212 140.616C361.588 141.016 360.852 141.216 360.004 141.216ZM360.316 139.752C361.276 139.752 362.06 139.424 362.668 138.768C363.276 138.096 363.58 137.248 363.58 136.224V135.504H362.836C361.54 135.504 360.516 135.568 359.764 135.696C359.028 135.808 358.508 136.016 358.204 136.32C357.916 136.608 357.772 137.008 357.772 137.52C357.772 138.176 357.996 138.712 358.444 139.128C358.908 139.544 359.532 139.752 360.316 139.752ZM368.818 126.432V124.248H371.218V126.432H368.818ZM369.058 141V129.336H371.002V141H369.058ZM378.765 141.216C375.965 141.216 374.565 139.672 374.565 136.584V129.336H376.509V136.56C376.509 137.6 376.717 138.368 377.133 138.864C377.565 139.36 378.237 139.608 379.148 139.608C380.141 139.608 380.949 139.28 381.573 138.624C382.197 137.952 382.509 137.064 382.509 135.96V129.336H384.453V141H382.557V139.032C382.189 139.736 381.669 140.28 380.997 140.664C380.341 141.032 379.597 141.216 378.765 141.216Z" fill="black"/>
<path d="M202.517 197.824L200.501 194.584C199.957 193.672 199.069 193.216 197.837 193.216C196.269 193.216 194.901 192.864 193.733 192.16C192.581 191.44 191.685 190.432 191.045 189.136C190.421 187.84 190.109 186.304 190.109 184.528C190.109 182.752 190.421 181.216 191.045 179.92C191.669 178.624 192.557 177.624 193.709 176.92C194.877 176.216 196.253 175.864 197.837 175.864C199.437 175.864 200.813 176.216 201.965 176.92C203.133 177.624 204.029 178.624 204.653 179.92C205.293 181.2 205.613 182.728 205.613 184.504C205.613 186.568 205.189 188.312 204.341 189.736C203.493 191.144 202.317 192.136 200.813 192.712C201.453 192.92 202.037 193.472 202.565 194.368L204.173 196.96L202.517 197.824ZM197.837 191.464C199.645 191.464 201.045 190.856 202.037 189.64C203.029 188.424 203.525 186.72 203.525 184.528C203.525 182.336 203.029 180.64 202.037 179.44C201.045 178.224 199.645 177.616 197.837 177.616C196.061 177.616 194.677 178.224 193.685 179.44C192.693 180.64 192.197 182.336 192.197 184.528C192.197 186.704 192.693 188.408 193.685 189.64C194.677 190.856 196.061 191.464 197.837 191.464ZM212.995 193.216C210.195 193.216 208.795 191.672 208.795 188.584V181.336H210.739V188.56C210.739 189.6 210.947 190.368 211.363 190.864C211.795 191.36 212.467 191.608 213.379 191.608C214.371 191.608 215.179 191.28 215.803 190.624C216.427 189.952 216.739 189.064 216.739 187.96V181.336H218.683V193H216.787V191.032C216.419 191.736 215.899 192.28 215.227 192.664C214.571 193.032 213.827 193.216 212.995 193.216ZM225.992 193.216C225.192 193.216 224.472 193.064 223.832 192.76C223.208 192.44 222.712 192.008 222.344 191.464C221.976 190.92 221.792 190.312 221.792 189.64C221.792 188.792 222.008 188.12 222.44 187.624C222.888 187.128 223.616 186.776 224.624 186.568C225.648 186.344 227.04 186.232 228.8 186.232H229.568V185.488C229.568 184.496 229.36 183.784 228.944 183.352C228.544 182.904 227.896 182.68 227 182.68C226.296 182.68 225.616 182.784 224.96 182.992C224.304 183.184 223.632 183.504 222.944 183.952L222.272 182.536C222.88 182.104 223.616 181.76 224.48 181.504C225.36 181.248 226.2 181.12 227 181.12C228.504 181.12 229.616 181.488 230.336 182.224C231.072 182.96 231.44 184.104 231.44 185.656V193H229.616V190.984C229.312 191.672 228.84 192.216 228.2 192.616C227.576 193.016 226.84 193.216 225.992 193.216ZM226.304 191.752C227.264 191.752 228.048 191.424 228.656 190.768C229.264 190.096 229.568 189.248 229.568 188.224V187.504H228.824C227.528 187.504 226.504 187.568 225.752 187.696C225.016 187.808 224.496 188.016 224.192 188.32C223.904 188.608 223.76 189.008 223.76 189.52C223.76 190.176 223.984 190.712 224.432 191.128C224.896 191.544 225.52 191.752 226.304 191.752ZM235.047 193V181.336H236.943V183.328C237.327 182.592 237.871 182.04 238.575 181.672C239.279 181.304 240.071 181.12 240.951 181.12C243.719 181.12 245.103 182.656 245.103 185.728V193H243.159V185.848C243.159 184.76 242.943 183.968 242.511 183.472C242.095 182.96 241.423 182.704 240.495 182.704C239.423 182.704 238.567 183.04 237.927 183.712C237.303 184.368 236.991 185.248 236.991 186.352V193H235.047ZM253.367 193.216C251.991 193.216 250.959 192.856 250.271 192.136C249.583 191.4 249.239 190.344 249.239 188.968V182.848H246.959V181.336H249.239V177.76H251.183V181.336H254.879V182.848H251.183V188.776C251.183 189.688 251.375 190.384 251.759 190.864C252.143 191.328 252.767 191.56 253.631 191.56C253.887 191.56 254.143 191.528 254.399 191.464C254.655 191.4 254.887 191.336 255.095 191.272L255.431 192.76C255.223 192.872 254.919 192.976 254.519 193.072C254.119 193.168 253.735 193.216 253.367 193.216ZM256.838 178.432V176.248H259.238V178.432H256.838ZM257.078 193V181.336H259.022V193H257.078ZM267.096 193.216C266.056 193.216 265.144 192.968 264.36 192.472C263.592 191.976 262.992 191.28 262.56 190.384C262.144 189.472 261.936 188.4 261.936 187.168C261.936 185.92 262.144 184.848 262.56 183.952C262.992 183.04 263.592 182.344 264.36 181.864C265.144 181.368 266.056 181.12 267.096 181.12C268.008 181.12 268.808 181.32 269.496 181.72C270.2 182.12 270.72 182.672 271.056 183.376V176.08H273V193H271.104V190.864C270.768 191.6 270.248 192.176 269.544 192.592C268.84 193.008 268.024 193.216 267.096 193.216ZM267.504 191.656C268.592 191.656 269.464 191.272 270.12 190.504C270.776 189.72 271.104 188.608 271.104 187.168C271.104 185.712 270.776 184.6 270.12 183.832C269.464 183.064 268.592 182.68 267.504 182.68C266.4 182.68 265.52 183.064 264.864 183.832C264.224 184.6 263.904 185.712 263.904 187.168C263.904 188.608 264.224 189.72 264.864 190.504C265.52 191.272 266.4 191.656 267.504 191.656ZM280.32 193.216C279.52 193.216 278.8 193.064 278.16 192.76C277.536 192.44 277.04 192.008 276.672 191.464C276.304 190.92 276.12 190.312 276.12 189.64C276.12 188.792 276.336 188.12 276.768 187.624C277.216 187.128 277.944 186.776 278.952 186.568C279.976 186.344 281.368 186.232 283.128 186.232H283.896V185.488C283.896 184.496 283.688 183.784 283.272 183.352C282.872 182.904 282.224 182.68 281.328 182.68C280.624 182.68 279.944 182.784 279.288 182.992C278.632 183.184 277.96 183.504 277.272 183.952L276.6 182.536C277.208 182.104 277.944 181.76 278.808 181.504C279.688 181.248 280.528 181.12 281.328 181.12C282.832 181.12 283.944 181.488 284.664 182.224C285.4 182.96 285.768 184.104 285.768 185.656V193H283.944V190.984C283.64 191.672 283.168 192.216 282.528 192.616C281.904 193.016 281.168 193.216 280.32 193.216ZM280.632 191.752C281.592 191.752 282.376 191.424 282.984 190.768C283.592 190.096 283.896 189.248 283.896 188.224V187.504H283.152C281.856 187.504 280.832 187.568 280.08 187.696C279.344 187.808 278.824 188.016 278.52 188.32C278.232 188.608 278.088 189.008 278.088 189.52C278.088 190.176 278.312 190.712 278.76 191.128C279.224 191.544 279.848 191.752 280.632 191.752ZM293.815 193.216C292.775 193.216 291.863 192.968 291.079 192.472C290.311 191.976 289.711 191.28 289.279 190.384C288.863 189.472 288.655 188.4 288.655 187.168C288.655 185.92 288.863 184.848 289.279 183.952C289.711 183.04 290.311 182.344 291.079 181.864C291.863 181.368 292.775 181.12 293.815 181.12C294.727 181.12 295.527 181.32 296.215 181.72C296.919 182.12 297.439 182.672 297.775 183.376V176.08H299.719V193H297.823V190.864C297.487 191.6 296.967 192.176 296.263 192.592C295.559 193.008 294.743 193.216 293.815 193.216ZM294.223 191.656C295.311 191.656 296.183 191.272 296.839 190.504C297.495 189.72 297.823 188.608 297.823 187.168C297.823 185.712 297.495 184.6 296.839 183.832C296.183 183.064 295.311 182.68 294.223 182.68C293.119 182.68 292.239 183.064 291.583 183.832C290.943 184.6 290.623 185.712 290.623 187.168C290.623 188.608 290.943 189.72 291.583 190.504C292.239 191.272 293.119 191.656 294.223 191.656ZM308.623 193.216C306.783 193.216 305.327 192.68 304.255 191.608C303.183 190.52 302.647 189.048 302.647 187.192C302.647 185.992 302.887 184.936 303.367 184.024C303.847 183.096 304.503 182.384 305.335 181.888C306.183 181.376 307.159 181.12 308.263 181.12C309.847 181.12 311.087 181.632 311.983 182.656C312.879 183.664 313.327 185.056 313.327 186.832V187.576H304.543C304.607 188.904 304.991 189.92 305.695 190.624C306.399 191.312 307.375 191.656 308.623 191.656C309.327 191.656 309.999 191.552 310.639 191.344C311.279 191.12 311.887 190.76 312.463 190.264L313.135 191.632C312.607 192.128 311.935 192.52 311.119 192.808C310.303 193.08 309.471 193.216 308.623 193.216ZM308.311 182.56C307.207 182.56 306.335 182.904 305.695 183.592C305.055 184.28 304.679 185.184 304.567 186.304H311.647C311.599 185.12 311.287 184.2 310.711 183.544C310.151 182.888 309.351 182.56 308.311 182.56ZM322.928 193V182.848H320.624V181.336H322.928V180.928C322.928 179.376 323.312 178.2 324.08 177.4C324.864 176.6 326.064 176.152 327.68 176.056L328.568 176.008L328.688 177.52L327.68 177.568C326.688 177.632 325.968 177.928 325.52 178.456C325.088 178.968 324.872 179.712 324.872 180.688V181.336H332.072V193H330.128V182.848H324.872V193H322.928ZM329.912 178.432V176.248H332.288V178.432H329.912ZM335.711 193V181.336H337.607V183.328C337.991 182.592 338.535 182.04 339.239 181.672C339.943 181.304 340.735 181.12 341.615 181.12C344.383 181.12 345.767 182.656 345.767 185.728V193H343.823V185.848C343.823 184.76 343.607 183.968 343.175 183.472C342.759 182.96 342.087 182.704 341.159 182.704C340.087 182.704 339.231 183.04 338.591 183.712C337.967 184.368 337.655 185.248 337.655 186.352V193H335.711ZM353.023 193.216C352.223 193.216 351.503 193.064 350.863 192.76C350.239 192.44 349.743 192.008 349.375 191.464C349.007 190.92 348.823 190.312 348.823 189.64C348.823 188.792 349.039 188.12 349.471 187.624C349.919 187.128 350.647 186.776 351.655 186.568C352.679 186.344 354.071 186.232 355.831 186.232H356.599V185.488C356.599 184.496 356.391 183.784 355.975 183.352C355.575 182.904 354.927 182.68 354.031 182.68C353.327 182.68 352.647 182.784 351.991 182.992C351.335 183.184 350.663 183.504 349.975 183.952L349.303 182.536C349.911 182.104 350.647 181.76 351.511 181.504C352.391 181.248 353.231 181.12 354.031 181.12C355.535 181.12 356.647 181.488 357.367 182.224C358.103 182.96 358.471 184.104 358.471 185.656V193H356.647V190.984C356.343 191.672 355.871 192.216 355.231 192.616C354.607 193.016 353.871 193.216 353.023 193.216ZM353.335 191.752C354.295 191.752 355.079 191.424 355.687 190.768C356.295 190.096 356.599 189.248 356.599 188.224V187.504H355.855C354.559 187.504 353.535 187.568 352.783 187.696C352.047 187.808 351.527 188.016 351.223 188.32C350.935 188.608 350.791 189.008 350.791 189.52C350.791 190.176 351.015 190.712 351.463 191.128C351.927 191.544 352.551 191.752 353.335 191.752ZM365.654 193.216C364.47 193.216 363.574 192.872 362.966 192.184C362.374 191.48 362.078 190.464 362.078 189.136V176.08H364.022V188.992C364.022 190.704 364.702 191.56 366.062 191.56C366.462 191.56 366.822 191.512 367.142 191.416L367.094 193.048C366.598 193.16 366.118 193.216 365.654 193.216Z" fill="black"/>
</svg>
